<svg width="21" height="28" viewBox="0 0 21 28" fill="none" xmlns="http://www.w3.org/2000/svg">
    <defs>
        <linearGradient id="paint0_linear_2521_12966" x1="10.3369" y1="-0.591353" x2="10.2789" y2="28.7809" gradientUnits="userSpaceOnUse">
            <stop stop-color="#E4A90D"/>
            <stop offset="0.557292" stop-color="#FEC51C"/>
            <stop offset="1" stop-color="#FFE295"/>
        </linearGradient>
    </defs>
<path d="M10.3051 19.9614L0 27.9587L0.0425146 0.000976562L20.6329 0.042134L20.5896 27.9999L10.3051 19.9614Z" fill="#FEDF00"/>
<path d="M0.276367 27.3752L0.316519 0L20.3558 0.0402428L20.3149 27.4145L10.3067 19.9613L0.276367 27.3752Z" fill="url(#paint0_linear_2521_12966)"/>
<path d="M3 9.94673V6H3.92985V7.51937H5.35309V6H6.28926V9.94673H5.35309V8.30024H3.92985V9.94673H3Z" fill="#3E3D5C"/>
<path d="M8.23011 7.94915L8.1289 8.31235H9.00814L8.91326 7.94915C8.85422 7.75141 8.79729 7.54157 8.74247 7.31961C8.68765 7.09766 8.63283 6.88378 8.57801 6.67797H8.55271C8.5021 6.88781 8.44939 7.10371 8.39457 7.32567C8.34397 7.54358 8.28914 7.75141 8.23011 7.94915ZM6.73729 9.94673L8.02769 6H9.1473L10.4377 9.94673H9.45093L9.19791 9.00847H7.93913L7.68611 9.94673H6.73729Z" fill="#3E3D5C"/>
<path d="M10.8884 9.94673V6H12.3748C12.5941 6 12.7987 6.02018 12.9884 6.06053C13.1824 6.10089 13.3511 6.16949 13.4945 6.26634C13.6378 6.35916 13.7517 6.48426 13.836 6.64165C13.9204 6.79903 13.9625 6.99475 13.9625 7.22881C13.9625 7.51937 13.8951 7.75948 13.7601 7.94915C13.6294 8.13479 13.4523 8.27401 13.2288 8.36683L14.165 9.94673H13.1213L12.3306 8.52421H11.8182V9.94673H10.8884ZM11.8182 7.81598H12.2989C12.5435 7.81598 12.7291 7.76755 12.8556 7.6707C12.9863 7.56981 13.0517 7.42252 13.0517 7.22881C13.0517 7.03511 12.9863 6.89992 12.8556 6.82324C12.7291 6.74657 12.5435 6.70823 12.2989 6.70823H11.8182V7.81598Z" fill="#3E3D5C"/>
<path d="M14.7677 9.94673V6H15.9316C16.2478 6 16.5325 6.03834 16.7855 6.11501C17.0385 6.19169 17.2557 6.31073 17.437 6.47216C17.6184 6.62954 17.7575 6.83132 17.8545 7.07748C17.9515 7.32365 18 7.61622 18 7.95521C18 8.29419 17.9515 8.58878 17.8545 8.83898C17.7575 9.08918 17.6205 9.29701 17.4434 9.46247C17.2662 9.62389 17.0533 9.74496 16.8045 9.82567C16.5599 9.90638 16.2858 9.94673 15.9822 9.94673H14.7677ZM15.6975 9.22639H15.8746C16.0517 9.22639 16.212 9.2042 16.3554 9.15981C16.4987 9.11542 16.621 9.04479 16.7222 8.94794C16.8235 8.84705 16.9015 8.7159 16.9563 8.55448C17.0153 8.39306 17.0448 8.1933 17.0448 7.95521C17.0448 7.72115 17.0153 7.52542 16.9563 7.36804C16.9015 7.20662 16.8235 7.0795 16.7222 6.98668C16.621 6.88983 16.4987 6.82123 16.3554 6.78087C16.212 6.74052 16.0517 6.72034 15.8746 6.72034H15.6975V9.22639Z" fill="#3E3D5C"/>
<path d="M6.00523 16V12.0533H6.96038L8.03572 14.0145L8.44055 14.8862H8.46586C8.44477 14.6764 8.41947 14.4423 8.38995 14.184C8.36465 13.9257 8.352 13.6796 8.352 13.4455V12.0533H9.23757V16H8.28242L7.20708 14.0327L6.80225 13.1731H6.77694C6.79803 13.391 6.82122 13.6251 6.84653 13.8753C6.87604 14.1255 6.8908 14.3676 6.8908 14.6017V16H6.00523Z" fill="#3E3D5C"/>
<path d="M10.2119 16V12.0533H12.8117V12.8039H11.1418V13.7179H12.5714V14.4685H11.1418V16H10.2119Z" fill="#3E3D5C"/>
<path d="M14.3325 16V12.8039H13.2002V12.0533H16.4009V12.8039H15.2686V16H14.3325Z" fill="#3E3D5C"/>
</svg>
