<svg width="28" height="28" viewBox="0 0 28 28" fill="none" xmlns="http://www.w3.org/2000/svg">
<circle cx="14" cy="14" r="14" fill="#585782"/>
<path d="M19.0008 8.99984C18.4925 8.99984 18.0258 8.70817 17.7925 8.25817L17.1925 7.04984C16.8091 6.2915 15.8091 5.6665 14.9591 5.6665H13.0508C12.1925 5.6665 11.1925 6.2915 10.8091 7.04984L10.2091 8.25817C9.97579 8.70817 9.50912 8.99984 9.00079 8.99984C7.19246 8.99984 5.75912 10.5248 5.87579 12.3248L6.30912 19.2082C6.40912 20.9248 7.33412 22.3332 9.63412 22.3332H18.3675C20.6675 22.3332 21.5841 20.9248 21.6925 19.2082L22.1258 12.3248C22.2425 10.5248 20.8091 8.99984 19.0008 8.99984ZM12.7508 10.0415H15.2508C15.5925 10.0415 15.8758 10.3248 15.8758 10.6665C15.8758 11.0082 15.5925 11.2915 15.2508 11.2915H12.7508C12.4091 11.2915 12.1258 11.0082 12.1258 10.6665C12.1258 10.3248 12.4091 10.0415 12.7508 10.0415ZM14.0008 19.0998C12.4508 19.0998 11.1841 17.8415 11.1841 16.2832C11.1841 14.7248 12.4425 13.4665 14.0008 13.4665C15.5591 13.4665 16.8175 14.7248 16.8175 16.2832C16.8175 17.8415 15.5508 19.0998 14.0008 19.0998Z" fill="white"/>
</svg>
