<svg width="24" height="24" viewBox="0 0 24 24" fill="none" xmlns="http://www.w3.org/2000/svg">
<path d="M21 7V17C21 20 19.5 22 16 22H8C4.5 22 3 20 3 17V7C3 4 4.5 2 8 2H16C19.5 2 21 4 21 7Z" stroke="white" stroke-width="1.5" stroke-miterlimit="10" stroke-linecap="round" stroke-linejoin="round"/>
<path d="M14.5 4.5V6.5C14.5 7.6 15.4 8.5 16.5 8.5H18.5" stroke="white" stroke-width="1.5" stroke-miterlimit="10" stroke-linecap="round" stroke-linejoin="round"/>
<path d="M5 18.328V13.096H6.4C7.2 13.096 7.824 13.312 8.272 13.744C8.72 14.176 8.944 14.824 8.944 15.688C8.944 16.12 8.88533 16.5013 8.768 16.832C8.656 17.1627 8.49067 17.44 8.272 17.664C8.05867 17.8827 7.79733 18.048 7.488 18.16C7.184 18.272 6.83733 18.328 6.448 18.328H5ZM5.928 17.576H6.336C6.86933 17.576 7.27733 17.424 7.56 17.12C7.848 16.8107 7.992 16.3333 7.992 15.688C7.992 15.048 7.848 14.5813 7.56 14.288C7.272 13.9947 6.864 13.848 6.336 13.848H5.928V17.576Z" fill="#46BCFF"/>
<path d="M11.872 18.424C11.5307 18.424 11.2187 18.3627 10.936 18.24C10.6533 18.112 10.4107 17.9307 10.208 17.696C10.0053 17.456 9.848 17.168 9.736 16.832C9.624 16.496 9.568 16.1147 9.568 15.688C9.568 15.2667 9.624 14.8907 9.736 14.56C9.848 14.224 10.0053 13.9413 10.208 13.712C10.4107 13.4827 10.6533 13.3067 10.936 13.184C11.2187 13.0613 11.5307 13 11.872 13C12.2133 13 12.5253 13.0613 12.808 13.184C13.0907 13.3067 13.3333 13.4827 13.536 13.712C13.744 13.9413 13.904 14.224 14.016 14.56C14.128 14.8907 14.184 15.2667 14.184 15.688C14.184 16.1147 14.128 16.496 14.016 16.832C13.904 17.168 13.744 17.456 13.536 17.696C13.3333 17.9307 13.0907 18.112 12.808 18.24C12.5253 18.3627 12.2133 18.424 11.872 18.424ZM11.872 17.616C12.08 17.616 12.2667 17.5707 12.432 17.48C12.5973 17.3893 12.7387 17.2613 12.856 17.096C12.9733 16.9253 13.064 16.7227 13.128 16.488C13.192 16.248 13.224 15.9813 13.224 15.688C13.224 15.1013 13.1013 14.6427 12.856 14.312C12.616 13.976 12.288 13.808 11.872 13.808C11.456 13.808 11.1253 13.976 10.88 14.312C10.64 14.6427 10.52 15.1013 10.52 15.688C10.52 15.9813 10.552 16.248 10.616 16.488C10.68 16.7227 10.7707 16.9253 10.888 17.096C11.0053 17.2613 11.1467 17.3893 11.312 17.48C11.4773 17.5707 11.664 17.616 11.872 17.616Z" fill="#46BCFF"/>
<path d="M17.1586 18.424C16.828 18.424 16.5186 18.3653 16.2306 18.248C15.9426 18.1307 15.692 17.9573 15.4786 17.728C15.2706 17.4987 15.1053 17.216 14.9826 16.88C14.86 16.544 14.7986 16.16 14.7986 15.728C14.7986 15.3013 14.86 14.92 14.9826 14.584C15.1106 14.2427 15.2813 13.9547 15.4946 13.72C15.7133 13.4853 15.9666 13.3067 16.2546 13.184C16.548 13.0613 16.86 13 17.1906 13C17.5213 13 17.8146 13.0667 18.0706 13.2C18.3266 13.3333 18.5373 13.488 18.7026 13.664L18.2066 14.264C18.068 14.1253 17.9186 14.016 17.7586 13.936C17.5986 13.8507 17.4173 13.808 17.2146 13.808C17.0013 13.808 16.804 13.8533 16.6226 13.944C16.4466 14.0293 16.292 14.1547 16.1586 14.32C16.0306 14.48 15.9293 14.6773 15.8546 14.912C15.7853 15.1467 15.7506 15.4107 15.7506 15.704C15.7506 16.3013 15.8786 16.7707 16.1346 17.112C16.396 17.448 16.748 17.616 17.1906 17.616C17.4253 17.616 17.6333 17.568 17.8146 17.472C17.996 17.3707 18.1613 17.24 18.3106 17.08L18.8066 17.664C18.5933 17.9093 18.348 18.0987 18.0706 18.232C17.7986 18.36 17.4946 18.424 17.1586 18.424Z" fill="#46BCFF"/>
</svg>
