<svg width="28" height="28" viewBox="0 0 28 28" fill="none" xmlns="http://www.w3.org/2000/svg">
<circle cx="14" cy="14" r="14" fill="#585782"/>
<path d="M9.85293 15.5586H7.77626C6.9207 15.5586 6.2207 16.2586 6.2207 17.1141V21.003C6.2207 21.4308 6.5707 21.7808 6.99848 21.7808H9.85293C10.2807 21.7808 10.6307 21.4308 10.6307 21.003V16.3364C10.6307 15.9086 10.2807 15.5586 9.85293 15.5586Z" fill="#46BCFF"/>
<path d="M15.0346 12.4453H12.9579C12.1023 12.4453 11.4023 13.1453 11.4023 14.0009V21.0009C11.4023 21.4286 11.7523 21.7786 12.1801 21.7786H15.8123C16.2401 21.7786 16.5901 21.4286 16.5901 21.0009V14.0009C16.5901 13.1453 15.8979 12.4453 15.0346 12.4453Z" fill="#46BCFF"/>
<path d="M20.2216 17.8906H18.145C17.7172 17.8906 17.3672 18.2406 17.3672 18.6684V21.0017C17.3672 21.4295 17.7172 21.7795 18.145 21.7795H20.9994C21.4272 21.7795 21.7772 21.4295 21.7772 21.0017V19.4462C21.7772 18.5906 21.0772 17.8906 20.2216 17.8906Z" fill="#46BCFF"/>
<path d="M16.3407 8.43882C16.5818 8.19771 16.6751 7.90993 16.5974 7.66104C16.5196 7.41215 16.2785 7.23326 15.9362 7.17882L15.1896 7.05437C15.1585 7.05437 15.0885 6.99993 15.0729 6.96882L14.6607 6.14438C14.3496 5.51438 13.6418 5.51438 13.3307 6.14438L12.9185 6.96882C12.9107 6.99993 12.8407 7.05437 12.8096 7.05437L12.0629 7.17882C11.7207 7.23326 11.4874 7.41215 11.4018 7.66104C11.324 7.90993 11.4174 8.19771 11.6585 8.43882L12.234 9.02215C12.2651 9.04549 12.2885 9.13882 12.2807 9.16993L12.1174 9.88549C11.9929 10.4222 12.1951 10.6633 12.3274 10.7566C12.4596 10.8499 12.7474 10.9744 13.2218 10.6944L13.9218 10.2822C13.9529 10.2588 14.054 10.2588 14.0851 10.2822L14.7774 10.6944C14.9951 10.8266 15.174 10.8655 15.314 10.8655C15.4774 10.8655 15.594 10.8033 15.664 10.7566C15.7962 10.6633 15.9985 10.4222 15.874 9.88549L15.7107 9.16993C15.7029 9.13104 15.7262 9.04549 15.7574 9.02215L16.3407 8.43882Z" fill="#46BCFF"/>
</svg>
