<svg width="28" height="28" viewBox="0 0 28 28" fill="none" xmlns="http://www.w3.org/2000/svg">
<circle cx="14" cy="14" r="14" fill="#585782"/>
<path d="M18.6812 14.2571L17.7323 13.3082C17.5068 13.1138 17.3746 12.826 17.3668 12.5071C17.3512 12.1571 17.4912 11.8071 17.7479 11.5504L18.6812 10.6171C19.4901 9.80821 19.7934 9.03043 19.5368 8.41599C19.2879 7.80932 18.5179 7.47488 17.3823 7.47488H9.25456V6.80599C9.25456 6.4871 8.99011 6.22266 8.67122 6.22266C8.35234 6.22266 8.08789 6.4871 8.08789 6.80599V21.1949C8.08789 21.5138 8.35234 21.7782 8.67122 21.7782C8.99011 21.7782 9.25456 21.5138 9.25456 21.1949V17.3993H17.3823C18.5023 17.3993 19.2568 17.0571 19.5134 16.4427C19.7701 15.8282 19.4746 15.0582 18.6812 14.2571Z" fill="white"/>
</svg>
