<svg width="28" height="28" viewBox="0 0 28 28" fill="none" xmlns="http://www.w3.org/2000/svg">
<circle cx="14" cy="14" r="14" fill="#585782"/>
<path d="M19.0299 13.2928C18.8254 13.0261 18.5765 12.795 18.3454 12.5639C17.7499 12.0306 17.0743 11.6484 16.5054 11.0884C15.181 9.79057 14.8876 7.64835 15.7321 6.00391C14.8876 6.20835 14.1499 6.67057 13.5187 7.17724C11.2165 9.02613 10.3099 12.2884 11.3943 15.0884C11.4299 15.1772 11.4654 15.2661 11.4654 15.3817C11.4654 15.5772 11.3321 15.755 11.1543 15.8261C10.9499 15.915 10.7365 15.8617 10.5676 15.7195C10.5143 15.675 10.4787 15.6306 10.4432 15.5684C9.43874 14.2972 9.27874 12.475 9.9543 11.0172C8.46985 12.2261 7.66096 14.2706 7.77652 16.1995C7.82985 16.6439 7.88319 17.0884 8.0343 17.5328C8.15874 18.0661 8.39874 18.5995 8.66541 19.0706C9.62541 20.6084 11.2876 21.7106 13.0743 21.9328C14.9765 22.1728 17.0121 21.8261 18.4699 20.5106C20.0965 19.035 20.6654 16.6706 19.8299 14.6439L19.7143 14.4128C19.5276 14.0039 19.0299 13.2928 19.0299 13.2928ZM16.221 18.8928C15.9721 19.1061 15.5632 19.3372 15.2432 19.4261C14.2476 19.7817 13.2521 19.2839 12.6654 18.6972C13.7232 18.4484 14.3543 17.6661 14.541 16.875C14.6921 16.1639 14.4076 15.5772 14.2921 14.8928C14.1854 14.235 14.2032 13.675 14.4432 13.0617C14.6121 13.3995 14.7899 13.7372 15.0032 14.0039C15.6876 14.8928 16.7632 15.2839 16.9943 16.4928C17.0299 16.6172 17.0476 16.7417 17.0476 16.875C17.0743 17.6039 16.7543 18.4039 16.221 18.8928Z" fill="#FF6C6C"/>
</svg>
