<svg width="28" height="28" viewBox="0 0 28 28" fill="none" xmlns="http://www.w3.org/2000/svg">
<circle cx="14" cy="14" r="14" fill="#585782"/>
<path d="M21.4341 13.0224L20.3841 11.7936C20.1896 11.5602 20.0263 11.1247 20.0263 10.8136V9.49134C20.0263 8.66689 19.3496 7.99023 18.5252 7.99023H17.2029C16.8918 7.99023 16.4485 7.82689 16.2152 7.63245L14.9863 6.58245C14.4496 6.12356 13.5707 6.12356 13.0341 6.58245L11.7896 7.63245C11.5563 7.82689 11.1207 7.99023 10.8096 7.99023H9.46405C8.63961 7.99023 7.96294 8.66689 7.96294 9.49134V10.8136C7.96294 11.1169 7.80739 11.5524 7.61294 11.7858L6.56294 13.0224C6.11183 13.5669 6.11183 14.438 6.56294 14.9669L7.61294 16.2036C7.80739 16.4291 7.96294 16.8724 7.96294 17.1758V18.5058C7.96294 19.3302 8.63961 20.0069 9.46405 20.0069H10.8174C11.1207 20.0069 11.5641 20.1702 11.7974 20.3647L13.0263 21.4147C13.5629 21.8736 14.4418 21.8736 14.9785 21.4147L16.2074 20.3647C16.4407 20.1702 16.8763 20.0069 17.1874 20.0069H18.5096C19.3341 20.0069 20.0107 19.3302 20.0107 18.5058V17.1836C20.0107 16.8724 20.1741 16.4369 20.3685 16.2036L21.4185 14.9747C21.8929 14.4458 21.8929 13.5669 21.4341 13.0224ZM13.4152 10.9924C13.4152 10.6736 13.6796 10.4091 13.9985 10.4091C14.3174 10.4091 14.5818 10.6736 14.5818 10.9924V14.7491C14.5818 15.068 14.3174 15.3324 13.9985 15.3324C13.6796 15.3324 13.4152 15.068 13.4152 14.7491V10.9924ZM13.9985 17.7902C13.5707 17.7902 13.2207 17.4402 13.2207 17.0124C13.2207 16.5847 13.5629 16.2347 13.9985 16.2347C14.4263 16.2347 14.7763 16.5847 14.7763 17.0124C14.7763 17.4402 14.4341 17.7902 13.9985 17.7902Z" fill="#F2994A"/>
</svg>
