<svg width="28" height="28" viewBox="0 0 28 28" fill="none" xmlns="http://www.w3.org/2000/svg">
<circle cx="14" cy="14" r="14" fill="#585782"/>
<path d="M19.732 8.47042L15.1742 6.44042C14.5053 6.14486 13.4942 6.14486 12.8253 6.44042L8.26753 8.47042C7.11642 8.98375 6.94531 9.68375 6.94531 10.0571C6.94531 10.4304 7.11642 11.1304 8.26753 11.6438L12.8253 13.6737C13.1598 13.8215 13.5798 13.8993 13.9998 13.8993C14.4198 13.8993 14.8398 13.8215 15.1742 13.6737L19.732 11.6438C20.8831 11.1304 21.0542 10.4304 21.0542 10.0571C21.0542 9.68375 20.8909 8.98375 19.732 8.47042Z" fill="#61C777"/>
<path d="M13.9996 17.9217C13.704 17.9217 13.4085 17.8595 13.1363 17.7428L7.89404 15.4095C7.09293 15.0517 6.4707 14.0951 6.4707 13.2162C6.4707 12.8973 6.72737 12.6406 7.04626 12.6406C7.36515 12.6406 7.62181 12.8973 7.62181 13.2162C7.62181 13.6362 7.97181 14.1806 8.3607 14.3517L13.6029 16.6851C13.8518 16.794 14.1396 16.794 14.3885 16.6851L19.6307 14.3517C20.0196 14.1806 20.3696 13.644 20.3696 13.2162C20.3696 12.8973 20.6263 12.6406 20.9451 12.6406C21.264 12.6406 21.5207 12.8973 21.5207 13.2162C21.5207 14.0873 20.8985 15.0517 20.0974 15.4095L14.8551 17.7428C14.5907 17.8595 14.2951 17.9217 13.9996 17.9217Z" fill="#61C777"/>
<path d="M13.9996 21.7772C13.704 21.7772 13.4085 21.715 13.1363 21.5983L7.89404 19.265C7.0307 18.8839 6.4707 18.0205 6.4707 17.0716C6.4707 16.7528 6.72737 16.4961 7.04626 16.4961C7.36515 16.4961 7.62181 16.7528 7.62181 17.0716C7.62181 17.5616 7.90959 18.005 8.3607 18.2072L13.6029 20.5405C13.8518 20.6494 14.1396 20.6494 14.3885 20.5405L19.6307 18.2072C20.074 18.0128 20.3696 17.5616 20.3696 17.0716C20.3696 16.7528 20.6263 16.4961 20.9451 16.4961C21.264 16.4961 21.5207 16.7528 21.5207 17.0716C21.5207 18.0205 20.9607 18.8761 20.0974 19.265L14.8551 21.5983C14.5907 21.715 14.2951 21.7772 13.9996 21.7772Z" fill="#61C777"/>
</svg>
