<svg width="24" height="24" viewBox="0 0 24 24" fill="none" xmlns="http://www.w3.org/2000/svg">
<path d="M21 7V17C21 20 19.5 22 16 22H8C4.5 22 3 20 3 17V7C3 4 4.5 2 8 2H16C19.5 2 21 4 21 7Z" stroke="white" stroke-width="1.5" stroke-miterlimit="10" stroke-linecap="round" stroke-linejoin="round"/>
<path d="M14.5 4.5V6.5C14.5 7.6 15.4 8.5 16.5 8.5H18.5" stroke="white" stroke-width="1.5" stroke-miterlimit="10" stroke-linecap="round" stroke-linejoin="round"/>
<path d="M5.66406 18.232V13H7.31206C7.60006 13 7.86673 13.0267 8.11206 13.08C8.36273 13.1333 8.57873 13.224 8.76006 13.352C8.9414 13.48 9.08273 13.648 9.18406 13.856C9.2854 14.0587 9.33606 14.312 9.33606 14.616C9.33606 14.904 9.2854 15.1547 9.18406 15.368C9.08273 15.5813 8.9414 15.76 8.76006 15.904C8.58406 16.0427 8.3734 16.1467 8.12806 16.216C7.88806 16.28 7.62673 16.312 7.34406 16.312H6.59206V18.232H5.66406ZM6.59206 15.568H7.27206C8.04006 15.568 8.42406 15.2507 8.42406 14.616C8.42406 14.2853 8.32273 14.0587 8.12006 13.936C7.92273 13.808 7.6294 13.744 7.24006 13.744H6.59206V15.568Z" fill="#FF6C6C"/>
<path d="M10.1603 18.232V13H11.5603C12.3603 13 12.9843 13.216 13.4323 13.648C13.8803 14.08 14.1043 14.728 14.1043 15.592C14.1043 16.024 14.0456 16.4053 13.9283 16.736C13.8163 17.0667 13.651 17.344 13.4323 17.568C13.219 17.7867 12.9576 17.952 12.6483 18.064C12.3443 18.176 11.9976 18.232 11.6083 18.232H10.1603ZM11.0883 17.48H11.4963C12.0296 17.48 12.4376 17.328 12.7203 17.024C13.0083 16.7147 13.1523 16.2373 13.1523 15.592C13.1523 14.952 13.0083 14.4853 12.7203 14.192C12.4323 13.8987 12.0243 13.752 11.4963 13.752H11.0883V17.48Z" fill="#FF6C6C"/>
<path d="M15.0003 18.232V13H18.1603V13.784H15.9283V15.264H17.8323V16.048H15.9283V18.232H15.0003Z" fill="#FF6C6C"/>
</svg>
