<svg width="28" height="28" viewBox="0 0 28 28" fill="none" xmlns="http://www.w3.org/2000/svg">
    <path
        d="M10.8505 25.43H17.5795C23.187 25.43 25.43 23.187 25.43 17.5795V10.8505C25.43 5.243 23.187 3 17.5795 3H10.8505C5.243 3 3 5.243 3 10.8505V17.5795C3 23.187 5.243 25.43 10.8505 25.43Z"
        stroke="white" stroke-width="1.75" stroke-linecap="round" stroke-linejoin="round" />
    <path
        d="M17.204 13.2467C17.089 14.0632 16.606 14.7532 15.939 15.1672V17.4442C15.939 18.2377 15.295 18.8817 14.5015 18.8817C13.708 18.8817 13.064 18.2377 13.064 17.4442V15.1672C12.397 14.7532 11.914 14.0632 11.799 13.2467C11.776 13.1202 11.7645 12.9822 11.7645 12.8442C11.7645 11.0962 13.4205 9.73916 15.2375 10.2222C16.1575 10.4637 16.905 11.2112 17.1465 12.1312C17.25 12.5107 17.2615 12.8902 17.204 13.2467Z"
        stroke="white" stroke-width="1.75" stroke-miterlimit="10" />
    <path d="M26.0018 13.2467H17.2043" stroke="white" stroke-width="1.75" stroke-miterlimit="10" />
    <path d="M11.7975 13.2465H3" stroke="white" stroke-width="1.75" stroke-miterlimit="10" />
</svg>
