<svg width="28" height="28" viewBox="0 0 28 28" fill="none" xmlns="http://www.w3.org/2000/svg">
    <path
        d="M15.4583 14.6767V16.9867C15.4583 17.7917 14.805 18.445 14 18.445C13.195 18.445 12.5416 17.7917 12.5416 16.9867V14.6767C12.1216 14.42 11.795 14.0467 11.5616 13.6033H3.49998C2.85831 13.6033 2.33331 14.1283 2.33331 14.77V18.8883C2.33331 22.6333 5.36665 25.6667 9.11165 25.6667H18.8766C22.6333 25.6667 25.6666 22.6333 25.6666 18.8883V14.77C25.6666 14.1283 25.1416 13.6033 24.5 13.6033H16.4383C16.205 14.0467 15.8783 14.42 15.4583 14.6767Z"
        fill="white" />
    <path
        d="M18.8883 2.33333H9.11165C5.36665 2.33333 2.33331 5.36666 2.33331 9.11166V10.6867C2.33331 11.3283 2.85831 11.8533 3.49998 11.8533H11.2816C11.55 10.3133 13.0783 9.21666 14.7466 9.65999C15.68 9.90499 16.4383 10.6633 16.6833 11.5967C16.7066 11.6783 16.7066 11.7717 16.7183 11.8533H24.5C25.1416 11.8533 25.6666 11.3283 25.6666 10.6867V9.11166C25.6666 5.36666 22.6333 2.33333 18.8883 2.33333Z"
        fill="white" />
</svg>
