<svg width="24" height="26" viewBox="0 0 24 26" fill="none" xmlns="http://www.w3.org/2000/svg">
<path d="M8.68344 23.2333V19.6555C8.68342 18.7454 9.42532 18.006 10.3445 17.9999H13.7116C14.6352 17.9999 15.3839 18.7411 15.3839 19.6555V19.6555V23.2444C15.3837 24.0171 16.0067 24.6486 16.7869 24.6667H19.0316C21.2693 24.6667 23.0834 22.8708 23.0834 20.6555V20.6555V10.4775C23.0714 9.60598 22.6581 8.78758 21.961 8.25521L14.284 2.13286C12.9391 1.06684 11.0273 1.06684 9.68234 2.13286L2.03905 8.26633C1.33932 8.79654 0.925305 9.61629 0.916687 10.4886V20.6555C0.916687 22.8708 2.73071 24.6667 4.96842 24.6667H7.21314C8.01277 24.6667 8.66099 24.0249 8.66099 23.2333V23.2333" stroke="white" stroke-width="1.75" stroke-linecap="round" stroke-linejoin="round"/>
</svg>
