<svg width="24" height="24" viewBox="0 0 24 24" fill="none" xmlns="http://www.w3.org/2000/svg">
<rect width="24" height="24" rx="12" fill="#585782"/>
<path d="M17.8812 9.40527C17.8812 9.53652 17.8812 9.66777 17.8812 9.78027C17.8812 13.6615 14.9187 18.1428 9.51875 18.1428C7.85 18.1428 6.3125 17.6553 5 16.8303C5.225 16.849 5.46875 16.8678 5.69375 16.8678C7.0625 16.8678 8.3375 16.399 9.35 15.6115C8.05625 15.5928 6.96875 14.7303 6.6125 13.5678C6.8 13.6053 6.96875 13.624 7.175 13.624C7.4375 13.624 7.7 13.5865 7.94375 13.5115C6.59375 13.249 5.58125 12.0678 5.58125 10.6428C5.58125 10.624 5.58125 10.624 5.58125 10.6053C5.975 10.8303 6.425 10.9615 6.9125 10.9803C6.125 10.4553 5.6 9.55527 5.6 8.52402C5.6 7.98027 5.75 7.47402 5.99375 7.04277C7.4375 8.82402 9.6125 9.98652 12.05 10.1178C11.9937 9.91152 11.975 9.66777 11.975 9.44277C11.975 7.81152 13.2875 6.49902 14.9187 6.49902C15.7625 6.49902 16.5312 6.85527 17.0562 7.41777C17.7312 7.28652 18.35 7.04277 18.9312 6.70527C18.7062 7.39902 18.2375 7.96152 17.6375 8.33652C18.2375 8.26152 18.8 8.11152 19.325 7.86777C18.95 8.46777 18.4625 8.99277 17.8812 9.40527Z" fill="white"/>
</svg>
