<svg width="24" height="24" viewBox="0 0 24 24" fill="none" xmlns="http://www.w3.org/2000/svg">
<path d="M14.4614 18.545C14.2397 18.545 14.018 18.4633 13.843 18.2883C13.5047 17.95 13.5047 17.39 13.843 17.0517L17.3897 13.505C17.728 13.1667 18.288 13.1667 18.6264 13.505C18.9647 13.8433 18.9647 14.4033 18.6264 14.7417L15.0797 18.2883C14.9164 18.4517 14.6947 18.545 14.4614 18.545Z" fill="white"/>
<path d="M18.0084 14.9983H5.9917C5.51337 14.9983 5.1167 14.6017 5.1167 14.1233C5.1167 13.645 5.51337 13.2483 5.9917 13.2483H18.02C18.4984 13.2483 18.895 13.645 18.895 14.1233C18.895 14.6017 18.4984 14.9983 18.0084 14.9983Z" fill="white"/>
<path d="M5.99165 10.7517C5.76998 10.7517 5.54832 10.67 5.37332 10.495C5.03498 10.1567 5.03498 9.59668 5.37332 9.25835L8.91998 5.71168C9.25832 5.37335 9.81832 5.37335 10.1567 5.71168C10.495 6.05001 10.495 6.61001 10.1567 6.94835L6.60998 10.495C6.43498 10.67 6.21332 10.7517 5.99165 10.7517Z" fill="white"/>
<path d="M18.0084 10.7517H5.9917C5.51337 10.7517 5.1167 10.3551 5.1167 9.87672C5.1167 9.39839 5.51337 9.00172 5.9917 9.00172H18.02C18.4984 9.00172 18.895 9.39839 18.895 9.87672C18.895 10.3551 18.4984 10.7517 18.0084 10.7517Z" fill="white"/>
<path fill-rule="evenodd" clip-rule="evenodd" d="M7.03219 1H16.9678C20.2992 1 23 3.92486 23 7.53272V16.4673C23 20.0751 20.2992 23 16.9678 23H7.03219C3.70076 23 1 20.0751 1 16.4673V7.53272C1 3.92486 3.70076 1 7.03219 1Z" stroke="white" stroke-width="1.75" stroke-linecap="round" stroke-linejoin="round"/>
</svg>
