<svg width="24" height="24" viewBox="0 0 24 24" fill="none" xmlns="http://www.w3.org/2000/svg">
<rect width="24" height="24" rx="12" fill="#585782"/>
<path d="M5.39368 11.7365C8.88334 10.1841 11.2103 9.16071 12.3746 8.66625C15.699 7.25448 16.3897 7.00924 16.84 7.00106C16.939 6.99936 17.1604 7.02442 17.3038 7.14324C17.4249 7.24357 17.4583 7.37911 17.4742 7.47423C17.4901 7.56936 17.51 7.78605 17.4942 7.95538C17.3141 9.88798 16.5346 14.5779 16.138 16.7425C15.9702 17.6584 15.6398 17.9655 15.3199 17.9955C14.6248 18.0608 14.0969 17.5265 13.4236 17.0758C12.3701 16.3707 11.7749 15.9318 10.7522 15.2437C9.57034 14.4485 10.3365 14.0114 11.01 13.2971C11.1863 13.1102 14.2492 10.2657 14.3084 10.0077C14.3159 9.97544 14.3227 9.85514 14.2527 9.79162C14.1828 9.7281 14.0794 9.74983 14.0049 9.7671C13.8992 9.79159 12.2162 10.9274 8.95566 13.1746C8.47792 13.5096 8.04521 13.6728 7.6575 13.6642C7.23009 13.6548 6.40793 13.4175 5.79673 13.2146C5.04708 12.9658 4.45127 12.8343 4.50315 12.4117C4.53017 12.1916 4.82702 11.9665 5.39368 11.7365Z" fill="white"/>
</svg>
