<svg width="22" height="22" viewBox="0 0 22 22" fill="none" xmlns="http://www.w3.org/2000/svg">
    <path fill-rule="evenodd" clip-rule="evenodd"
        d="M6.03219 0H15.9678C19.2992 0 22 2.92486 22 6.53272V15.4673C22 19.0751 19.2992 22 15.9678 22H6.03219C2.70076 22 0 19.0751 0 15.4673V6.53272C0 2.92486 2.70076 0 6.03219 0ZM13.4614 17.545C13.2398 17.545 13.0181 17.4633 12.8431 17.2883C12.5048 16.95 12.5048 16.39 12.8431 16.0517L14.8964 13.9984H4.9917C4.51337 13.9984 4.1167 13.6017 4.1167 13.1234C4.1167 12.645 4.51337 12.2484 4.9917 12.2484H17.02C17.4984 12.2484 17.895 12.645 17.895 13.1234C17.895 13.3956 17.7665 13.6414 17.5654 13.8027L14.0798 17.2883C13.9164 17.4517 13.6948 17.545 13.4614 17.545ZM4.94863 9.75066C4.74151 9.74072 4.53704 9.65869 4.37338 9.49503C4.29932 9.42097 4.24147 9.33629 4.19984 9.24564C4.14658 9.13317 4.1167 9.00803 4.1167 8.87674C4.1167 8.74654 4.14609 8.62239 4.19851 8.51065C4.24024 8.41891 4.29853 8.33321 4.37338 8.25836L7.92004 4.7117C8.25838 4.37336 8.81838 4.37336 9.15671 4.7117C9.49504 5.05003 9.49504 5.61003 9.15671 5.94836L7.10333 8.00174H17.02C17.4984 8.00174 17.895 8.39841 17.895 8.87674C17.895 9.35507 17.4984 9.75174 17.0084 9.75174H4.9917C4.97727 9.75174 4.96291 9.75138 4.94863 9.75066Z"
        fill="white" />
</svg>
