<svg id="svg" version="1.1" xmlns="http://www.w3.org/2000/svg" xmlns:xlink="http://www.w3.org/1999/xlink" width="400" height="400" viewBox="0, 0, 400,400"><g id="svgg"><path id="path0" d="M88.400 92.000 L 88.400 94.400 97.357 94.400 C 105.156 94.400,106.346 94.482,106.557 95.033 C 106.875 95.860,106.875 279.740,106.557 280.567 C 106.346 281.118,105.156 281.200,97.357 281.200 L 88.400 281.200 88.400 283.600 L 88.400 286.000 132.138 286.000 C 173.566 286.000,183.565 285.797,192.200 284.778 C 197.736 284.125,204.021 283.137,207.500 282.373 C 214.420 280.854,216.116 280.439,219.200 279.508 C 222.658 278.464,226.389 277.235,227.500 276.774 C 228.403 276.399,229.622 275.908,231.300 275.244 C 246.812 269.104,259.820 258.925,267.769 246.707 C 269.944 243.364,274.800 233.788,274.800 232.842 C 274.800 232.593,274.980 232.032,275.200 231.595 C 275.420 231.158,275.780 230.442,276.000 230.005 C 276.220 229.568,276.400 228.859,276.400 228.429 C 276.400 227.999,276.559 227.549,276.754 227.429 C 276.949 227.308,277.204 226.713,277.321 226.105 C 277.438 225.497,277.741 224.280,277.994 223.400 C 279.162 219.331,280.530 212.615,281.212 207.600 C 283.370 191.735,283.197 173.581,280.749 159.000 C 280.193 155.682,278.995 150.261,278.408 148.400 C 278.235 147.850,277.871 146.590,277.601 145.600 C 277.330 144.610,276.966 143.440,276.793 143.000 C 276.619 142.560,275.883 140.670,275.159 138.800 C 271.936 130.483,266.821 122.494,260.800 116.374 C 257.166 112.681,249.507 106.400,248.637 106.400 C 248.476 106.400,247.592 105.886,246.672 105.257 C 242.520 102.420,230.718 97.432,223.700 95.549 C 222.985 95.357,221.725 95.017,220.900 94.794 C 218.861 94.243,216.184 93.623,213.900 93.174 C 197.246 89.898,191.945 89.662,134.500 89.627 L 88.400 89.600 88.400 92.000 M178.779 94.825 C 196.618 97.042,204.272 100.595,211.265 109.904 C 215.498 115.538,219.346 125.024,221.568 135.300 C 224.662 149.614,225.356 160.399,225.076 189.800 C 224.875 210.945,224.661 216.086,223.630 224.600 C 223.037 229.491,222.567 232.286,221.239 238.800 C 219.442 247.621,216.120 256.140,212.037 262.400 C 210.003 265.517,203.211 272.800,202.336 272.800 C 202.133 272.800,201.626 273.118,201.209 273.506 C 199.282 275.301,192.168 278.351,186.982 279.604 C 179.065 281.518,161.505 281.989,161.052 280.300 C 160.606 278.637,160.766 96.011,161.214 95.174 C 161.704 94.258,172.491 94.044,178.779 94.825 M313.600 241.190 C 313.270 241.409,312.593 241.591,312.095 241.594 C 311.597 241.597,310.877 241.760,310.495 241.956 C 310.113 242.152,308.915 242.736,307.834 243.253 C 294.721 249.527,292.300 272.194,303.571 283.172 C 310.937 290.346,327.354 290.841,336.452 284.162 C 339.255 282.104,343.600 275.577,343.600 273.423 C 343.600 273.101,343.762 272.424,343.959 271.919 C 345.311 268.464,345.292 261.121,343.918 255.800 C 342.161 248.994,336.152 243.203,329.048 241.472 C 326.768 240.916,314.354 240.690,313.600 241.190 " stroke="none" fill="#050504" fill-rule="evenodd"></path><path id="path1" d="M179.003 0.276 C 177.025 0.363,175.234 0.606,175.023 0.817 C 174.812 1.028,173.416 1.200,171.920 1.200 C 170.373 1.200,169.200 1.373,169.200 1.600 C 169.200 1.820,168.221 2.000,167.024 2.000 C 165.827 2.000,164.736 2.180,164.600 2.400 C 164.464 2.620,163.474 2.800,162.400 2.800 C 161.326 2.800,160.336 2.980,160.200 3.200 C 160.064 3.420,159.243 3.600,158.376 3.600 C 157.509 3.600,156.800 3.780,156.800 4.000 C 156.800 4.220,156.001 4.400,155.024 4.400 C 154.047 4.400,153.136 4.580,153.000 4.800 C 152.864 5.020,152.043 5.200,151.176 5.200 C 150.309 5.200,149.600 5.380,149.600 5.600 C 149.600 5.820,148.981 6.000,148.224 6.000 C 147.467 6.000,146.736 6.180,146.600 6.400 C 146.464 6.620,145.813 6.800,145.153 6.800 C 144.455 6.800,144.056 6.967,144.200 7.200 C 144.347 7.438,143.879 7.600,143.047 7.600 C 142.277 7.600,141.536 7.780,141.400 8.000 C 141.264 8.220,140.717 8.400,140.185 8.400 C 139.174 8.400,133.508 10.132,132.305 10.809 C 131.923 11.024,131.248 11.200,130.805 11.200 C 130.362 11.200,130.000 11.380,130.000 11.600 C 130.000 11.820,129.565 12.000,129.033 12.000 C 128.502 12.000,128.007 12.178,127.933 12.397 C 127.860 12.615,127.305 12.834,126.700 12.884 C 126.095 12.934,125.600 13.115,125.600 13.287 C 125.600 13.459,125.240 13.600,124.800 13.600 C 124.360 13.600,124.000 13.747,124.000 13.928 C 124.000 14.108,123.100 14.500,122.000 14.800 C 120.900 15.100,120.000 15.492,120.000 15.672 C 120.000 15.853,119.640 16.000,119.200 16.000 C 118.760 16.000,118.400 16.180,118.400 16.400 C 118.400 16.620,118.040 16.800,117.600 16.800 C 117.160 16.800,116.800 16.941,116.800 17.113 C 116.800 17.285,115.990 17.665,115.000 17.957 C 114.010 18.249,113.200 18.648,113.200 18.844 C 113.200 19.040,112.966 19.200,112.680 19.200 C 111.944 19.200,110.007 20.141,110.003 20.500 C 110.001 20.665,109.640 20.800,109.200 20.800 C 108.760 20.800,108.400 20.980,108.400 21.200 C 108.400 21.420,108.040 21.600,107.600 21.600 C 107.160 21.600,106.800 21.780,106.800 22.000 C 106.800 22.220,106.480 22.400,106.088 22.400 C 105.697 22.400,105.117 22.760,104.800 23.200 C 104.483 23.640,103.903 24.000,103.512 24.000 C 103.120 24.000,102.800 24.180,102.800 24.400 C 102.800 24.620,102.558 24.800,102.261 24.800 C 101.708 24.800,99.157 25.956,98.800 26.369 C 98.690 26.496,97.790 27.037,96.800 27.570 C 95.810 28.104,94.910 28.644,94.800 28.771 C 94.690 28.898,94.060 29.270,93.400 29.598 C 92.740 29.926,91.909 30.511,91.553 30.897 C 91.197 31.284,90.652 31.600,90.341 31.600 C 90.031 31.600,89.517 31.960,89.200 32.400 C 88.883 32.840,88.343 33.200,88.000 33.200 C 87.657 33.200,87.117 33.560,86.800 34.000 C 86.483 34.440,85.975 34.800,85.672 34.800 C 85.369 34.800,84.617 35.340,84.000 36.000 C 83.383 36.660,82.631 37.200,82.328 37.200 C 82.025 37.200,81.517 37.560,81.200 38.000 C 80.883 38.440,80.393 38.800,80.112 38.800 C 79.830 38.800,79.600 38.980,79.600 39.200 C 79.600 39.420,79.418 39.600,79.196 39.600 C 78.974 39.600,78.228 40.140,77.537 40.800 C 76.846 41.460,76.151 42.000,75.991 42.000 C 75.831 42.000,75.013 42.630,74.172 43.400 C 73.331 44.170,72.495 44.800,72.313 44.800 C 72.131 44.800,70.993 45.790,69.783 47.000 C 68.573 48.210,67.423 49.200,67.228 49.200 C 66.940 49.200,64.383 51.681,58.141 58.017 C 57.889 58.273,55.999 60.148,53.941 62.184 C 50.180 65.905,48.800 67.421,48.800 67.831 C 48.800 67.952,47.900 68.929,46.800 70.000 C 45.700 71.071,44.800 72.139,44.800 72.373 C 44.800 72.607,44.170 73.466,43.400 74.282 C 42.630 75.099,42.000 75.909,42.000 76.083 C 42.000 76.257,41.280 77.141,40.400 78.048 C 39.520 78.955,38.800 79.905,38.800 80.160 C 38.800 80.415,38.440 80.883,38.000 81.200 C 37.560 81.517,37.200 82.025,37.200 82.328 C 37.200 82.631,36.660 83.383,36.000 84.000 C 35.340 84.617,34.800 85.369,34.800 85.672 C 34.800 85.975,34.440 86.483,34.000 86.800 C 33.560 87.117,33.200 87.657,33.200 88.000 C 33.200 88.343,32.840 88.883,32.400 89.200 C 31.960 89.517,31.600 90.031,31.600 90.341 C 31.600 90.652,31.284 91.197,30.897 91.553 C 30.511 91.909,29.926 92.740,29.598 93.400 C 29.270 94.060,28.898 94.690,28.771 94.800 C 28.644 94.910,28.104 95.810,27.570 96.800 C 27.037 97.790,26.496 98.690,26.369 98.800 C 25.956 99.157,24.800 101.708,24.800 102.261 C 24.800 102.558,24.620 102.800,24.400 102.800 C 24.180 102.800,24.000 103.160,24.000 103.600 C 24.000 104.040,23.820 104.400,23.600 104.400 C 23.380 104.400,23.200 104.678,23.200 105.017 C 23.200 105.356,22.840 106.020,22.400 106.492 C 21.960 106.964,21.600 107.587,21.600 107.875 C 21.600 108.164,21.420 108.400,21.200 108.400 C 20.980 108.400,20.800 108.745,20.800 109.167 C 20.800 109.588,20.657 109.993,20.481 110.067 C 20.051 110.247,18.400 113.839,18.400 114.596 C 18.400 114.928,18.220 115.200,18.000 115.200 C 17.780 115.200,17.600 115.560,17.600 116.000 C 17.600 116.440,17.420 116.800,17.200 116.800 C 16.980 116.800,16.800 117.160,16.800 117.600 C 16.800 118.040,16.620 118.400,16.400 118.400 C 16.180 118.400,16.000 118.749,16.000 119.176 C 16.000 119.603,15.820 120.064,15.600 120.200 C 15.380 120.336,15.200 120.887,15.200 121.424 C 15.200 121.961,15.020 122.400,14.800 122.400 C 14.580 122.400,14.400 122.760,14.400 123.200 C 14.400 123.640,14.220 124.000,14.000 124.000 C 13.780 124.000,13.600 124.450,13.600 125.000 C 13.600 125.550,13.420 126.000,13.200 126.000 C 12.980 126.000,12.800 126.450,12.800 127.000 C 12.800 127.550,12.620 128.000,12.400 128.000 C 12.180 128.000,12.000 128.450,12.000 129.000 C 12.000 129.550,11.820 130.000,11.600 130.000 C 11.380 130.000,11.200 130.362,11.200 130.804 C 11.200 131.247,10.863 132.372,10.450 133.304 C 9.308 135.888,8.400 139.139,8.400 140.646 C 8.400 141.391,8.220 142.000,8.000 142.000 C 7.780 142.000,7.600 142.439,7.600 142.976 C 7.600 143.513,7.420 144.064,7.200 144.200 C 6.980 144.336,6.800 145.067,6.800 145.824 C 6.800 146.581,6.620 147.200,6.400 147.200 C 6.180 147.200,6.000 147.841,6.000 148.624 C 6.000 149.471,5.838 149.947,5.600 149.800 C 5.358 149.651,5.200 150.196,5.200 151.176 C 5.200 152.069,5.020 152.800,4.800 152.800 C 4.580 152.800,4.400 153.700,4.400 154.800 C 4.400 155.900,4.220 156.800,4.000 156.800 C 3.780 156.800,3.600 157.599,3.600 158.576 C 3.600 159.553,3.420 160.464,3.200 160.600 C 2.980 160.736,2.800 161.647,2.800 162.624 C 2.800 163.601,2.620 164.400,2.400 164.400 C 2.178 164.400,2.000 165.467,2.000 166.800 C 2.000 168.133,1.822 169.200,1.600 169.200 C 1.372 169.200,1.200 170.389,1.200 171.967 C 1.200 173.824,1.036 174.788,0.700 174.900 C -0.031 175.143,-0.031 224.129,0.700 224.860 C 1.002 225.162,1.200 226.437,1.200 228.080 C 1.200 229.627,1.373 230.800,1.600 230.800 C 1.822 230.800,2.000 231.867,2.000 233.200 C 2.000 234.533,2.178 235.600,2.400 235.600 C 2.620 235.600,2.800 236.489,2.800 237.576 C 2.800 238.663,2.980 239.664,3.200 239.800 C 3.420 239.936,3.600 240.757,3.600 241.624 C 3.600 242.491,3.780 243.200,4.000 243.200 C 4.220 243.200,4.400 243.999,4.400 244.976 C 4.400 245.953,4.580 246.864,4.800 247.000 C 5.020 247.136,5.200 247.856,5.200 248.600 C 5.200 249.344,5.380 250.064,5.600 250.200 C 5.820 250.336,6.000 251.067,6.000 251.824 C 6.000 252.581,6.180 253.200,6.400 253.200 C 6.620 253.200,6.800 253.830,6.800 254.600 C 6.800 255.370,6.980 256.000,7.200 256.000 C 7.420 256.000,7.600 256.630,7.600 257.400 C 7.600 258.170,7.780 258.800,8.000 258.800 C 8.220 258.800,8.400 259.241,8.400 259.780 C 8.400 260.960,11.245 269.744,11.688 269.933 C 11.860 270.007,12.000 270.502,12.000 271.033 C 12.000 271.565,12.180 272.000,12.400 272.000 C 12.620 272.000,12.800 272.540,12.800 273.200 C 12.800 273.860,12.980 274.400,13.200 274.400 C 13.420 274.400,13.600 274.760,13.600 275.200 C 13.600 275.640,13.780 276.000,14.000 276.000 C 14.220 276.000,14.400 276.272,14.400 276.605 C 14.400 277.193,14.567 277.618,15.538 279.495 C 15.792 279.987,16.000 280.662,16.000 280.995 C 16.000 281.328,16.180 281.600,16.400 281.600 C 16.620 281.600,16.800 281.960,16.800 282.400 C 16.800 282.840,16.980 283.200,17.200 283.200 C 17.420 283.200,17.600 283.472,17.600 283.805 C 17.600 284.138,17.760 284.723,17.956 285.105 C 18.152 285.487,18.737 286.700,19.256 287.800 C 19.775 288.900,20.335 289.860,20.500 289.933 C 20.665 290.007,20.800 290.412,20.800 290.833 C 20.800 291.255,20.980 291.600,21.200 291.600 C 21.420 291.600,21.600 291.960,21.600 292.400 C 21.600 292.840,21.780 293.200,22.000 293.200 C 22.220 293.200,22.400 293.436,22.400 293.725 C 22.400 294.013,22.760 294.636,23.200 295.108 C 23.640 295.580,24.000 296.244,24.000 296.583 C 24.000 296.922,24.180 297.200,24.400 297.200 C 24.620 297.200,24.800 297.442,24.800 297.739 C 24.800 298.304,25.964 300.856,26.378 301.200 C 26.511 301.310,27.065 302.255,27.609 303.300 C 28.153 304.345,28.734 305.200,28.899 305.200 C 29.065 305.200,29.200 305.470,29.200 305.800 C 29.200 306.130,29.380 306.400,29.600 306.400 C 29.820 306.400,30.000 306.720,30.000 307.112 C 30.000 307.503,30.360 308.083,30.800 308.400 C 31.240 308.717,31.600 309.257,31.600 309.600 C 31.600 309.943,31.960 310.483,32.400 310.800 C 32.840 311.117,33.200 311.657,33.200 312.000 C 33.200 312.343,33.560 312.883,34.000 313.200 C 34.440 313.517,34.800 313.980,34.800 314.229 C 34.800 314.478,35.340 315.246,36.000 315.937 C 36.660 316.628,37.200 317.425,37.200 317.708 C 37.200 317.991,37.560 318.483,38.000 318.800 C 38.440 319.117,38.800 319.580,38.800 319.829 C 38.800 320.078,39.340 320.846,40.000 321.537 C 40.660 322.228,41.200 322.908,41.200 323.049 C 41.200 323.191,41.588 323.642,42.061 324.053 C 42.535 324.464,42.797 324.800,42.643 324.800 C 42.489 324.800,42.822 325.258,43.382 325.818 C 43.942 326.378,44.400 327.004,44.400 327.209 C 44.400 327.415,45.390 328.573,46.600 329.783 C 47.810 330.993,48.800 332.146,48.800 332.347 C 48.800 332.547,50.769 334.666,53.176 337.055 C 55.582 339.445,57.787 341.635,58.076 341.922 C 58.364 342.209,60.553 344.414,62.940 346.822 C 65.327 349.230,67.454 351.200,67.666 351.200 C 67.878 351.200,68.929 352.100,70.000 353.200 C 71.071 354.300,72.148 355.200,72.392 355.200 C 72.636 355.200,73.261 355.605,73.780 356.100 C 74.300 356.595,75.193 357.360,75.767 357.800 C 76.340 358.240,77.482 359.181,78.304 359.891 C 79.127 360.601,79.985 361.186,80.212 361.191 C 80.438 361.196,80.883 361.560,81.200 362.000 C 81.517 362.440,82.025 362.800,82.328 362.800 C 82.631 362.800,83.383 363.340,84.000 364.000 C 84.617 364.660,85.369 365.200,85.672 365.200 C 85.975 365.200,86.483 365.560,86.800 366.000 C 87.117 366.440,87.697 366.800,88.088 366.800 C 88.480 366.800,88.800 366.950,88.800 367.132 C 88.800 367.315,89.295 367.720,89.900 368.032 C 90.505 368.345,91.318 368.886,91.707 369.236 C 92.095 369.586,92.905 370.126,93.507 370.435 C 94.108 370.745,94.690 371.102,94.800 371.229 C 94.910 371.356,95.810 371.896,96.800 372.430 C 97.790 372.963,98.690 373.510,98.800 373.644 C 99.176 374.103,101.559 375.200,102.180 375.200 C 102.521 375.200,102.800 375.380,102.800 375.600 C 102.800 375.820,103.160 376.000,103.600 376.000 C 104.040 376.000,104.400 376.180,104.400 376.400 C 104.400 376.620,104.678 376.800,105.017 376.800 C 105.356 376.800,106.020 377.160,106.492 377.600 C 106.964 378.040,107.587 378.400,107.875 378.400 C 108.164 378.400,108.400 378.580,108.400 378.800 C 108.400 379.020,108.745 379.200,109.167 379.200 C 109.588 379.200,109.993 379.335,110.067 379.500 C 110.288 379.999,113.622 381.600,114.438 381.600 C 114.857 381.600,115.200 381.780,115.200 382.000 C 115.200 382.220,115.560 382.400,116.000 382.400 C 116.440 382.400,116.800 382.580,116.800 382.800 C 116.800 383.020,117.160 383.200,117.600 383.200 C 118.040 383.200,118.400 383.380,118.400 383.600 C 118.400 383.820,118.760 384.000,119.200 384.000 C 119.640 384.000,120.000 384.180,120.000 384.400 C 120.000 384.620,120.540 384.800,121.200 384.800 C 121.860 384.800,122.400 384.980,122.400 385.200 C 122.400 385.420,122.760 385.600,123.200 385.600 C 123.640 385.600,124.000 385.780,124.000 386.000 C 124.000 386.220,124.349 386.400,124.776 386.400 C 125.203 386.400,125.664 386.580,125.800 386.800 C 125.936 387.020,126.487 387.200,127.024 387.200 C 127.561 387.200,128.000 387.380,128.000 387.600 C 128.000 387.820,128.362 388.000,128.805 388.000 C 129.248 388.000,129.923 388.171,130.305 388.381 C 131.996 389.307,138.372 391.348,140.100 391.517 C 141.145 391.618,142.000 391.859,142.000 392.051 C 142.000 392.243,142.439 392.400,142.976 392.400 C 143.513 392.400,144.064 392.580,144.200 392.800 C 144.336 393.020,145.067 393.200,145.824 393.200 C 146.581 393.200,147.200 393.380,147.200 393.600 C 147.200 393.820,147.740 394.000,148.400 394.000 C 149.060 394.000,149.600 394.180,149.600 394.400 C 149.600 394.620,150.320 394.800,151.200 394.800 C 152.080 394.800,152.800 394.946,152.800 395.125 C 152.800 395.304,153.655 395.494,154.700 395.547 C 155.745 395.600,156.660 395.813,156.733 396.021 C 156.807 396.230,157.662 396.400,158.633 396.400 C 159.605 396.400,160.400 396.580,160.400 396.800 C 160.400 397.020,161.300 397.200,162.400 397.200 C 163.500 397.200,164.400 397.380,164.400 397.600 C 164.400 397.822,165.467 398.000,166.800 398.000 C 168.120 398.000,169.200 398.166,169.200 398.368 C 169.200 398.571,170.505 398.832,172.100 398.948 C 173.695 399.064,177.340 399.360,180.200 399.606 C 187.336 400.220,224.886 399.941,225.109 399.273 C 225.210 398.970,226.261 398.800,228.033 398.800 C 229.611 398.800,230.800 398.628,230.800 398.400 C 230.800 398.178,231.867 398.000,233.200 398.000 C 234.533 398.000,235.600 397.822,235.600 397.600 C 235.600 397.380,236.590 397.200,237.800 397.200 C 239.010 397.200,240.000 397.020,240.000 396.800 C 240.000 396.580,240.720 396.400,241.600 396.400 C 242.480 396.400,243.200 396.220,243.200 396.000 C 243.200 395.780,244.100 395.600,245.200 395.600 C 246.300 395.600,247.200 395.420,247.200 395.200 C 247.200 394.980,247.819 394.800,248.576 394.800 C 249.333 394.800,250.064 394.620,250.200 394.400 C 250.336 394.180,250.966 394.000,251.600 394.000 C 252.234 394.000,252.864 393.820,253.000 393.600 C 253.136 393.380,253.867 393.200,254.624 393.200 C 255.381 393.200,256.000 393.020,256.000 392.800 C 256.000 392.580,256.630 392.400,257.400 392.400 C 258.170 392.400,258.800 392.220,258.800 392.000 C 258.800 391.780,259.205 391.602,259.700 391.605 C 260.813 391.611,269.750 388.732,269.933 388.308 C 270.007 388.139,270.414 388.000,270.839 388.000 C 271.263 388.000,271.968 387.820,272.405 387.600 C 272.842 387.380,273.558 387.020,273.995 386.800 C 274.432 386.580,275.062 386.400,275.395 386.400 C 275.728 386.400,276.000 386.220,276.000 386.000 C 276.000 385.780,276.450 385.600,277.000 385.600 C 277.550 385.600,278.000 385.420,278.000 385.200 C 278.000 384.980,278.450 384.800,279.000 384.800 C 279.550 384.800,280.000 384.620,280.000 384.400 C 280.000 384.180,280.360 384.000,280.800 384.000 C 281.240 384.000,281.600 383.820,281.600 383.600 C 281.600 383.380,281.960 383.200,282.400 383.200 C 282.840 383.200,283.200 383.020,283.200 382.800 C 283.200 382.580,283.535 382.400,283.944 382.400 C 284.746 382.400,289.713 379.995,289.933 379.500 C 290.007 379.335,290.412 379.200,290.833 379.200 C 291.255 379.200,291.600 379.020,291.600 378.800 C 291.600 378.580,291.960 378.400,292.400 378.400 C 292.840 378.400,293.200 378.220,293.200 378.000 C 293.200 377.780,293.436 377.600,293.725 377.600 C 294.013 377.600,294.636 377.240,295.108 376.800 C 295.580 376.360,296.244 376.000,296.583 376.000 C 296.922 376.000,297.200 375.820,297.200 375.600 C 297.200 375.380,297.479 375.200,297.820 375.200 C 298.452 375.200,300.837 374.095,301.200 373.634 C 301.310 373.495,302.255 372.935,303.300 372.391 C 304.345 371.847,305.200 371.266,305.200 371.101 C 305.200 370.935,305.470 370.800,305.800 370.800 C 306.130 370.800,306.400 370.620,306.400 370.400 C 306.400 370.180,306.720 370.000,307.112 370.000 C 307.503 370.000,308.083 369.640,308.400 369.200 C 308.717 368.760,309.257 368.400,309.600 368.400 C 309.943 368.400,310.483 368.040,310.800 367.600 C 311.117 367.160,311.657 366.800,312.000 366.800 C 312.343 366.800,312.883 366.440,313.200 366.000 C 313.517 365.560,313.980 365.200,314.229 365.200 C 314.478 365.200,315.246 364.660,315.937 364.000 C 316.628 363.340,317.425 362.800,317.708 362.800 C 317.991 362.800,318.483 362.440,318.800 362.000 C 319.117 361.560,319.562 361.199,319.788 361.198 C 320.015 361.197,320.775 360.657,321.478 359.998 C 322.181 359.339,322.901 358.800,323.078 358.800 C 323.256 358.800,324.188 358.080,325.151 357.200 C 326.113 356.320,327.054 355.600,327.242 355.600 C 327.429 355.600,328.573 354.610,329.783 353.400 C 330.993 352.190,332.167 351.200,332.391 351.200 C 332.616 351.200,332.800 351.020,332.800 350.800 C 332.800 350.580,332.972 350.400,333.183 350.400 C 333.394 350.400,335.329 348.608,337.483 346.419 C 339.637 344.229,341.636 342.204,341.924 341.919 C 348.916 335.004,351.200 332.643,351.200 332.329 C 351.200 332.120,352.100 331.071,353.200 330.000 C 354.300 328.929,355.200 327.861,355.200 327.627 C 355.200 327.393,355.920 326.437,356.800 325.503 C 357.680 324.569,358.400 323.681,358.400 323.531 C 358.400 323.380,358.631 323.019,358.913 322.729 C 359.195 322.438,359.862 321.570,360.394 320.800 C 360.927 320.030,361.686 319.109,362.081 318.753 C 362.476 318.397,362.800 317.884,362.800 317.614 C 362.800 317.343,363.340 316.617,364.000 316.000 C 364.660 315.383,365.200 314.631,365.200 314.328 C 365.200 314.025,365.560 313.517,366.000 313.200 C 366.440 312.883,366.800 312.343,366.800 312.000 C 366.800 311.657,367.160 311.117,367.600 310.800 C 368.040 310.483,368.400 309.969,368.400 309.659 C 368.400 309.348,368.716 308.803,369.103 308.447 C 369.489 308.091,370.074 307.260,370.402 306.600 C 370.730 305.940,371.102 305.310,371.229 305.200 C 371.356 305.090,371.896 304.190,372.430 303.200 C 372.963 302.210,373.510 301.310,373.644 301.200 C 374.103 300.824,375.200 298.441,375.200 297.820 C 375.200 297.479,375.380 297.200,375.600 297.200 C 375.820 297.200,376.000 296.840,376.000 296.400 C 376.000 295.960,376.180 295.600,376.400 295.600 C 376.620 295.600,376.800 295.280,376.800 294.888 C 376.800 294.497,377.160 293.917,377.600 293.600 C 378.040 293.283,378.400 292.703,378.400 292.312 C 378.400 291.920,378.580 291.600,378.800 291.600 C 379.020 291.600,379.200 291.240,379.200 290.800 C 379.200 290.360,379.380 290.000,379.600 290.000 C 379.820 290.000,380.000 289.640,380.000 289.200 C 380.000 288.760,380.180 288.400,380.400 288.400 C 380.620 288.400,380.800 288.040,380.800 287.600 C 380.800 287.160,380.980 286.800,381.200 286.800 C 381.420 286.800,381.600 286.350,381.600 285.800 C 381.600 285.250,381.780 284.800,382.000 284.800 C 382.220 284.800,382.400 284.440,382.400 284.000 C 382.400 283.560,382.580 283.200,382.800 283.200 C 383.020 283.200,383.200 282.840,383.200 282.400 C 383.200 281.960,383.380 281.600,383.600 281.600 C 383.820 281.600,384.000 281.240,384.000 280.800 C 384.000 280.360,384.180 280.000,384.400 280.000 C 384.620 280.000,384.800 279.460,384.800 278.800 C 384.800 278.140,384.980 277.600,385.200 277.600 C 385.420 277.600,385.600 277.240,385.600 276.800 C 385.600 276.360,385.780 276.000,386.000 276.000 C 386.220 276.000,386.400 275.651,386.400 275.224 C 386.400 274.797,386.580 274.336,386.800 274.200 C 387.020 274.064,387.200 273.524,387.200 273.000 C 387.200 272.476,387.380 271.936,387.600 271.800 C 387.820 271.664,388.000 271.203,388.000 270.776 C 388.000 270.349,388.180 270.000,388.400 270.000 C 388.620 270.000,388.800 269.586,388.800 269.080 C 388.800 268.574,388.949 267.989,389.130 267.780 C 389.312 267.571,389.705 266.590,390.002 265.600 C 390.300 264.610,390.686 263.608,390.860 263.374 C 391.034 263.139,391.296 261.924,391.443 260.674 C 391.590 259.423,391.865 258.400,392.055 258.400 C 392.245 258.400,392.400 257.860,392.400 257.200 C 392.400 256.540,392.580 256.000,392.800 256.000 C 393.020 256.000,393.200 255.280,393.200 254.400 C 393.200 253.520,393.380 252.800,393.600 252.800 C 393.820 252.800,394.000 252.260,394.000 251.600 C 394.000 250.940,394.180 250.400,394.400 250.400 C 394.620 250.400,394.800 249.579,394.800 248.576 C 394.800 247.573,394.947 246.844,395.126 246.955 C 395.306 247.065,395.496 246.311,395.548 245.278 C 395.600 244.245,395.813 243.340,396.021 243.267 C 396.230 243.193,396.400 242.338,396.400 241.367 C 396.400 240.395,396.580 239.600,396.800 239.600 C 397.020 239.600,397.200 238.700,397.200 237.600 C 397.200 236.500,397.380 235.600,397.600 235.600 C 397.822 235.600,398.000 234.533,398.000 233.200 C 398.000 231.867,398.178 230.800,398.400 230.800 C 398.627 230.800,398.800 229.627,398.800 228.080 C 398.800 226.437,398.998 225.162,399.300 224.860 C 399.689 224.471,399.800 218.897,399.800 199.713 C 399.800 180.352,399.693 175.031,399.300 174.900 C 398.964 174.788,398.800 173.824,398.800 171.967 C 398.800 170.389,398.628 169.200,398.400 169.200 C 398.178 169.200,398.000 168.133,398.000 166.800 C 398.000 165.467,397.822 164.400,397.600 164.400 C 397.380 164.400,397.200 163.511,397.200 162.424 C 397.200 161.337,397.020 160.336,396.800 160.200 C 396.580 160.064,396.400 159.243,396.400 158.376 C 396.400 157.509,396.220 156.800,396.000 156.800 C 395.780 156.800,395.600 156.001,395.600 155.024 C 395.600 154.047,395.420 153.136,395.200 153.000 C 394.980 152.864,394.800 152.043,394.800 151.176 C 394.800 150.309,394.620 149.600,394.400 149.600 C 394.180 149.600,394.000 148.981,394.000 148.224 C 394.000 147.467,393.820 146.736,393.600 146.600 C 393.380 146.464,393.200 145.924,393.200 145.400 C 393.200 144.876,393.020 144.336,392.800 144.200 C 392.580 144.064,392.400 143.333,392.400 142.576 C 392.400 141.819,392.220 141.200,392.000 141.200 C 391.780 141.200,391.600 140.752,391.600 140.204 C 391.600 139.207,389.884 133.616,389.175 132.305 C 388.969 131.923,388.800 131.248,388.800 130.805 C 388.800 130.362,388.620 130.000,388.400 130.000 C 388.180 130.000,388.000 129.561,388.000 129.024 C 388.000 128.487,387.820 127.936,387.600 127.800 C 387.380 127.664,387.200 127.113,387.200 126.576 C 387.200 126.039,387.020 125.600,386.800 125.600 C 386.580 125.600,386.400 125.240,386.400 124.800 C 386.400 124.360,386.220 124.000,386.000 124.000 C 385.780 124.000,385.600 123.645,385.600 123.212 C 385.600 122.779,385.240 121.783,384.800 121.000 C 384.360 120.217,384.000 119.311,384.000 118.988 C 384.000 118.665,383.820 118.400,383.600 118.400 C 383.380 118.400,383.200 118.040,383.200 117.600 C 383.200 117.160,383.020 116.800,382.800 116.800 C 382.580 116.800,382.400 116.350,382.400 115.800 C 382.400 115.250,382.220 114.800,382.000 114.800 C 381.780 114.800,381.600 114.440,381.600 114.000 C 381.600 113.560,381.420 113.200,381.200 113.200 C 380.980 113.200,380.800 112.966,380.800 112.680 C 380.800 111.944,379.859 110.007,379.500 110.003 C 379.335 110.001,379.200 109.640,379.200 109.200 C 379.200 108.760,379.020 108.400,378.800 108.400 C 378.580 108.400,378.400 108.040,378.400 107.600 C 378.400 107.160,378.220 106.800,378.000 106.800 C 377.780 106.800,377.600 106.564,377.600 106.275 C 377.600 105.987,377.240 105.364,376.800 104.892 C 376.360 104.420,376.000 103.756,376.000 103.417 C 376.000 103.078,375.820 102.800,375.600 102.800 C 375.380 102.800,375.200 102.465,375.200 102.056 C 375.200 101.647,374.795 100.699,374.300 99.950 C 373.805 99.201,372.963 97.780,372.430 96.794 C 371.896 95.807,371.356 94.910,371.229 94.800 C 371.102 94.690,370.745 94.108,370.435 93.507 C 370.126 92.905,369.541 92.058,369.136 91.623 C 368.731 91.189,368.400 90.596,368.400 90.305 C 368.400 90.014,368.040 89.517,367.600 89.200 C 367.160 88.883,366.800 88.343,366.800 88.000 C 366.800 87.657,366.440 87.117,366.000 86.800 C 365.560 86.483,365.200 86.020,365.200 85.771 C 365.200 85.522,364.660 84.754,364.000 84.063 C 363.340 83.372,362.800 82.575,362.800 82.292 C 362.800 82.009,362.440 81.517,362.000 81.200 C 361.560 80.883,361.200 80.485,361.200 80.316 C 361.200 80.022,360.355 78.896,359.300 77.784 C 359.025 77.494,358.800 77.096,358.800 76.900 C 358.800 76.704,357.990 75.698,357.000 74.665 C 356.010 73.631,355.200 72.597,355.200 72.367 C 355.200 72.137,354.300 71.071,353.200 70.000 C 352.100 68.929,351.200 67.870,351.200 67.647 C 351.200 67.424,349.230 65.297,346.821 62.921 C 341.622 57.790,342.390 58.558,337.268 53.378 C 334.996 51.080,332.974 49.200,332.777 49.200 C 332.579 49.200,331.427 48.210,330.217 47.000 C 329.007 45.790,327.834 44.800,327.610 44.800 C 327.385 44.800,326.534 44.170,325.718 43.400 C 324.901 42.630,324.073 42.000,323.877 42.000 C 323.681 42.000,323.017 41.460,322.400 40.800 C 321.783 40.140,321.081 39.600,320.840 39.600 C 320.598 39.600,320.400 39.420,320.400 39.200 C 320.400 38.980,320.170 38.800,319.888 38.800 C 319.607 38.800,319.117 38.440,318.800 38.000 C 318.483 37.560,317.975 37.200,317.672 37.200 C 317.369 37.200,316.617 36.660,316.000 36.000 C 315.383 35.340,314.631 34.800,314.328 34.800 C 314.025 34.800,313.517 34.440,313.200 34.000 C 312.883 33.560,312.343 33.200,312.000 33.200 C 311.657 33.200,311.117 32.840,310.800 32.400 C 310.483 31.960,309.943 31.600,309.600 31.600 C 309.257 31.600,308.717 31.240,308.400 30.800 C 308.083 30.360,307.503 30.000,307.112 30.000 C 306.720 30.000,306.400 29.820,306.400 29.600 C 306.400 29.380,306.130 29.200,305.800 29.200 C 305.470 29.200,305.200 29.065,305.200 28.899 C 305.200 28.734,304.345 28.153,303.300 27.609 C 302.255 27.065,301.310 26.511,301.200 26.378 C 300.856 25.964,298.304 24.800,297.739 24.800 C 297.442 24.800,297.200 24.620,297.200 24.400 C 297.200 24.180,296.840 24.000,296.400 24.000 C 295.960 24.000,295.600 23.820,295.600 23.600 C 295.600 23.380,295.322 23.200,294.983 23.200 C 294.644 23.200,293.980 22.840,293.508 22.400 C 293.036 21.960,292.413 21.600,292.125 21.600 C 291.836 21.600,291.600 21.420,291.600 21.200 C 291.600 20.980,291.240 20.800,290.800 20.800 C 290.360 20.800,290.000 20.620,290.000 20.400 C 290.000 20.180,289.640 20.000,289.200 20.000 C 288.760 20.000,288.400 19.820,288.400 19.600 C 288.400 19.380,288.051 19.200,287.624 19.200 C 287.197 19.200,286.736 19.020,286.600 18.800 C 286.464 18.580,286.003 18.400,285.576 18.400 C 285.149 18.400,284.800 18.220,284.800 18.000 C 284.800 17.780,284.440 17.600,284.000 17.600 C 283.560 17.600,283.200 17.420,283.200 17.200 C 283.200 16.980,282.840 16.800,282.400 16.800 C 281.960 16.800,281.600 16.620,281.600 16.400 C 281.600 16.180,281.240 16.000,280.800 16.000 C 280.360 16.000,280.000 15.820,280.000 15.600 C 280.000 15.380,279.460 15.200,278.800 15.200 C 278.140 15.200,277.600 15.020,277.600 14.800 C 277.600 14.580,277.255 14.400,276.833 14.400 C 276.412 14.400,276.007 14.265,275.933 14.100 C 275.791 13.781,272.404 12.438,270.900 12.106 C 270.405 11.996,270.000 11.748,270.000 11.553 C 270.000 11.359,269.638 11.200,269.195 11.200 C 268.752 11.200,268.077 11.041,267.695 10.847 C 265.450 9.705,261.109 8.400,259.554 8.400 C 258.919 8.400,258.400 8.220,258.400 8.000 C 258.400 7.780,257.860 7.600,257.200 7.600 C 256.540 7.600,256.000 7.420,256.000 7.200 C 256.000 6.980,255.280 6.800,254.400 6.800 C 253.520 6.800,252.800 6.620,252.800 6.400 C 252.800 6.180,252.260 6.000,251.600 6.000 C 250.940 6.000,250.400 5.820,250.400 5.600 C 250.400 5.380,249.680 5.200,248.800 5.200 C 247.920 5.200,247.200 5.020,247.200 4.800 C 247.200 4.580,246.300 4.400,245.200 4.400 C 244.100 4.400,243.200 4.220,243.200 4.000 C 243.200 3.780,242.390 3.600,241.400 3.600 C 240.410 3.600,239.600 3.420,239.600 3.200 C 239.600 2.980,238.700 2.800,237.600 2.800 C 236.500 2.800,235.600 2.620,235.600 2.400 C 235.600 2.178,234.533 2.000,233.200 2.000 C 231.867 2.000,230.800 1.822,230.800 1.600 C 230.800 1.371,229.600 1.200,228.000 1.200 C 226.460 1.200,225.200 1.050,225.200 0.867 C 225.200 0.345,188.196 -0.128,179.003 0.276 M194.200 89.563 C 203.107 90.432,209.279 91.359,215.800 92.808 C 216.900 93.052,218.476 93.349,219.303 93.468 C 220.129 93.587,220.905 93.845,221.026 94.042 C 221.148 94.239,221.629 94.400,222.095 94.400 C 222.890 94.400,224.768 94.909,226.600 95.622 C 227.040 95.793,227.760 96.025,228.200 96.137 C 232.273 97.175,241.111 101.021,245.400 103.622 C 246.500 104.289,247.715 104.938,248.100 105.064 C 248.485 105.190,248.800 105.452,248.800 105.647 C 248.800 105.841,249.070 106.000,249.400 106.000 C 249.730 106.000,250.000 106.180,250.000 106.400 C 250.000 106.620,250.270 106.800,250.600 106.800 C 250.930 106.800,251.200 106.980,251.200 107.200 C 251.200 107.420,251.470 107.600,251.800 107.600 C 252.130 107.600,252.400 107.741,252.400 107.914 C 252.400 108.086,252.895 108.521,253.500 108.879 C 260.949 113.292,271.284 126.836,275.645 137.900 C 276.452 139.946,276.913 141.038,277.247 141.695 C 277.441 142.077,277.600 142.664,277.600 143.000 C 277.600 143.336,277.758 143.923,277.951 144.305 C 278.535 145.461,279.200 147.804,279.200 148.705 C 279.200 149.171,279.360 149.652,279.556 149.773 C 279.751 149.894,280.014 150.579,280.139 151.296 C 280.264 152.013,280.539 153.500,280.749 154.600 C 282.401 163.241,282.720 165.991,283.228 175.989 C 283.922 189.655,283.089 202.983,280.776 215.200 C 280.547 216.410,280.259 218.076,280.137 218.903 C 280.015 219.729,279.755 220.505,279.558 220.626 C 279.361 220.748,279.200 221.229,279.200 221.695 C 279.200 222.464,278.779 224.045,278.000 226.200 C 277.841 226.640,277.494 227.720,277.229 228.600 C 276.964 229.480,276.579 230.605,276.374 231.100 C 275.415 233.410,275.071 234.259,274.794 235.000 C 270.875 245.489,259.540 260.206,251.900 264.722 C 251.295 265.080,250.800 265.514,250.800 265.686 C 250.800 265.859,250.612 266.000,250.383 266.000 C 250.154 266.000,249.749 266.187,249.483 266.415 C 247.177 268.393,234.487 275.200,233.103 275.200 C 232.716 275.200,232.400 275.380,232.400 275.600 C 232.400 275.820,232.128 276.000,231.795 276.000 C 231.462 276.000,230.877 276.159,230.495 276.353 C 229.560 276.829,228.093 277.418,226.400 278.000 C 225.630 278.264,224.640 278.622,224.200 278.795 C 223.760 278.967,222.590 279.330,221.600 279.600 C 220.610 279.870,219.440 280.230,219.000 280.400 C 218.560 280.570,217.480 280.894,216.600 281.121 C 215.720 281.348,214.280 281.720,213.400 281.948 C 212.520 282.176,211.260 282.470,210.600 282.603 C 209.940 282.735,208.590 283.013,207.600 283.220 C 200.058 284.798,193.020 285.694,182.600 286.402 C 172.080 287.117,87.727 286.909,87.443 286.167 C 87.017 285.058,87.182 281.378,87.680 280.880 C 88.025 280.535,90.676 280.400,97.080 280.400 L 106.000 280.400 106.000 187.800 L 106.000 95.200 97.374 95.200 C 92.192 95.200,88.438 95.035,87.974 94.786 C 87.183 94.363,86.850 90.976,87.447 89.421 C 87.747 88.639,186.069 88.769,194.200 89.563 M162.000 187.800 L 162.000 280.400 170.100 280.393 C 177.805 280.386,181.402 280.046,187.000 278.795 C 188.100 278.549,189.497 278.249,190.105 278.128 C 190.713 278.007,191.308 277.749,191.429 277.554 C 191.549 277.359,192.087 277.200,192.624 277.200 C 193.161 277.200,193.600 277.020,193.600 276.800 C 193.600 276.580,193.960 276.400,194.400 276.400 C 194.840 276.400,195.200 276.220,195.200 276.000 C 195.200 275.780,195.545 275.600,195.967 275.600 C 196.388 275.600,196.793 275.465,196.867 275.300 C 196.940 275.135,197.855 274.567,198.900 274.037 C 199.945 273.508,200.800 272.923,200.800 272.737 C 200.800 272.552,200.982 272.400,201.203 272.400 C 202.063 272.400,208.443 266.317,210.013 264.000 C 210.535 263.230,211.061 262.510,211.182 262.400 C 211.456 262.152,214.000 258.001,214.000 257.803 C 214.000 257.723,214.630 256.295,215.400 254.628 C 216.170 252.961,216.800 251.338,216.800 251.022 C 216.800 250.706,216.980 250.336,217.200 250.200 C 217.420 250.064,217.600 249.524,217.600 249.000 C 217.600 248.476,217.759 247.949,217.954 247.829 C 218.149 247.708,218.404 247.113,218.521 246.505 C 218.638 245.897,218.941 244.680,219.194 243.800 C 223.018 230.484,224.523 214.079,224.532 185.600 C 224.540 163.483,223.793 151.614,221.637 139.600 C 220.495 133.232,218.302 125.104,217.187 123.105 C 216.974 122.723,216.800 122.207,216.800 121.958 C 216.800 121.103,213.093 113.801,211.446 111.411 C 208.191 106.688,203.254 102.462,198.600 100.415 C 197.500 99.931,196.287 99.369,195.905 99.167 C 195.523 98.965,194.859 98.800,194.429 98.800 C 193.999 98.800,193.536 98.620,193.400 98.400 C 193.264 98.180,192.634 98.000,192.000 98.000 C 191.366 98.000,190.748 97.839,190.626 97.642 C 190.505 97.445,189.729 97.181,188.903 97.054 C 188.076 96.927,186.230 96.639,184.800 96.414 C 181.133 95.836,172.244 95.251,166.700 95.223 L 162.000 95.200 162.000 187.800 M327.000 240.208 C 328.100 240.356,329.171 240.640,329.380 240.839 C 329.589 241.037,330.163 241.200,330.656 241.200 C 331.149 241.200,331.664 241.380,331.800 241.600 C 331.936 241.820,332.397 242.000,332.824 242.000 C 333.251 242.000,333.600 242.180,333.600 242.400 C 333.600 242.620,333.960 242.800,334.400 242.800 C 334.840 242.800,335.200 242.980,335.200 243.200 C 335.200 243.420,335.447 243.600,335.749 243.600 C 336.515 243.600,341.295 248.074,342.010 249.460 C 342.334 250.087,342.689 250.690,342.799 250.800 C 343.332 251.331,344.000 252.872,344.000 253.571 C 344.000 254.001,344.160 254.452,344.356 254.573 C 345.271 255.138,346.058 269.302,345.221 270.139 C 344.989 270.371,344.800 271.143,344.800 271.856 C 344.800 272.569,344.620 273.264,344.400 273.400 C 344.180 273.536,344.000 274.076,344.000 274.600 C 344.000 275.124,343.820 275.664,343.600 275.800 C 343.380 275.936,343.200 276.397,343.200 276.824 C 343.200 277.251,343.020 277.600,342.800 277.600 C 342.580 277.600,342.400 277.793,342.400 278.028 C 342.400 278.263,341.859 279.242,341.197 280.204 C 332.405 292.983,308.787 292.971,299.988 280.183 C 295.307 273.379,294.059 260.544,297.447 254.050 C 297.749 253.472,297.996 252.856,297.998 252.681 C 298.008 251.266,304.619 243.600,305.828 243.600 C 306.106 243.600,306.393 243.465,306.467 243.300 C 306.685 242.809,310.016 241.200,310.814 241.200 C 311.220 241.200,311.664 241.020,311.800 240.800 C 311.936 240.580,312.746 240.400,313.600 240.400 C 314.454 240.400,315.270 240.210,315.414 239.977 C 315.686 239.537,323.124 239.686,327.000 240.208 " stroke="none" fill="#fbbc04" fill-rule="evenodd"></path><path id="path2" d="M88.165 89.748 C 88.049 90.049,88.010 91.264,88.077 92.448 L 88.200 94.600 97.400 94.612 L 106.600 94.624 97.500 94.504 L 88.400 94.385 88.400 91.963 L 88.400 89.542 139.900 89.671 C 168.225 89.742,189.420 89.688,187.000 89.551 C 177.125 88.992,88.387 89.169,88.165 89.748 M194.600 90.383 C 195.808 90.707,199.877 90.928,199.567 90.652 C 199.475 90.571,198.050 90.404,196.400 90.282 C 194.569 90.147,193.868 90.186,194.600 90.383 M202.000 91.200 C 202.550 91.376,203.630 91.517,204.400 91.514 L 205.800 91.508 204.200 91.177 C 202.063 90.735,200.596 90.750,202.000 91.200 M207.800 91.990 C 208.564 92.328,211.114 92.557,210.767 92.256 C 210.675 92.176,209.790 92.004,208.800 91.873 C 207.598 91.714,207.266 91.753,207.800 91.990 M212.000 92.779 C 212.330 93.004,213.125 93.191,213.767 93.194 C 215.304 93.202,214.984 92.970,213.000 92.638 C 211.854 92.446,211.570 92.486,212.000 92.779 M215.735 93.468 C 215.959 93.692,217.412 94.035,220.400 94.567 C 221.724 94.803,221.711 94.787,220.176 94.273 C 218.317 93.651,215.386 93.119,215.735 93.468 M161.214 95.174 C 160.758 96.027,160.611 278.652,161.065 280.350 L 161.319 281.300 171.560 281.073 C 178.813 280.912,182.500 280.666,184.200 280.230 C 186.259 279.703,186.344 279.648,184.800 279.847 C 183.810 279.974,181.740 280.233,180.200 280.422 C 178.660 280.610,173.845 280.773,169.500 280.782 L 161.600 280.800 161.600 187.752 L 161.600 94.703 170.500 94.864 C 175.395 94.952,178.680 94.894,177.800 94.735 C 173.878 94.027,161.655 94.350,161.214 95.174 M222.400 95.182 C 222.730 95.405,223.345 95.591,223.767 95.594 C 224.790 95.602,224.471 95.373,223.000 95.044 C 222.124 94.848,221.962 94.885,222.400 95.182 M106.400 187.800 L 106.200 280.600 97.400 280.812 L 88.600 281.024 97.492 281.112 L 106.385 281.200 106.602 280.300 C 106.721 279.805,106.769 237.910,106.709 187.200 L 106.599 95.000 106.400 187.800 M181.233 95.346 C 181.325 95.426,182.390 95.594,183.600 95.719 C 185.020 95.866,185.446 95.829,184.800 95.613 C 183.809 95.283,180.913 95.065,181.233 95.346 M225.200 95.941 C 225.530 96.134,226.340 96.409,227.000 96.552 C 227.768 96.718,227.984 96.684,227.600 96.459 C 227.270 96.266,226.460 95.991,225.800 95.848 C 225.032 95.682,224.816 95.716,225.200 95.941 M187.600 96.400 C 188.968 96.838,190.019 96.838,189.000 96.400 C 188.560 96.211,187.840 96.062,187.400 96.068 C 186.757 96.077,186.796 96.143,187.600 96.400 M191.000 97.200 C 191.440 97.389,192.070 97.544,192.400 97.544 C 192.778 97.544,192.704 97.417,192.200 97.200 C 191.760 97.011,191.130 96.856,190.800 96.856 C 190.422 96.856,190.496 96.983,191.000 97.200 M229.546 97.416 C 230.286 97.737,231.096 97.993,231.346 97.984 C 231.596 97.976,231.194 97.706,230.454 97.384 C 229.714 97.063,228.904 96.807,228.654 96.816 C 228.404 96.824,228.806 97.094,229.546 97.416 M234.360 99.216 C 235.327 99.655,236.202 99.932,236.303 99.831 C 236.516 99.617,233.722 98.396,233.051 98.409 C 232.803 98.414,233.392 98.777,234.360 99.216 M201.200 100.919 C 201.200 101.028,202.055 101.672,203.100 102.350 C 204.145 103.028,205.675 104.228,206.500 105.017 C 207.325 105.805,208.000 106.286,208.000 106.085 C 208.000 105.884,207.054 104.965,205.899 104.043 C 203.584 102.196,201.200 100.611,201.200 100.919 M245.200 104.137 C 245.200 104.377,248.341 106.402,248.691 106.387 C 248.861 106.380,248.640 106.097,248.200 105.757 C 247.244 105.018,245.200 103.915,245.200 104.137 M208.400 106.664 C 208.400 106.882,208.895 107.497,209.500 108.030 L 210.600 109.000 209.600 107.800 C 209.050 107.140,208.555 106.525,208.500 106.433 C 208.445 106.342,208.400 106.445,208.400 106.664 M251.043 107.854 C 251.506 108.264,253.372 109.763,255.188 111.184 C 257.005 112.605,260.120 115.485,262.111 117.584 C 264.102 119.683,265.000 120.500,264.107 119.400 C 262.252 117.116,257.853 112.844,255.200 110.752 C 252.912 108.947,249.929 106.868,251.043 107.854 M211.783 111.048 C 212.562 112.174,213.204 113.254,213.209 113.448 C 213.214 113.641,213.583 114.250,214.029 114.800 C 214.606 115.511,214.519 115.186,213.727 113.674 C 213.115 112.504,212.109 110.974,211.490 110.274 C 210.635 109.304,210.705 109.489,211.783 111.048 M267.853 124.959 C 269.113 126.845,270.217 128.316,270.306 128.227 C 270.509 128.024,266.566 122.150,265.987 121.792 C 265.753 121.647,266.593 123.072,267.853 124.959 M219.612 128.800 C 219.612 129.130,219.787 129.670,220.000 130.000 C 220.345 130.533,220.388 130.533,220.388 130.000 C 220.388 129.670,220.213 129.130,220.000 128.800 C 219.655 128.267,219.612 128.267,219.612 128.800 M272.010 131.900 C 272.940 133.715,273.763 135.200,273.838 135.200 C 274.069 135.200,273.505 133.903,272.271 131.600 C 270.371 128.053,270.162 128.293,272.010 131.900 M220.456 131.800 C 220.456 132.240,220.611 132.960,220.800 133.400 L 221.144 134.200 221.144 133.400 C 221.144 132.960,220.989 132.240,220.800 131.800 L 220.456 131.000 220.456 131.800 M221.268 135.200 C 221.288 136.239,221.918 137.946,221.932 137.000 C 221.938 136.560,221.789 135.840,221.600 135.400 C 221.389 134.910,221.261 134.832,221.268 135.200 M274.846 137.800 C 274.853 138.020,275.206 138.920,275.629 139.800 C 276.052 140.680,276.286 140.950,276.149 140.400 C 275.867 139.267,274.825 137.188,274.846 137.800 M222.068 139.400 C 222.074 139.840,222.224 140.650,222.400 141.200 L 222.720 142.200 222.732 141.200 C 222.738 140.650,222.589 139.840,222.400 139.400 L 222.056 138.600 222.068 139.400 M222.863 144.200 C 222.854 144.640,222.995 145.720,223.177 146.600 L 223.508 148.200 223.514 146.800 C 223.517 146.030,223.376 144.950,223.200 144.400 C 222.941 143.591,222.877 143.553,222.863 144.200 M278.006 147.033 C 278.009 147.455,278.195 148.070,278.418 148.400 C 278.715 148.838,278.752 148.676,278.556 147.800 C 278.227 146.329,277.998 146.010,278.006 147.033 M278.868 149.800 C 278.862 150.240,279.011 150.960,279.200 151.400 C 279.638 152.419,279.638 151.368,279.200 150.000 C 278.943 149.196,278.877 149.157,278.868 149.800 M223.888 152.600 C 224.009 154.360,224.174 155.875,224.254 155.967 C 224.529 156.280,224.306 151.803,223.987 150.600 C 223.799 149.890,223.759 150.706,223.888 152.600 M279.656 153.400 C 279.656 153.840,279.811 154.560,280.000 155.000 L 280.344 155.800 280.344 155.000 C 280.344 154.560,280.189 153.840,280.000 153.400 L 279.656 152.600 279.656 153.400 M280.480 157.200 C 280.480 157.750,280.624 158.650,280.800 159.200 L 281.120 160.200 281.120 159.200 C 281.120 158.650,280.976 157.750,280.800 157.200 L 280.480 156.200 280.480 157.200 M224.600 185.800 C 224.600 201.200,224.713 212.540,224.850 211.000 C 225.178 207.330,225.181 163.764,224.853 160.400 C 224.714 158.970,224.600 170.400,224.600 185.800 M281.295 162.600 C 281.295 163.260,281.432 164.340,281.600 165.000 L 281.905 166.200 281.905 165.000 C 281.905 164.340,281.768 163.260,281.600 162.600 L 281.295 161.400 281.295 162.600 M282.090 169.600 C 282.084 170.590,282.216 172.390,282.383 173.600 L 282.687 175.800 282.714 173.600 C 282.729 172.390,282.597 170.590,282.420 169.600 L 282.100 167.800 282.090 169.600 M282.934 184.400 C 282.934 186.050,283.005 186.725,283.091 185.900 C 283.178 185.075,283.178 183.725,283.091 182.900 C 283.005 182.075,282.934 182.750,282.934 184.400 M282.210 197.265 C 282.045 199.391,281.995 201.371,282.100 201.665 C 282.204 201.959,282.425 200.461,282.590 198.335 C 282.755 196.209,282.805 194.229,282.700 193.935 C 282.596 193.641,282.375 195.139,282.210 197.265 M281.385 205.785 C 281.230 207.023,281.193 208.127,281.303 208.237 C 281.413 208.347,281.630 207.423,281.785 206.185 C 281.939 204.946,281.976 203.843,281.866 203.733 C 281.756 203.623,281.539 204.546,281.385 205.785 M280.676 210.810 C 280.530 211.355,280.427 212.250,280.446 212.800 C 280.471 213.518,280.584 213.357,280.849 212.227 C 281.255 210.495,281.100 209.225,280.676 210.810 M279.849 215.015 C 279.712 215.373,279.618 216.146,279.640 216.733 C 279.673 217.591,279.752 217.495,280.046 216.240 C 280.422 214.639,280.295 213.853,279.849 215.015 M224.074 217.044 C 224.033 217.948,223.913 219.568,223.806 220.644 L 223.612 222.600 224.022 221.000 C 224.248 220.120,224.368 218.500,224.290 217.400 C 224.157 215.533,224.143 215.509,224.074 217.044 M279.056 218.884 C 278.921 219.388,278.827 220.160,278.846 220.600 C 278.865 221.040,279.045 220.698,279.246 219.840 C 279.636 218.178,279.470 217.340,279.056 218.884 M278.249 222.215 C 278.112 222.573,278.015 223.166,278.034 223.533 C 278.053 223.900,278.227 223.669,278.421 223.020 C 278.798 221.758,278.665 221.133,278.249 222.215 M223.070 226.157 C 222.911 227.453,222.861 228.594,222.960 228.693 C 223.226 228.959,223.703 225.418,223.519 224.547 C 223.432 224.136,223.230 224.860,223.070 226.157 M277.449 225.015 C 277.312 225.373,277.215 225.966,277.234 226.333 C 277.253 226.700,277.427 226.469,277.621 225.820 C 277.998 224.558,277.865 223.933,277.449 225.015 M276.667 227.467 C 276.520 227.613,276.411 228.108,276.425 228.567 C 276.449 229.333,276.482 229.323,276.834 228.442 C 277.226 227.463,277.144 226.989,276.667 227.467 M222.222 231.822 C 222.072 232.625,222.038 233.372,222.148 233.482 C 222.258 233.592,222.472 233.025,222.622 232.222 C 222.773 231.419,222.806 230.673,222.696 230.563 C 222.586 230.453,222.373 231.019,222.222 231.822 M274.047 234.680 C 273.803 235.296,273.428 236.205,273.214 236.700 C 273.000 237.195,272.905 237.600,273.003 237.600 C 273.288 237.600,274.873 233.940,274.674 233.741 C 274.574 233.641,274.292 234.063,274.047 234.680 M221.450 236.050 C 221.309 236.753,221.269 237.402,221.359 237.492 C 221.450 237.583,221.648 237.091,221.800 236.400 C 221.952 235.709,221.993 235.059,221.891 234.958 C 221.789 234.856,221.591 235.347,221.450 236.050 M270.704 241.734 C 269.661 243.750,269.091 245.040,269.437 244.600 C 270.201 243.627,272.901 238.368,272.726 238.193 C 272.657 238.125,271.747 239.718,270.704 241.734 M220.600 240.000 C 220.448 240.691,220.407 241.341,220.509 241.442 C 220.611 241.544,220.809 241.053,220.950 240.350 C 221.091 239.647,221.131 238.998,221.041 238.908 C 220.950 238.817,220.752 239.309,220.600 240.000 M316.400 240.400 C 314.955 240.577,316.327 240.672,320.400 240.676 C 324.972 240.681,325.970 240.604,324.200 240.385 C 321.351 240.031,319.379 240.035,316.400 240.400 M312.000 241.200 L 311.000 241.520 312.000 241.554 C 312.550 241.573,313.270 241.413,313.600 241.200 C 314.364 240.706,313.542 240.706,312.000 241.200 M327.600 241.200 C 327.930 241.413,328.560 241.578,329.000 241.566 L 329.800 241.544 329.000 241.200 C 327.804 240.686,326.805 240.686,327.600 241.200 M333.400 243.164 C 335.160 244.044,337.381 245.507,338.335 246.414 C 339.289 247.322,340.155 247.978,340.259 247.874 C 340.864 247.269,333.743 242.521,331.200 241.833 C 330.650 241.684,331.640 242.283,333.400 243.164 M305.800 244.000 C 305.140 244.437,304.780 244.792,305.000 244.788 C 305.401 244.782,307.576 243.223,307.200 243.212 C 307.090 243.208,306.460 243.563,305.800 244.000 M302.800 246.600 C 302.054 247.370,301.550 248.000,301.682 248.000 C 301.813 248.000,302.550 247.370,303.320 246.600 C 304.090 245.830,304.593 245.200,304.438 245.200 C 304.284 245.200,303.546 245.830,302.800 246.600 M267.037 247.900 C 266.225 249.165,265.979 249.708,266.490 249.106 C 267.500 247.918,268.947 245.600,268.679 245.600 C 268.588 245.600,267.849 246.635,267.037 247.900 M300.165 249.811 C 299.573 250.587,299.177 251.311,299.286 251.419 C 299.394 251.528,299.962 250.893,300.547 250.008 C 301.860 248.024,301.622 247.901,300.165 249.811 M341.102 249.500 C 341.518 250.105,342.168 251.275,342.548 252.100 C 343.425 254.008,343.807 254.070,343.016 252.177 C 342.399 250.700,340.895 248.400,340.546 248.400 C 340.436 248.400,340.686 248.895,341.102 249.500 M217.003 251.891 C 214.910 257.503,211.363 263.438,207.351 268.045 L 205.125 270.600 207.519 268.093 C 210.140 265.347,213.654 260.246,215.297 256.800 C 216.710 253.837,218.065 250.332,217.872 250.139 C 217.786 250.053,217.395 250.841,217.003 251.891 M263.821 252.200 C 263.010 253.190,262.493 253.993,262.673 253.984 C 262.999 253.969,265.774 250.400,265.461 250.400 C 265.370 250.400,264.633 251.210,263.821 252.200 M343.606 254.633 C 343.609 255.055,343.795 255.670,344.018 256.000 C 344.315 256.438,344.352 256.276,344.156 255.400 C 343.827 253.929,343.598 253.610,343.606 254.633 M258.502 257.929 C 256.687 259.803,255.257 261.390,255.322 261.456 C 255.388 261.521,257.048 259.961,259.012 257.987 C 260.976 256.014,262.407 254.428,262.192 254.461 C 261.976 254.495,260.316 256.055,258.502 257.929 M296.986 256.653 C 296.848 257.284,296.569 258.322,296.367 258.960 C 295.948 260.284,295.917 269.049,296.328 270.087 C 296.478 270.464,296.542 268.484,296.470 265.687 C 296.376 261.995,296.513 259.950,296.967 258.230 C 297.311 256.926,297.513 255.780,297.416 255.683 C 297.319 255.585,297.125 256.022,296.986 256.653 M344.497 258.200 C 344.496 259.080,344.632 260.340,344.800 261.000 C 345.240 262.730,345.255 260.843,344.820 258.400 L 344.500 256.600 344.497 258.200 M252.800 263.039 C 251.810 263.826,249.740 265.294,248.200 266.300 C 244.941 268.430,243.895 269.333,246.200 268.028 C 249.209 266.323,255.517 261.584,254.749 261.604 C 254.667 261.606,253.790 262.252,252.800 263.039 M344.600 268.000 C 344.444 269.347,344.406 270.539,344.516 270.649 C 344.626 270.759,344.844 269.747,345.000 268.400 C 345.156 267.053,345.194 265.861,345.084 265.751 C 344.974 265.641,344.756 266.653,344.600 268.000 M243.000 269.600 C 242.340 270.037,241.980 270.392,242.200 270.388 C 242.601 270.382,244.776 268.823,244.400 268.812 C 244.290 268.808,243.660 269.163,243.000 269.600 M203.215 271.616 C 202.453 272.267,202.015 272.800,202.240 272.800 C 202.466 272.800,203.168 272.260,203.800 271.600 C 205.255 270.081,205.003 270.088,203.215 271.616 M237.481 272.383 C 233.783 274.197,232.063 275.209,233.812 274.542 C 235.420 273.929,241.600 270.806,241.600 270.607 C 241.600 270.340,241.977 270.178,237.481 272.383 M296.806 271.833 C 296.809 272.255,296.995 272.870,297.218 273.200 C 297.515 273.638,297.552 273.476,297.356 272.600 C 297.027 271.129,296.798 270.810,296.806 271.833 M343.873 272.153 C 343.723 272.545,343.611 273.166,343.625 273.533 C 343.642 273.975,343.781 273.874,344.037 273.234 C 344.249 272.703,344.361 272.082,344.285 271.854 C 344.209 271.627,344.024 271.761,343.873 272.153 M199.000 274.464 C 196.280 276.279,196.444 276.335,199.504 274.636 C 200.657 273.996,201.600 273.321,201.600 273.136 C 201.600 272.702,201.773 272.614,199.000 274.464 M297.632 274.304 C 297.592 274.936,299.172 278.335,299.640 278.625 C 299.830 278.742,299.562 277.975,299.042 276.919 C 298.523 275.864,298.000 274.730,297.881 274.400 C 297.746 274.029,297.651 273.992,297.632 274.304 M342.617 276.107 C 340.648 280.669,336.944 284.453,332.358 286.588 C 331.171 287.140,330.431 287.594,330.713 287.596 C 331.456 287.602,334.724 285.875,336.706 284.431 C 339.267 282.563,344.260 275.327,343.507 274.574 C 343.419 274.486,343.019 275.176,342.617 276.107 M194.800 276.645 C 194.030 276.982,192.140 277.691,190.600 278.219 C 189.060 278.747,188.121 279.184,188.513 279.190 C 189.331 279.202,195.608 276.876,196.180 276.350 C 196.699 275.872,196.435 275.928,194.800 276.645 M220.200 279.200 C 219.696 279.417,219.622 279.544,220.000 279.544 C 220.330 279.544,220.960 279.389,221.400 279.200 C 221.904 278.983,221.978 278.856,221.600 278.856 C 221.270 278.856,220.640 279.011,220.200 279.200 M214.600 280.800 C 214.096 281.017,214.022 281.144,214.400 281.144 C 214.730 281.144,215.360 280.989,215.800 280.800 C 216.304 280.583,216.378 280.456,216.000 280.456 C 215.670 280.456,215.040 280.611,214.600 280.800 M301.577 281.489 C 302.708 283.181,307.274 286.800,308.277 286.800 C 308.445 286.800,307.596 286.164,306.391 285.386 C 305.186 284.609,303.416 283.124,302.458 282.086 C 301.241 280.769,300.975 280.589,301.577 281.489 M88.166 283.600 L 88.200 286.200 131.700 286.203 L 175.200 286.205 131.819 286.101 L 88.438 285.996 88.285 283.498 L 88.133 281.000 88.166 283.600 M211.000 281.600 L 210.200 281.944 211.000 281.944 C 211.440 281.944,212.160 281.789,212.600 281.600 L 213.400 281.256 212.600 281.256 C 212.160 281.256,211.440 281.411,211.000 281.600 M207.400 282.400 L 206.600 282.744 207.400 282.744 C 207.840 282.744,208.560 282.589,209.000 282.400 L 209.800 282.056 209.000 282.056 C 208.560 282.056,207.840 282.211,207.400 282.400 M203.200 283.200 C 201.856 283.631,203.308 283.631,205.000 283.200 C 206.078 282.926,206.098 282.894,205.200 282.887 C 204.650 282.883,203.750 283.024,203.200 283.200 M198.200 284.000 L 197.000 284.305 198.200 284.313 C 198.860 284.317,199.850 284.176,200.400 284.000 L 201.400 283.680 200.400 283.687 C 199.850 283.691,198.860 283.832,198.200 284.000 M192.000 284.800 C 190.629 285.089,190.625 285.095,191.800 285.124 C 192.460 285.141,193.720 285.005,194.600 284.823 L 196.200 284.492 194.800 284.499 C 194.030 284.502,192.770 284.638,192.000 284.800 M181.600 285.600 L 178.200 285.851 181.200 285.882 C 182.850 285.899,185.280 285.779,186.600 285.615 L 189.000 285.318 187.000 285.333 C 185.900 285.342,183.470 285.462,181.600 285.600 M311.200 287.994 C 311.530 288.211,312.235 288.391,312.767 288.394 C 314.051 288.402,313.725 288.175,312.000 287.858 C 311.015 287.677,310.778 287.718,311.200 287.994 M326.800 288.249 C 325.057 288.641,322.523 288.795,319.113 288.717 C 316.316 288.653,314.336 288.722,314.713 288.872 C 316.751 289.679,328.890 288.844,329.907 287.827 C 330.217 287.516,329.807 287.572,326.800 288.249 " stroke="none" fill="#7d5c04" fill-rule="evenodd"></path><path id="path3" d="M87.867 89.467 C 87.499 89.834,87.529 94.309,87.900 94.538 C 88.065 94.640,88.200 93.481,88.200 91.962 C 88.200 90.443,88.185 89.200,88.167 89.200 C 88.148 89.200,88.013 89.320,87.867 89.467 M184.305 89.483 C 184.802 89.579,185.522 89.575,185.905 89.475 C 186.287 89.375,185.880 89.296,185.000 89.301 C 184.120 89.305,183.807 89.387,184.305 89.483 M192.105 89.887 C 192.714 89.979,193.614 89.977,194.105 89.882 C 194.597 89.787,194.100 89.711,193.000 89.714 C 191.900 89.717,191.497 89.795,192.105 89.887 M200.305 90.683 C 200.802 90.779,201.522 90.775,201.905 90.675 C 202.287 90.575,201.880 90.496,201.000 90.501 C 200.120 90.505,199.807 90.587,200.305 90.683 M178.700 95.482 C 179.195 95.578,180.005 95.578,180.500 95.482 C 180.995 95.387,180.590 95.309,179.600 95.309 C 178.610 95.309,178.205 95.387,178.700 95.482 M260.783 115.700 C 261.764 116.745,262.619 117.600,262.683 117.600 C 262.984 117.600,262.666 117.241,260.900 115.583 L 259.000 113.800 260.783 115.700 M223.301 149.400 C 223.305 150.280,223.387 150.593,223.483 150.095 C 223.579 149.598,223.575 148.878,223.475 148.495 C 223.375 148.113,223.296 148.520,223.301 149.400 M224.120 158.000 C 224.120 159.210,224.195 159.705,224.287 159.100 C 224.378 158.495,224.378 157.505,224.287 156.900 C 224.195 156.295,224.120 156.790,224.120 158.000 M224.493 163.600 C 224.493 164.370,224.575 164.685,224.676 164.300 C 224.776 163.915,224.776 163.285,224.676 162.900 C 224.575 162.515,224.493 162.830,224.493 163.600 M282.093 166.800 C 282.093 167.570,282.175 167.885,282.276 167.500 C 282.376 167.115,282.376 166.485,282.276 166.100 C 282.175 165.715,282.093 166.030,282.093 166.800 M282.942 178.200 C 282.941 180.180,283.008 181.040,283.092 180.112 C 283.176 179.184,283.177 177.564,283.095 176.512 C 283.012 175.460,282.943 176.220,282.942 178.200 M282.942 190.600 C 282.941 192.580,283.008 193.440,283.092 192.512 C 283.176 191.584,283.177 189.964,283.095 188.912 C 283.012 187.860,282.943 188.620,282.942 190.600 M224.493 207.600 C 224.493 208.370,224.575 208.685,224.676 208.300 C 224.776 207.915,224.776 207.285,224.676 206.900 C 224.575 206.515,224.493 206.830,224.493 207.600 M224.124 213.400 C 224.126 214.720,224.201 215.212,224.290 214.493 C 224.379 213.774,224.377 212.694,224.286 212.093 C 224.195 211.492,224.122 212.080,224.124 213.400 M223.301 222.600 C 223.305 223.480,223.387 223.793,223.483 223.295 C 223.579 222.798,223.575 222.078,223.475 221.695 C 223.375 221.313,223.296 221.720,223.301 222.600 M345.340 264.000 C 345.340 265.870,345.409 266.635,345.493 265.700 C 345.577 264.765,345.577 263.235,345.493 262.300 C 345.409 261.365,345.340 262.130,345.340 264.000 M206.400 268.600 C 205.428 269.590,204.723 270.400,204.833 270.400 C 204.943 270.400,205.828 269.590,206.800 268.600 C 207.772 267.610,208.477 266.800,208.367 266.800 C 208.257 266.800,207.372 267.610,206.400 268.600 M175.900 280.682 C 176.395 280.778,177.205 280.778,177.700 280.682 C 178.195 280.587,177.790 280.509,176.800 280.509 C 175.810 280.509,175.405 280.587,175.900 280.682 M87.867 281.067 C 87.404 281.529,87.578 285.818,88.080 286.320 C 88.449 286.689,98.367 286.777,130.780 286.703 L 173.000 286.605 130.600 286.403 L 88.200 286.200 88.078 283.837 C 87.995 282.218,88.120 281.370,88.478 281.143 C 88.770 280.958,88.809 280.810,88.567 280.806 C 88.328 280.803,88.013 280.920,87.867 281.067 M189.300 285.476 C 189.685 285.576,190.315 285.576,190.700 285.476 C 191.085 285.375,190.770 285.293,190.000 285.293 C 189.230 285.293,188.915 285.375,189.300 285.476 M185.505 285.883 C 186.002 285.979,186.722 285.975,187.105 285.875 C 187.487 285.775,187.080 285.696,186.200 285.701 C 185.320 285.705,185.007 285.787,185.505 285.883 M176.300 286.289 C 177.015 286.378,178.185 286.378,178.900 286.289 C 179.615 286.201,179.030 286.128,177.600 286.128 C 176.170 286.128,175.585 286.201,176.300 286.289 " stroke="none" fill="#9c7504" fill-rule="evenodd"></path><path id="path4" d="M87.443 89.433 C 87.097 90.334,87.142 94.316,87.500 94.539 C 87.665 94.642,87.800 93.527,87.800 92.063 L 87.800 89.400 139.200 89.400 C 167.470 89.400,189.700 89.281,188.600 89.135 C 183.709 88.487,87.697 88.770,87.443 89.433 M196.200 90.023 C 197.080 90.205,198.160 90.352,198.600 90.349 L 199.400 90.344 198.600 90.000 C 198.160 89.811,197.080 89.664,196.200 89.674 L 194.600 89.692 196.200 90.023 M203.200 90.800 C 204.742 91.294,205.564 91.294,204.800 90.800 C 204.470 90.587,203.750 90.427,203.200 90.446 L 202.200 90.480 203.200 90.800 M208.400 91.600 C 209.942 92.094,210.764 92.094,210.000 91.600 C 209.670 91.387,208.950 91.227,208.400 91.246 L 207.400 91.280 208.400 91.600 M212.800 92.400 C 213.130 92.613,213.670 92.788,214.000 92.788 C 214.533 92.788,214.533 92.745,214.000 92.400 C 213.670 92.187,213.130 92.012,212.800 92.012 C 212.267 92.012,212.267 92.055,212.800 92.400 M216.400 93.200 C 216.730 93.413,217.270 93.588,217.600 93.588 C 218.133 93.588,218.133 93.545,217.600 93.200 C 217.270 92.987,216.730 92.812,216.400 92.812 C 215.867 92.812,215.867 92.855,216.400 93.200 M92.700 95.099 C 95.175 95.169,99.225 95.169,101.700 95.099 C 104.175 95.028,102.150 94.971,97.200 94.971 C 92.250 94.971,90.225 95.028,92.700 95.099 M161.785 95.300 C 161.680 95.575,161.641 137.380,161.697 188.200 L 161.800 280.600 168.400 280.615 L 175.000 280.629 168.500 280.505 L 162.000 280.381 162.000 187.727 L 162.000 95.074 170.100 95.277 C 174.555 95.389,177.300 95.343,176.200 95.175 C 172.688 94.639,162.001 94.732,161.785 95.300 M106.197 187.800 C 106.197 238.620,106.243 259.469,106.300 234.132 C 106.357 208.795,106.357 167.215,106.300 141.732 C 106.243 116.249,106.197 136.980,106.197 187.800 M182.000 96.000 C 182.550 96.176,183.540 96.317,184.200 96.313 L 185.400 96.305 184.200 96.000 C 183.540 95.832,182.550 95.691,182.000 95.687 L 181.000 95.680 182.000 96.000 M187.200 96.782 C 187.530 97.005,188.145 97.191,188.567 97.194 C 189.590 97.202,189.271 96.973,187.800 96.644 C 186.924 96.448,186.762 96.485,187.200 96.782 M190.600 97.600 C 190.736 97.820,191.242 97.987,191.724 97.972 C 192.569 97.945,192.571 97.931,191.800 97.600 C 190.699 97.127,190.308 97.127,190.600 97.600 M233.958 98.437 C 234.925 98.866,235.788 99.145,235.875 99.058 C 236.048 98.886,232.965 97.582,232.492 97.628 C 232.331 97.644,232.991 98.008,233.958 98.437 M193.400 98.400 C 193.536 98.620,194.042 98.787,194.524 98.772 C 195.369 98.745,195.371 98.731,194.600 98.400 C 193.499 97.927,193.108 97.927,193.400 98.400 M236.601 99.601 C 236.736 99.821,237.019 100.000,237.228 100.000 C 237.537 100.000,240.420 101.218,241.700 101.890 C 241.865 101.976,242.000 101.951,242.000 101.834 C 242.000 101.623,239.383 100.354,237.378 99.592 C 236.701 99.334,236.438 99.337,236.601 99.601 M200.400 101.220 C 201.787 102.161,202.578 102.435,201.600 101.636 C 201.050 101.186,200.420 100.817,200.200 100.815 C 199.980 100.813,200.070 100.996,200.400 101.220 M242.800 102.420 C 244.187 103.361,244.978 103.635,244.000 102.836 C 243.450 102.386,242.820 102.017,242.600 102.015 C 242.380 102.013,242.470 102.196,242.800 102.420 M206.000 104.932 C 206.000 105.340,208.814 108.119,209.019 107.914 C 209.111 107.823,208.469 107.048,207.593 106.193 C 206.717 105.337,206.000 104.770,206.000 104.932 M254.000 109.500 C 254.000 109.669,254.360 110.032,254.800 110.307 C 255.240 110.582,255.600 110.669,255.600 110.500 C 255.600 110.331,255.240 109.968,254.800 109.693 C 254.360 109.418,254.000 109.331,254.000 109.500 M258.841 113.700 C 258.937 113.755,259.912 114.610,261.007 115.600 L 263.000 117.400 261.217 115.500 C 260.236 114.455,259.261 113.600,259.050 113.600 C 258.839 113.600,258.745 113.645,258.841 113.700 M264.411 119.500 C 266.796 122.146,267.053 122.375,266.088 121.000 C 264.880 119.278,263.357 117.600,263.003 117.600 C 262.835 117.600,263.469 118.455,264.411 119.500 M217.616 123.725 C 217.592 124.211,218.867 128.000,219.054 128.000 C 219.143 128.000,219.093 127.505,218.943 126.900 C 218.622 125.608,217.638 123.254,217.616 123.725 M269.615 126.600 C 269.617 126.820,269.986 127.450,270.436 128.000 C 270.979 128.664,271.115 128.731,270.840 128.200 C 270.166 126.895,269.612 126.172,269.615 126.600 M219.206 129.033 C 219.209 129.455,219.395 130.070,219.618 130.400 C 219.915 130.838,219.952 130.676,219.756 129.800 C 219.427 128.329,219.198 128.010,219.206 129.033 M271.800 130.400 C 272.141 131.060,272.511 131.600,272.621 131.600 C 272.731 131.600,272.541 131.060,272.200 130.400 C 271.859 129.740,271.489 129.200,271.379 129.200 C 271.269 129.200,271.459 129.740,271.800 130.400 M220.006 132.233 C 220.009 132.655,220.195 133.270,220.418 133.600 C 220.715 134.038,220.752 133.876,220.556 133.000 C 220.227 131.529,219.998 131.210,220.006 132.233 M220.806 135.833 C 220.809 136.255,220.995 136.870,221.218 137.200 C 221.515 137.638,221.552 137.476,221.356 136.600 C 221.027 135.129,220.798 134.810,220.806 135.833 M221.646 140.000 C 221.627 140.550,221.787 141.270,222.000 141.600 C 222.494 142.364,222.494 141.542,222.000 140.000 L 221.680 139.000 221.646 140.000 M222.428 144.833 C 222.444 145.585,222.612 146.560,222.803 147.000 C 223.026 147.515,223.067 147.087,222.918 145.800 C 222.644 143.422,222.389 142.919,222.428 144.833 M223.228 152.033 C 223.244 152.785,223.420 153.760,223.620 154.200 C 223.865 154.739,223.905 154.346,223.741 153.000 C 223.451 150.619,223.189 150.124,223.228 152.033 M280.046 152.800 C 280.065 153.130,280.224 153.850,280.400 154.400 L 280.720 155.400 280.754 154.400 C 280.773 153.850,280.613 153.130,280.400 152.800 C 280.055 152.267,280.016 152.267,280.046 152.800 M281.073 158.000 C 281.204 158.990,281.376 159.875,281.456 159.967 C 281.757 160.314,281.528 157.764,281.190 157.000 C 280.953 156.466,280.914 156.798,281.073 158.000 M224.030 162.633 C 224.046 164.155,224.214 166.210,224.402 167.200 C 224.636 168.426,224.675 167.596,224.525 164.600 C 224.276 159.620,223.985 158.465,224.030 162.633 M281.888 163.000 C 282.011 164.320,282.176 165.475,282.256 165.567 C 282.535 165.889,282.316 162.588,281.993 161.600 C 281.789 160.979,281.749 161.509,281.888 163.000 M282.705 170.600 C 282.819 172.800,282.976 174.675,283.056 174.767 C 283.327 175.080,283.106 169.002,282.802 167.800 C 282.635 167.140,282.592 168.400,282.705 170.600 M283.360 184.600 C 283.361 187.900,283.422 189.197,283.498 187.482 C 283.573 185.767,283.572 183.067,283.497 181.482 C 283.421 179.897,283.359 181.300,283.360 184.600 M282.875 196.200 C 282.830 197.520,282.710 199.590,282.608 200.800 L 282.422 203.000 282.828 201.053 C 283.052 199.982,283.172 197.912,283.096 196.453 L 282.957 193.800 282.875 196.200 M224.298 204.400 C 224.138 205.610,224.030 207.680,224.058 209.000 C 224.104 211.205,224.137 211.107,224.462 207.800 C 224.866 203.701,224.738 201.066,224.298 204.400 M282.070 205.050 C 282.031 205.738,281.905 206.907,281.789 207.650 C 281.596 208.886,281.615 208.917,282.008 208.014 C 282.244 207.472,282.371 206.302,282.289 205.414 C 282.168 204.102,282.127 204.033,282.070 205.050 M281.254 210.800 C 281.219 211.350,281.096 212.250,280.983 212.800 L 280.777 213.800 281.207 212.815 C 281.443 212.274,281.565 211.374,281.478 210.815 L 281.320 209.800 281.254 210.800 M280.449 215.200 C 280.416 215.530,280.289 216.250,280.167 216.800 C 279.975 217.664,280.007 217.703,280.399 217.088 C 280.648 216.697,280.775 215.977,280.681 215.488 C 280.586 215.000,280.482 214.870,280.449 215.200 M223.473 217.753 C 223.323 218.145,223.220 219.126,223.244 219.933 L 223.288 221.400 223.642 219.600 C 224.022 217.670,223.922 216.583,223.473 217.753 M279.654 218.867 C 279.625 219.234,279.484 219.864,279.341 220.267 C 279.141 220.833,279.195 220.896,279.575 220.546 C 279.846 220.297,279.987 219.667,279.888 219.146 C 279.790 218.626,279.684 218.500,279.654 218.867 M222.649 225.415 C 222.512 225.773,222.420 226.636,222.444 227.333 C 222.482 228.437,222.533 228.371,222.836 226.825 C 223.193 225.005,223.094 224.257,222.649 225.415 M221.849 231.015 C 221.712 231.373,221.618 232.056,221.641 232.533 C 221.667 233.081,221.803 232.886,222.010 232.003 C 222.360 230.516,222.265 229.933,221.849 231.015 M221.049 235.415 C 220.912 235.773,220.815 236.366,220.834 236.733 C 220.853 237.100,221.027 236.869,221.221 236.220 C 221.598 234.958,221.465 234.333,221.049 235.415 M220.249 239.415 C 220.112 239.773,220.015 240.366,220.034 240.733 C 220.053 241.100,220.227 240.869,220.421 240.220 C 220.798 238.958,220.665 238.333,220.249 239.415 M271.878 240.605 C 271.512 241.372,271.295 242.000,271.396 242.000 C 271.670 242.000,272.884 239.551,272.701 239.368 C 272.614 239.281,272.244 239.838,271.878 240.605 M315.462 239.900 C 315.360 240.065,317.582 240.200,320.400 240.200 C 323.218 240.200,325.316 240.068,325.062 239.906 C 324.453 239.519,315.701 239.513,315.462 239.900 M328.200 240.800 C 329.301 241.273,329.692 241.273,329.400 240.800 C 329.264 240.580,328.758 240.413,328.276 240.428 C 327.431 240.455,327.429 240.469,328.200 240.800 M219.449 242.615 C 219.312 242.973,219.215 243.566,219.234 243.933 C 219.253 244.300,219.427 244.069,219.621 243.420 C 219.998 242.158,219.865 241.533,219.449 242.615 M304.254 244.633 C 303.623 245.187,303.187 245.720,303.283 245.816 C 303.379 245.913,303.974 245.454,304.604 244.796 C 305.996 243.343,305.816 243.259,304.254 244.633 M218.649 245.415 C 218.512 245.773,218.415 246.366,218.434 246.733 C 218.453 247.100,218.627 246.869,218.821 246.220 C 219.198 244.958,219.065 244.333,218.649 245.415 M268.346 246.700 C 266.839 249.123,266.688 249.460,267.582 248.400 C 268.490 247.323,269.730 245.200,269.450 245.200 C 269.356 245.200,268.859 245.875,268.346 246.700 M265.267 251.177 C 264.570 252.044,264.000 252.867,264.000 253.007 C 264.000 253.236,264.833 252.280,266.358 250.300 C 267.452 248.882,266.492 249.652,265.267 251.177 M298.850 251.006 C 297.667 253.010,297.786 253.301,299.036 251.462 C 299.605 250.624,299.987 249.854,299.885 249.752 C 299.783 249.650,299.317 250.214,298.850 251.006 M215.857 253.484 C 215.723 253.878,215.436 254.605,215.219 255.100 C 214.579 256.564,215.103 256.125,215.834 254.586 C 216.203 253.808,216.414 253.081,216.303 252.970 C 216.192 252.859,215.992 253.090,215.857 253.484 M259.266 257.873 C 258.092 259.078,257.202 260.135,257.289 260.222 C 257.375 260.308,258.510 259.304,259.810 257.990 C 261.111 256.675,262.001 255.618,261.787 255.640 C 261.574 255.662,260.440 256.667,259.266 257.873 M296.229 257.429 C 296.081 258.015,296.038 258.572,296.132 258.666 C 296.227 258.760,296.424 258.358,296.571 257.771 C 296.719 257.185,296.762 256.628,296.668 256.534 C 296.573 256.440,296.376 256.842,296.229 257.429 M345.050 258.800 C 345.375 261.041,345.602 261.360,345.594 259.567 C 345.591 258.815,345.408 257.930,345.188 257.600 C 344.909 257.181,344.867 257.542,345.050 258.800 M295.495 262.900 C 295.377 263.835,295.420 265.410,295.591 266.400 C 295.858 267.957,295.907 267.728,295.950 264.700 C 296.004 260.900,295.832 260.219,295.495 262.900 M252.600 263.860 C 251.049 265.245,251.043 265.261,252.400 264.358 C 254.036 263.269,254.995 262.394,254.529 262.415 C 254.348 262.423,253.480 263.073,252.600 263.860 M206.200 268.320 C 205.100 269.366,203.678 270.625,203.039 271.117 C 202.400 271.609,201.960 272.093,202.060 272.193 C 202.160 272.293,203.672 271.039,205.421 269.407 C 207.169 267.775,208.510 266.434,208.400 266.428 C 208.290 266.422,207.300 267.273,206.200 268.320 M345.264 268.067 C 345.229 268.654,345.084 269.464,344.941 269.867 C 344.743 270.429,344.796 270.495,345.170 270.151 C 345.444 269.899,345.586 269.109,345.493 268.351 C 345.359 267.253,345.316 267.200,345.264 268.067 M245.333 268.726 C 243.102 270.163,242.593 270.776,244.600 269.608 C 246.077 268.748,247.620 267.566,247.186 267.626 C 247.084 267.640,246.250 268.135,245.333 268.726 M296.056 270.800 C 296.056 271.130,296.211 271.760,296.400 272.200 C 296.617 272.704,296.744 272.778,296.744 272.400 C 296.744 272.070,296.589 271.440,296.400 271.000 C 296.183 270.496,296.056 270.422,296.056 270.800 M239.600 272.000 C 238.830 272.422,238.344 272.774,238.520 272.783 C 238.944 272.805,241.200 271.632,241.200 271.390 C 241.200 271.128,241.177 271.137,239.600 272.000 M298.000 276.647 C 298.000 278.298,303.458 284.698,306.077 286.117 C 307.325 286.794,307.343 286.794,306.400 286.123 C 304.011 284.422,300.860 281.053,299.486 278.730 C 298.669 277.349,298.000 276.411,298.000 276.647 M185.200 279.200 C 184.396 279.457,184.357 279.523,185.000 279.532 C 185.440 279.538,186.160 279.389,186.600 279.200 C 187.619 278.762,186.568 278.762,185.200 279.200 M180.400 280.000 C 179.043 280.286,179.037 280.295,180.200 280.307 C 180.860 280.315,181.850 280.176,182.400 280.000 C 183.712 279.580,182.396 279.580,180.400 280.000 M87.680 280.880 C 86.789 281.771,87.139 286.800,88.092 286.800 C 88.337 286.800,88.311 286.575,88.028 286.234 C 87.751 285.900,87.608 284.710,87.679 283.334 L 87.800 281.000 97.000 280.789 L 106.200 280.577 97.180 280.489 C 90.595 280.424,88.030 280.530,87.680 280.880 M214.800 281.200 L 213.800 281.520 214.800 281.554 C 215.350 281.573,216.070 281.413,216.400 281.200 C 217.164 280.706,216.342 280.706,214.800 281.200 M211.600 282.000 L 210.600 282.320 211.600 282.354 C 212.150 282.373,212.870 282.213,213.200 282.000 C 213.964 281.506,213.142 281.506,211.600 282.000 M208.200 282.800 C 207.093 283.082,207.077 283.109,208.000 283.147 C 208.550 283.169,209.270 283.013,209.600 282.800 C 210.281 282.360,209.929 282.360,208.200 282.800 M203.800 283.600 L 202.200 283.886 203.600 283.915 C 204.370 283.931,205.360 283.789,205.800 283.600 C 206.743 283.195,206.062 283.195,203.800 283.600 M336.415 284.816 C 334.608 286.361,335.051 286.349,337.000 284.800 C 337.831 284.140,338.350 283.607,338.155 283.616 C 337.960 283.625,337.177 284.165,336.415 284.816 M199.200 284.400 L 197.400 284.680 199.000 284.712 C 199.880 284.729,200.960 284.589,201.400 284.400 C 202.327 284.002,201.761 284.002,199.200 284.400 M193.200 285.200 L 191.000 285.470 193.000 285.495 C 194.100 285.509,195.450 285.376,196.000 285.200 C 197.228 284.807,196.409 284.807,193.200 285.200 M188.100 285.876 C 188.485 285.976,189.115 285.976,189.500 285.876 C 189.885 285.775,189.570 285.693,188.800 285.693 C 188.030 285.693,187.715 285.775,188.100 285.876 M181.500 286.293 C 182.435 286.377,183.965 286.377,184.900 286.293 C 185.835 286.209,185.070 286.140,183.200 286.140 C 181.330 286.140,180.565 286.209,181.500 286.293 M333.200 286.800 C 332.430 287.222,331.944 287.574,332.120 287.583 C 332.544 287.605,334.800 286.432,334.800 286.190 C 334.800 285.928,334.777 285.937,333.200 286.800 M174.300 286.693 C 175.235 286.777,176.765 286.777,177.700 286.693 C 178.635 286.609,177.870 286.540,176.000 286.540 C 174.130 286.540,173.365 286.609,174.300 286.693 M330.000 288.000 C 329.467 288.345,329.467 288.388,330.000 288.388 C 330.330 288.388,330.870 288.213,331.200 288.000 C 331.733 287.655,331.733 287.612,331.200 287.612 C 330.870 287.612,330.330 287.787,330.000 288.000 M312.400 288.800 C 312.730 289.013,313.360 289.178,313.800 289.166 L 314.600 289.144 313.800 288.800 C 312.604 288.286,311.605 288.286,312.400 288.800 M327.000 288.800 C 325.981 289.238,327.032 289.238,328.400 288.800 C 329.204 288.543,329.243 288.477,328.600 288.468 C 328.160 288.462,327.440 288.611,327.000 288.800 M318.100 289.496 C 319.365 289.575,321.435 289.575,322.700 289.496 C 323.965 289.416,322.930 289.351,320.400 289.351 C 317.870 289.351,316.835 289.416,318.100 289.496 " stroke="none" fill="#cf9c04" fill-rule="evenodd"></path></g></svg>