<svg width="24" height="24" viewBox="0 0 24 24" fill="none" xmlns="http://www.w3.org/2000/svg">
    <path fill-rule="evenodd" clip-rule="evenodd"
        d="M6.71667 0.125C4.7444 0.125 3.0744 0.828413 1.90166 2.08544C0.735193 3.33574 0.125 5.06371 0.125 7.00717V16.5155C0.125 18.4577 0.731539 20.1861 1.89677 21.4373C3.06854 22.6954 4.73907 23.3988 6.71667 23.3988H16.8083C18.7857 23.3988 20.4587 22.6956 21.6332 21.4382C22.8015 20.1875 23.4117 18.459 23.4117 16.5155V7.00717C23.4117 5.06369 22.8014 3.33543 21.6331 2.08497C20.4585 0.827842 18.7856 0.125 16.8083 0.125H6.71667ZM7.77777 5.52597C6.16454 5.52597 4.8576 6.83537 4.8576 8.4473C4.8576 10.0592 6.16454 11.3686 7.77777 11.3686C9.39035 11.3686 10.6991 10.0599 10.6991 8.4473C10.6991 6.83472 9.39035 5.52597 7.77777 5.52597ZM3.91669 14.1241C3.91669 13.6408 4.30844 13.2491 4.79169 13.2491H14.125C14.6083 13.2491 15 13.6408 15 14.1241C15 14.6073 14.6083 14.9991 14.125 14.9991H4.79169C4.30844 14.9991 3.91669 14.6073 3.91669 14.1241ZM4.79169 16.7491C4.30844 16.7491 3.91669 17.1408 3.91669 17.6241C3.91669 18.1073 4.30844 18.4991 4.79169 18.4991H18.7917C19.2749 18.4991 19.6667 18.1073 19.6667 17.6241C19.6667 17.1408 19.2749 16.7491 18.7917 16.7491H4.79169Z"
        fill="white" />
</svg>
