<svg width="28" height="28" viewBox="0 0 28 28" fill="none" xmlns="http://www.w3.org/2000/svg">
<path fill-rule="evenodd" clip-rule="evenodd" d="M20.521 9.97978H25.2222C25.2222 6.2051 22.9605 4 19.1284 4H9.09383C5.26173 4 3 6.2051 3 9.93163V18.0684C3 21.7949 5.26173 24 9.09383 24H19.1284C22.9605 24 25.2222 21.7949 25.2222 18.0684V17.7217H20.521C18.3391 17.7217 16.5704 15.9972 16.5704 13.87C16.5704 11.7428 18.3391 10.0183 20.521 10.0183V9.97978ZM20.521 11.636H24.3926C24.8508 11.636 25.2222 11.9982 25.2222 12.4449V15.2566C25.2169 15.7012 24.8486 16.0603 24.3926 16.0655H20.6099C19.5053 16.08 18.5394 15.3426 18.2889 14.2937C18.1634 13.6425 18.3396 12.9706 18.7701 12.458C19.2006 11.9454 19.8415 11.6445 20.521 11.636ZM20.6889 14.5922H21.0543C21.5234 14.5922 21.9037 14.2214 21.9037 13.7641C21.9037 13.3067 21.5234 12.936 21.0543 12.936H20.6889C20.4645 12.9334 20.2485 13.0185 20.0889 13.1723C19.9293 13.326 19.8395 13.5357 19.8395 13.7545C19.8395 14.2134 20.2182 14.5869 20.6889 14.5922ZM8.2642 9.97978H14.5358C15.0049 9.97978 15.3852 9.60902 15.3852 9.15166C15.3852 8.6943 15.0049 8.32354 14.5358 8.32354H8.2642C7.79893 8.32351 7.42023 8.68844 7.41481 9.14203C7.41478 9.60097 7.7935 9.9745 8.2642 9.97978Z" fill="white"/>
</svg>
