<svg width="24" height="24" viewBox="0 0 24 24" fill="none" xmlns="http://www.w3.org/2000/svg">
<path d="M21 7V17C21 20 19.5 22 16 22H8C4.5 22 3 20 3 17V7C3 4 4.5 2 8 2H16C19.5 2 21 4 21 7Z" stroke="white" stroke-width="1.5" stroke-miterlimit="10" stroke-linecap="round" stroke-linejoin="round"/>
<path d="M14.5 4.5V6.5C14.5 7.6 15.4 8.5 16.5 8.5H18.5" stroke="white" stroke-width="1.5" stroke-miterlimit="10" stroke-linecap="round" stroke-linejoin="round"/>
<path d="M6 18.328L7.488 15.632L6.096 13.096H7.128L7.704 14.256C7.768 14.3787 7.82933 14.504 7.888 14.632C7.952 14.76 8.024 14.9013 8.104 15.056H8.136C8.2 14.9013 8.25867 14.76 8.312 14.632C8.37067 14.504 8.42933 14.3787 8.488 14.256L9.04 13.096H10.024L8.632 15.672L10.12 18.328H9.088L8.448 17.096C8.37867 16.9573 8.30933 16.8213 8.24 16.688C8.176 16.5493 8.104 16.4 8.024 16.24H7.992C7.92267 16.4 7.856 16.5493 7.792 16.688C7.73333 16.8213 7.672 16.9573 7.608 17.096L6.984 18.328H6Z" fill="#61C777"/>
<path d="M10.7281 18.328V13.096H11.6561V17.544H13.8321V18.328H10.7281Z" fill="#61C777"/>
<path d="M15.9086 18.424C15.5566 18.424 15.2153 18.3573 14.8846 18.224C14.5593 18.0907 14.2713 17.9013 14.0206 17.656L14.5646 17.024C14.7513 17.2 14.9646 17.344 15.2046 17.456C15.4446 17.5627 15.6846 17.616 15.9246 17.616C16.2233 17.616 16.45 17.5547 16.6046 17.432C16.7593 17.3093 16.8366 17.1467 16.8366 16.944C16.8366 16.8373 16.8153 16.7467 16.7726 16.672C16.7353 16.5973 16.6793 16.5333 16.6046 16.48C16.5353 16.4213 16.45 16.368 16.3486 16.32C16.2526 16.272 16.146 16.224 16.0286 16.176L15.3086 15.864C15.1806 15.8107 15.0526 15.744 14.9246 15.664C14.802 15.584 14.69 15.488 14.5886 15.376C14.4873 15.264 14.4046 15.1333 14.3406 14.984C14.282 14.8347 14.2526 14.664 14.2526 14.472C14.2526 14.264 14.2953 14.072 14.3806 13.896C14.4713 13.7147 14.594 13.5573 14.7486 13.424C14.9033 13.2907 15.0873 13.1867 15.3006 13.112C15.5193 13.0373 15.7566 13 16.0126 13C16.3166 13 16.61 13.0613 16.8926 13.184C17.1753 13.3013 17.418 13.4613 17.6206 13.664L17.1486 14.256C16.978 14.1173 16.802 14.008 16.6206 13.928C16.4393 13.848 16.2366 13.808 16.0126 13.808C15.762 13.808 15.562 13.864 15.4126 13.976C15.2633 14.0827 15.1886 14.232 15.1886 14.424C15.1886 14.5253 15.21 14.6133 15.2526 14.688C15.3006 14.7573 15.362 14.8213 15.4366 14.88C15.5166 14.9333 15.6073 14.984 15.7086 15.032C15.81 15.0747 15.914 15.1173 16.0206 15.16L16.7326 15.456C16.8873 15.52 17.0286 15.5947 17.1566 15.68C17.2846 15.7653 17.394 15.864 17.4846 15.976C17.5806 16.088 17.6553 16.2187 17.7086 16.368C17.762 16.512 17.7886 16.68 17.7886 16.872C17.7886 17.0853 17.746 17.2853 17.6606 17.472C17.5753 17.6587 17.45 17.824 17.2846 17.968C17.1246 18.1067 16.9273 18.2187 16.6926 18.304C16.4633 18.384 16.202 18.424 15.9086 18.424Z" fill="#61C777"/>
</svg>
