<svg width="175" height="137" viewBox="0 0 175 137" fill="none" xmlns="http://www.w3.org/2000/svg">
<rect opacity="0.1" width="175" height="137" rx="10" fill="white"/>
<path fill-rule="evenodd" clip-rule="evenodd" d="M45.8641 10H130.179C131.176 10 132 10.826 132 11.854V69.0214H44V11.854C44 10.826 44.8305 10 45.8641 10Z" fill="#5B79BA"/>
<path fill-rule="evenodd" clip-rule="evenodd" d="M45.8641 127.998H130.179C131.176 127.998 132 127.172 132 126.187V69.0195H44V126.187C44 127.178 44.8305 127.998 45.8641 127.998Z" fill="#5B79BA"/>
<path fill-rule="evenodd" clip-rule="evenodd" d="M47.9738 13.5H128.025C128.357 13.5 128.647 13.7876 128.647 14.118V69.0215H47.3955V14.118C47.3955 13.7876 47.6416 13.5 47.9738 13.5Z" fill="#F0F2FF"/>
<path fill-rule="evenodd" clip-rule="evenodd" d="M47.9738 124.498H128.025C128.357 124.498 128.647 124.211 128.647 123.88V69.0195H47.3955V123.88C47.3955 124.211 47.6416 124.498 47.9738 124.498Z" fill="#F0F2FF"/>
<path d="M128.647 64.5312H47.3955V69.0224H128.647V64.5312Z" fill="#6E88C1"/>
<path d="M84.3326 25.3633H61.1822C60.5178 25.3633 59.9395 25.9017 59.9395 26.5993C59.9395 27.2601 60.5178 27.7924 61.1822 27.7924H84.3326C84.9971 27.7924 85.5323 27.254 85.5323 26.5993C85.5323 25.8956 84.9971 25.3633 84.3326 25.3633Z" fill="#CACFF7"/>
<path d="M84.3326 33.1875C76.6302 33.1875 68.8846 33.1875 61.1822 33.1875C60.5178 33.1875 59.9395 33.7259 59.9395 34.4235C59.9395 35.0843 60.5178 35.6166 61.1822 35.6166C68.8846 35.6166 76.6302 35.6166 84.3326 35.6166C84.9971 35.6166 85.5323 35.0782 85.5323 34.4235C85.5323 33.7198 84.9971 33.1875 84.3326 33.1875Z" fill="#CACFF7"/>
<path d="M84.3326 41.0156C76.6302 41.0156 68.8846 41.0156 61.1822 41.0156C60.5178 41.0156 59.9395 41.5541 59.9395 42.2516C59.9395 42.9124 60.5178 43.4448 61.1822 43.4448C68.8846 43.4448 76.6302 43.4448 84.3326 43.4448C84.9971 43.4448 85.5323 42.9063 85.5323 42.2516C85.5323 41.548 84.9971 41.0156 84.3326 41.0156Z" fill="#CACFF7"/>
<path d="M84.3326 56.668H61.1822C60.5178 56.668 59.9395 57.2431 59.9395 57.904C59.9395 58.5648 60.5178 59.0971 61.1822 59.0971H84.3326C84.9971 59.0971 85.5323 58.5587 85.5323 57.904C85.5323 57.2431 84.9971 56.668 84.3326 56.668Z" fill="#CACFF7"/>
<path d="M84.3326 48.8398C76.6302 48.8398 68.8846 48.8398 61.1822 48.8398C60.5178 48.8398 59.9395 49.415 59.9395 50.0758C59.9395 50.7367 60.5178 51.269 61.1822 51.269C68.8846 51.269 76.6302 51.269 84.3326 51.269C84.9971 51.269 85.5323 50.7305 85.5323 50.0758C85.5323 49.415 84.9971 48.8398 84.3326 48.8398Z" fill="#CACFF7"/>
<path d="M114.854 41.0156C107.109 41.0156 99.4061 41.0156 91.7037 41.0156C91.0023 41.0156 90.4609 41.5541 90.4609 42.2516C90.4609 42.9124 91.0023 43.4448 91.7037 43.4448C99.4061 43.4448 107.109 43.4448 114.854 43.4448C115.519 43.4448 116.054 42.9063 116.054 42.2516C116.054 41.548 115.519 41.0156 114.854 41.0156Z" fill="#CACFF7"/>
<path d="M118.582 18.7305H57.4605C56.7592 18.7305 56.2178 19.2689 56.2178 19.9236C56.2178 20.5844 56.7592 21.1168 57.4605 21.1168H118.582C119.246 21.1168 119.782 20.5783 119.782 19.9236C119.782 19.2689 119.246 18.7305 118.582 18.7305Z" fill="#CACFF7"/>
<path d="M114.854 56.668H91.7037C91.0023 56.668 90.4609 57.2431 90.4609 57.904C90.4609 58.5648 91.0023 59.0971 91.7037 59.0971H114.854C115.519 59.0971 116.054 58.5587 116.054 57.904C116.054 57.2431 115.519 56.668 114.854 56.668Z" fill="#CACFF7"/>
<path d="M114.854 25.3633H91.7037C91.0023 25.3633 90.4609 25.9017 90.4609 26.5993C90.4609 27.2601 91.0023 27.7924 91.7037 27.7924H114.854C115.519 27.7924 116.054 27.254 116.054 26.5993C116.054 25.8956 115.519 25.3633 114.854 25.3633Z" fill="#CACFF7"/>
<path d="M114.854 48.8398C107.109 48.8398 99.4061 48.8398 91.7037 48.8398C91.0023 48.8398 90.4609 49.415 90.4609 50.0758C90.4609 50.7367 91.0023 51.269 91.7037 51.269C99.4061 51.269 107.109 51.269 114.854 51.269C115.519 51.269 116.054 50.7305 116.054 50.0758C116.054 49.415 115.519 48.8398 114.854 48.8398Z" fill="#CACFF7"/>
<path d="M114.854 33.1875C107.109 33.1875 99.4061 33.1875 91.7037 33.1875C91.0023 33.1875 90.4609 33.7259 90.4609 34.4235C90.4609 35.0843 91.0023 35.6166 91.7037 35.6166C99.4061 35.6166 107.109 35.6166 114.854 35.6166C115.519 35.6166 116.054 35.0782 116.054 34.4235C116.054 33.7198 115.519 33.1875 114.854 33.1875Z" fill="#CACFF7"/>
<path fill-rule="evenodd" clip-rule="evenodd" d="M53.357 77.1758H79.6512C80.2725 77.1758 80.7709 77.6714 80.7709 78.2894V108.436C80.7709 109.054 80.2725 109.55 79.6512 109.55H53.357C52.7356 109.55 52.2373 109.054 52.2373 108.436V78.2833C52.2435 77.6714 52.7356 77.1758 53.357 77.1758Z" fill="#FEFEFE"/>
<path fill-rule="evenodd" clip-rule="evenodd" d="M66.4861 79.2344C71.3709 79.2344 75.3083 83.3523 75.3083 88.4614C75.3083 93.5278 71.3771 97.6457 66.4861 97.6457C61.6382 97.6457 57.707 93.5278 57.707 88.4614C57.707 83.3523 61.6444 79.2344 66.4861 79.2344Z" fill="#4E4C42"/>
<path fill-rule="evenodd" clip-rule="evenodd" d="M80.7709 105.555V108.437C80.7709 109.055 80.2725 109.55 79.6512 109.55H53.357C52.7356 109.55 52.2373 109.055 52.2373 108.437V105.555C54.4705 101.682 60.0197 98.9648 66.4856 98.9648C72.9884 98.9648 78.4946 101.682 80.7709 105.555Z" fill="#50A18E"/>
<path fill-rule="evenodd" clip-rule="evenodd" d="M66.4857 88.4609C68.2637 88.4609 69.7156 89.905 69.7156 91.6733V101.267C69.7156 103.036 68.2637 104.48 66.4857 104.48C64.7447 104.48 63.2559 103.036 63.2559 101.267V91.6733C63.2559 89.905 64.7447 88.4609 66.4857 88.4609Z" fill="#F0AE74"/>
<path fill-rule="evenodd" clip-rule="evenodd" d="M69.7156 92.3763V101.273C69.7156 101.352 69.7156 101.395 69.7156 101.481L63.2559 99.2966V92.2539L69.7156 92.3763Z" fill="#E4A268"/>
<path fill-rule="evenodd" clip-rule="evenodd" d="M73.6897 88.8688C73.6897 88.9484 73.6897 89.0341 73.6897 89.1136V92.3688C73.6897 96.2786 70.4599 99.5338 66.4856 99.5338C62.5544 99.5338 59.3184 96.2786 59.3184 92.3688V89.6888C62.8804 89.0279 66.0672 87.5472 68.7188 84.8672C69.8385 86.9782 71.6226 88.1285 73.6897 88.8688Z" fill="#F0AE74"/>
<path fill-rule="evenodd" clip-rule="evenodd" d="M87.6489 81.5698C95.3944 81.5698 91.9984 81.5698 99.7009 81.5698C100.365 81.5698 100.901 80.9946 100.901 80.3338C100.901 79.673 100.359 79.1406 99.7009 79.1406C91.9984 79.1406 95.3944 79.1406 87.6489 79.1406C86.9845 79.1406 86.4492 79.6791 86.4492 80.3338C86.4492 80.9946 86.9906 81.5698 87.6489 81.5698Z" fill="#CACFF7"/>
<path fill-rule="evenodd" clip-rule="evenodd" d="M107.902 87.6676C115.604 87.6676 112.208 87.6676 119.954 87.6676C120.618 87.6676 121.153 87.1291 121.153 86.4744C121.153 85.8136 120.612 85.2812 119.954 85.2812C112.208 85.2812 115.604 85.2812 107.902 85.2812C107.237 85.2812 106.702 85.8197 106.702 86.4744C106.702 87.1352 107.237 87.6676 107.902 87.6676Z" fill="#CACFF7"/>
<path fill-rule="evenodd" clip-rule="evenodd" d="M87.6489 93.3512C95.3944 93.3512 91.9984 93.3512 99.7009 93.3512C100.365 93.3512 100.901 92.8127 100.901 92.158C100.901 91.4972 100.359 90.9648 99.7009 90.9648C91.9984 90.9648 95.3944 90.9648 87.6489 90.9648C86.9845 90.9648 86.4492 91.5033 86.4492 92.158C86.4492 92.8188 86.9906 93.3512 87.6489 93.3512Z" fill="#CACFF7"/>
<path fill-rule="evenodd" clip-rule="evenodd" d="M87.852 106.871C95.5975 106.871 92.2016 106.871 99.904 106.871C100.568 106.871 101.104 106.295 101.104 105.635C101.104 104.974 100.562 104.441 99.904 104.441C92.2016 104.441 95.5975 104.441 87.852 104.441C87.1876 104.441 86.6523 104.98 86.6523 105.635C86.6523 106.295 87.1937 106.871 87.852 106.871Z" fill="#CACFF7"/>
<path fill-rule="evenodd" clip-rule="evenodd" d="M108.105 100.324C115.807 100.324 112.411 100.324 120.157 100.324C120.821 100.324 121.357 99.7852 121.357 99.1305C121.357 98.4697 120.815 97.8945 120.157 97.8945C112.411 97.8945 115.807 97.8945 108.105 97.8945C107.441 97.8945 106.905 98.4697 106.905 99.1305C106.905 99.7852 107.441 100.324 108.105 100.324Z" fill="#CACFF7"/>
<path fill-rule="evenodd" clip-rule="evenodd" d="M57.4605 119.062H118.582C119.246 119.062 119.782 118.524 119.782 117.869C119.782 117.208 119.24 116.633 118.582 116.633H57.4605C56.7592 116.633 56.2178 117.208 56.2178 117.869C56.2178 118.53 56.753 119.062 57.4605 119.062Z" fill="#CACFF7"/>
</svg>
