<svg width="156" height="104" viewBox="0 0 156 104" fill="none" xmlns="http://www.w3.org/2000/svg">
<rect opacity="0.1" width="156" height="104" rx="10" fill="white"/>
<g clip-path="url(#clip0_8990_28107)">
<path fill-rule="evenodd" clip-rule="evenodd" d="M20.0068 13.1953H135.217C140.25 13.1953 144.358 17.3034 144.358 22.3369V81.7369C144.358 86.7704 140.25 90.8784 135.217 90.8784H20.0068C14.9733 90.8778 10.8652 86.7697 10.8652 81.7369V22.3369C10.8652 17.3034 14.9733 13.1953 20.0068 13.1953Z" fill="#F0F2FF"/>
<path fill-rule="evenodd" clip-rule="evenodd" d="M143.803 84.8828C142.508 88.362 139.14 90.8784 135.217 90.8784H20.007C16.0838 90.8784 12.7162 88.362 11.4209 84.8828H143.803Z" fill="#6E88C1"/>
<path fill-rule="evenodd" clip-rule="evenodd" d="M20.0068 13.1953H135.217C140.25 13.1953 144.358 17.3034 144.358 22.3369V25.9636H10.8652V22.3369C10.8652 17.3034 14.9733 13.1953 20.0068 13.1953Z" fill="#6E88C1"/>
<path fill-rule="evenodd" clip-rule="evenodd" d="M10.8652 22.6697V22.3366C10.8652 21.6702 10.9393 21.0039 11.0876 20.375H72.6341V22.6697H10.8652Z" fill="#CACFF7"/>
<path fill-rule="evenodd" clip-rule="evenodd" d="M20.0068 13.1953H135.217C138.03 13.1953 140.546 14.4906 142.212 16.4889H13.0117C14.6775 14.4906 17.1939 13.1953 20.0068 13.1953Z" fill="#5B79BA"/>
<path d="M63.0849 30.7734H18.1924V77.1094H63.0849V30.7734Z" fill="#CACFF7"/>
<mask id="mask0_8990_28107" style="mask-type:alpha" maskUnits="userSpaceOnUse" x="18" y="30" width="46" height="48">
<path d="M63.0849 30.7734H18.1924V77.1094H63.0849V30.7734Z" fill="#CACFF7"/>
</mask>
<g mask="url(#mask0_8990_28107)">
<path fill-rule="evenodd" clip-rule="evenodd" d="M34.8838 46.3564C35.5869 46.1715 36.364 46.8004 36.623 47.7999C36.8821 48.762 36.5122 49.6874 35.8092 49.8723C35.0688 50.0946 34.2916 49.4283 34.0326 48.4662C33.7735 47.4667 34.1441 46.5414 34.8838 46.3564Z" fill="#FEA67E"/>
<path fill-rule="evenodd" clip-rule="evenodd" d="M46.282 46.3564C45.579 46.1715 44.8018 46.8004 44.5428 47.7999C44.2837 48.762 44.6536 49.6874 45.3573 49.8723C46.0604 50.0946 46.8375 49.4283 47.0966 48.4662C47.3556 47.4667 46.9851 46.5414 46.282 46.3564Z" fill="#FEA67E"/>
<path fill-rule="evenodd" clip-rule="evenodd" d="M36.697 51.5742C36.697 51.5742 36.512 56.2004 36.0306 57.7547C35.5866 59.309 34.1064 60.1236 34.1064 60.1236C35.8831 63.4912 40.0279 63.4545 43.3588 63.0846C45.9126 62.7888 47.3187 60.1236 47.3187 60.1236C47.3187 60.1236 45.8385 59.309 45.3945 57.7547C44.9505 56.2004 44.7282 51.5742 44.7282 51.5742H36.697Z" fill="#FEA67E"/>
<path fill-rule="evenodd" clip-rule="evenodd" d="M36.6972 51.5742C36.6972 51.5742 36.6972 52.0923 36.623 52.8695C37.1785 54.9793 38.8063 56.4962 40.7311 56.4962C42.6186 56.4962 44.247 54.9786 44.8025 52.8695C44.7658 52.0923 44.7284 51.5742 44.7284 51.5742H36.6972Z" fill="#F7976B"/>
<path fill-rule="evenodd" clip-rule="evenodd" d="M34.8838 43.8385C34.8838 43.8385 35.5501 50.3154 35.8459 51.6848C36.1417 53.0541 36.9929 53.9421 38.0665 54.6826C39.6208 55.7929 41.6565 55.7929 43.2108 54.6826C44.2844 53.9421 45.135 53.0541 45.4314 51.6848C45.7272 50.3154 46.4309 43.8385 46.4309 43.8385L40.7311 39.0273L34.8838 43.8385Z" fill="#FEA67E"/>
<path fill-rule="evenodd" clip-rule="evenodd" d="M34.5872 46.282C33.81 46.0229 33.0329 43.9873 32.8847 42.7294C32.7738 41.5082 32.4407 41.36 31.9967 40.6937C31.5527 40.0274 32.1449 38.3622 32.5515 37.6218C32.9588 36.9188 33.7726 36.7706 35.0312 36.6597C36.3264 36.5489 37.0295 36.2525 37.2885 35.8459C37.5843 35.476 38.288 34.9579 39.5091 34.9205C40.7303 34.8464 41.8039 34.6247 43.0617 36.4381C44.357 38.2514 44.6534 38.1773 45.8746 38.3996C47.059 38.622 47.4289 38.8436 47.5397 39.9172C47.6879 40.9908 47.947 41.3233 48.2801 41.9155C48.65 42.5444 48.65 42.915 48.5024 43.618C48.3916 44.2844 48.4283 44.4319 48.5024 45.1356C48.5766 45.8019 48.4283 46.061 47.7994 46.3942C47.2072 46.764 46.7258 46.949 46.0969 46.8381C45.4306 46.764 45.3197 45.9502 45.0974 44.9507C44.8384 43.9886 44.5052 43.7663 43.9504 43.5446C43.3955 43.3223 43.2473 42.8783 42.9142 42.1752C42.5443 41.5089 41.2858 41.5089 40.6194 41.8054C39.9531 42.0644 39.5458 42.8048 39.1392 43.582C38.732 44.3591 38.2139 44.4332 37.4 44.5441C36.6229 44.6923 36.253 44.6549 35.8083 45.2104C35.3269 45.8006 35.3643 46.5778 34.5872 46.282Z" fill="#4B2C29"/>
<path fill-rule="evenodd" clip-rule="evenodd" d="M35.0683 58.5703C35.0683 58.5703 32.5145 59.2366 31.1452 59.2366C29.8132 59.1999 26.778 58.7553 24.2984 60.9018C19.3764 65.084 14.0839 74.743 12.2705 80.85C11.9007 82.1086 11.7157 83.2556 11.6416 84.2918H69.709C69.6349 83.2556 69.4132 82.1086 69.0801 80.85C67.2667 74.7436 61.9742 65.084 57.0522 60.9018C54.5726 58.7553 51.5007 59.1992 50.1687 59.2366C48.8361 59.2366 46.2456 58.5703 46.2456 58.5703C46.2456 58.5703 45.5051 60.4211 43.6918 61.2349C41.3603 62.3085 39.991 62.3085 37.6595 61.2349C35.8455 60.4211 35.0683 58.5703 35.0683 58.5703Z" fill="#FFDE81"/>
<path fill-rule="evenodd" clip-rule="evenodd" d="M67.0818 75.7031C67.8957 77.5539 68.5994 79.2931 69.0434 80.8474C69.4133 82.1059 69.5989 83.253 69.6724 84.2892H57.0523C56.386 82.624 55.9053 81.2914 55.9053 81.2914L67.0818 75.7031Z" fill="#FEA67E"/>
<path fill-rule="evenodd" clip-rule="evenodd" d="M14.2321 75.7031C13.4182 77.5539 12.7145 79.2931 12.2705 80.8474C11.9007 82.1059 11.7157 83.253 11.6416 84.2892H24.2616C24.928 82.624 25.4087 81.2914 25.4087 81.2914L14.2321 75.7031Z" fill="#FEA67E"/>
<path fill-rule="evenodd" clip-rule="evenodd" d="M35.6234 58.0156C35.8083 59.1627 36.8078 60.088 37.9922 60.717C40.0279 61.7532 41.8039 61.6791 43.7655 60.532C44.8017 59.9031 45.6162 59.0518 45.8011 58.0156C46.4301 58.3114 47.0597 58.6078 47.6886 58.9036C45.0981 64.7509 36.2897 64.7509 33.6992 58.9036C34.3281 58.6078 34.9571 58.3114 35.6234 58.0156Z" fill="#E57545"/>
</g>
<path d="M100.132 34.5117H70.9316V37.9168H100.132V34.5117Z" fill="#CACFF7"/>
<path d="M136.623 34.5117H122.56V37.9168H136.623V34.5117Z" fill="#CACFF7"/>
<path d="M106.831 41.1719H70.9316V44.5769H106.831V41.1719Z" fill="#CACFF7"/>
<path d="M101.205 61.8984H70.9316V65.3035H101.205V61.8984Z" fill="#CACFF7"/>
<path d="M83.33 73.7422H70.9316V77.1472H83.33V73.7422Z" fill="#CACFF7"/>
<path d="M100.354 73.7422H87.9561V77.1472H100.354V73.7422Z" fill="#CACFF7"/>
<path d="M118.489 73.7422H106.091V77.1472H118.489V73.7422Z" fill="#CACFF7"/>
<path d="M135.883 73.7422H123.484V77.1472H135.883V73.7422Z" fill="#CACFF7"/>
<path d="M136.771 61.8984H119.969V65.3035H136.771V61.8984Z" fill="#CACFF7"/>
<path d="M90.2502 48.207H70.9316V51.6121H90.2502V48.207Z" fill="#CACFF7"/>
<path d="M90.2502 55.2383H70.9316V58.6433H90.2502V55.2383Z" fill="#CACFF7"/>
<path d="M113.567 48.207H94.248V51.6121H113.567V48.207Z" fill="#CACFF7"/>
<path d="M113.567 55.2383H94.248V58.6433H113.567V55.2383Z" fill="#CACFF7"/>
<path d="M136.919 41.1719H119.154V44.5769H136.919V41.1719Z" fill="#CACFF7"/>
<path d="M77.5802 18.9307C78.0355 18.9307 78.437 19.0217 78.7847 19.2039C79.1366 19.386 79.4098 19.6426 79.6043 19.9738C79.7988 20.3008 79.8961 20.6775 79.8961 21.1038C79.8961 21.5302 79.7968 21.9089 79.5981 22.24C79.4035 22.5712 79.1262 22.8278 78.7661 23.01C78.4101 23.1921 78.0003 23.2832 77.5367 23.2832H75.7051V18.9307H77.5802ZM77.6112 22.3642C77.8306 22.3642 78.0252 22.3125 78.1949 22.209C78.3646 22.1055 78.497 21.9586 78.5922 21.7682C78.6874 21.5778 78.735 21.3604 78.735 21.1162C78.735 20.8679 78.6833 20.6485 78.5798 20.4581C78.4805 20.2677 78.3418 20.1207 78.1638 20.0172C77.9858 19.9096 77.783 19.8558 77.5553 19.8558H76.8413V22.3642H77.6112Z" fill="white"/>
<path d="M83.0728 23.2832L82.4395 22.0786H82.4146H81.595V23.2832H80.4588V18.9307H82.4146C82.99 18.9307 83.435 19.0652 83.7496 19.3343C84.0683 19.5992 84.2276 19.9738 84.2276 20.4581C84.2276 20.7851 84.1614 21.0686 84.029 21.3087C83.8965 21.5446 83.704 21.7288 83.4515 21.8613L84.358 23.2832H83.0728ZM81.595 21.1721H82.4208C82.6526 21.1721 82.8306 21.1142 82.9548 20.9983C83.0831 20.8824 83.1473 20.7147 83.1473 20.4953C83.1473 20.2842 83.0831 20.1228 82.9548 20.011C82.8306 19.8951 82.6526 19.8372 82.4208 19.8372H81.595V21.1721Z" fill="white"/>
<path d="M84.9518 18.9307H86.0881V23.2832H84.9518V18.9307Z" fill="white"/>
<path d="M86.4999 18.9307H87.7231L88.8097 22.0786L89.9024 18.9307H91.0697L89.3685 23.2832H88.1888L86.4999 18.9307Z" fill="white"/>
<path d="M91.4821 18.9307H94.9157V19.8372H92.6184V20.6506H94.6922V21.5509L92.6184 21.5571V22.3766H94.9778V23.2832H91.4821V18.9307Z" fill="white"/>
<path d="M98.2859 23.2832L97.6526 22.0786H97.6278H96.8082V23.2832H95.672V18.9307H97.6278C98.2031 18.9307 98.6481 19.0652 98.9627 19.3343C99.2814 19.5992 99.4408 19.9738 99.4408 20.4581C99.4408 20.7851 99.3746 21.0686 99.2421 21.3087C99.1097 21.5446 98.9172 21.7288 98.6647 21.8613L99.5712 23.2832H98.2859ZM96.8082 21.1721H97.634C97.8658 21.1721 98.0438 21.1142 98.168 20.9983C98.2963 20.8824 98.3604 20.7147 98.3604 20.4953C98.3604 20.2842 98.2963 20.1228 98.168 20.011C98.0438 19.8951 97.8658 19.8372 97.634 19.8372H96.8082V21.1721Z" fill="white"/>
<path d="M101.541 18.9307H102.678V22.3146H104.522V23.2832H101.541V18.9307Z" fill="white"/>
<path d="M105.04 18.9307H106.176V23.2832H105.04V18.9307Z" fill="white"/>
<path d="M110.171 20.4084C110.03 20.2304 109.862 20.0897 109.668 19.9862C109.473 19.8786 109.281 19.8248 109.09 19.8248C108.871 19.8248 108.67 19.8806 108.488 19.9924C108.31 20.1 108.169 20.2511 108.066 20.4457C107.962 20.6361 107.911 20.8492 107.911 21.0852C107.911 21.3211 107.962 21.5364 108.066 21.7309C108.169 21.9213 108.31 22.0724 108.488 22.1842C108.67 22.2918 108.871 22.3456 109.09 22.3456C109.268 22.3456 109.455 22.3001 109.649 22.209C109.844 22.1179 110.017 21.9938 110.171 21.8365L110.835 22.5505C110.599 22.7989 110.318 22.9975 109.991 23.1466C109.668 23.2914 109.347 23.3639 109.028 23.3639C108.598 23.3639 108.209 23.2645 107.861 23.0658C107.513 22.8672 107.24 22.596 107.041 22.2525C106.843 21.9089 106.743 21.5239 106.743 21.0976C106.743 20.6754 106.845 20.2946 107.048 19.9552C107.25 19.6157 107.528 19.3487 107.88 19.1542C108.236 18.9597 108.633 18.8624 109.072 18.8624C109.395 18.8624 109.713 18.9307 110.028 19.0673C110.342 19.1997 110.609 19.3819 110.829 19.6137L110.171 20.4084Z" fill="white"/>
<path d="M111.322 18.9307H114.755V19.8372H112.458V20.6506H114.532V21.5509L112.458 21.5571V22.3766H114.817V23.2832H111.322V18.9307Z" fill="white"/>
<path d="M118.486 18.9307H119.541V23.2832H118.548L116.573 20.6816V23.2832H115.512V18.9307H116.511L118.492 21.5509L118.486 18.9307Z" fill="white"/>
<path d="M123.392 20.2408C123.16 20.1042 122.911 19.9924 122.646 19.9055C122.386 19.8186 122.166 19.7751 121.988 19.7751C121.848 19.7751 121.736 19.802 121.653 19.8558C121.574 19.9055 121.535 19.98 121.535 20.0793C121.535 20.1745 121.57 20.2553 121.641 20.3215C121.711 20.3836 121.798 20.4353 121.901 20.4767C122.005 20.514 122.158 20.5636 122.361 20.6257C122.663 20.7126 122.911 20.7996 123.106 20.8865C123.305 20.9734 123.474 21.1079 123.615 21.2901C123.756 21.4681 123.826 21.7019 123.826 21.9917C123.826 22.2814 123.75 22.5298 123.596 22.7368C123.443 22.9396 123.232 23.0927 122.963 23.1962C122.698 23.2997 122.402 23.3515 122.075 23.3515C121.715 23.3515 121.355 23.2894 120.995 23.1652C120.639 23.0369 120.33 22.863 120.07 22.6436L120.511 21.7558C120.73 21.9503 120.989 22.1097 121.287 22.2338C121.589 22.358 121.856 22.4201 122.088 22.4201C122.257 22.4201 122.39 22.3891 122.485 22.327C122.584 22.2649 122.634 22.1738 122.634 22.0538C122.634 21.9544 122.597 21.8717 122.522 21.8054C122.452 21.7392 122.361 21.6875 122.249 21.6502C122.141 21.6088 121.988 21.5612 121.79 21.5074C121.492 21.4246 121.245 21.3418 121.051 21.259C120.856 21.1721 120.689 21.0438 120.548 20.8741C120.411 20.7002 120.343 20.4705 120.343 20.1849C120.343 19.9158 120.413 19.6799 120.554 19.4771C120.699 19.2742 120.902 19.119 121.162 19.0114C121.427 18.8996 121.734 18.8438 122.081 18.8438C122.396 18.8438 122.706 18.8893 123.013 18.9803C123.319 19.0673 123.588 19.1852 123.82 19.3343L123.392 20.2408Z" fill="white"/>
<path d="M124.407 18.9307H127.84V19.8372H125.543V20.6506H127.617V21.5509L125.543 21.5571V22.3766H127.902V23.2832H124.407V18.9307Z" fill="white"/>
</g>
<defs>
<clipPath id="clip0_8990_28107">
<rect width="133.493" height="77.6825" fill="white" transform="translate(10.8652 13.1953)"/>
</clipPath>
</defs>
</svg>
