<svg width="156" height="104" viewBox="0 0 156 104" fill="none" xmlns="http://www.w3.org/2000/svg">
<rect opacity="0.1" width="156" height="104" rx="10" fill="white"/>
<mask id="mask0_8990_28145" style="mask-type:alpha" maskUnits="userSpaceOnUse" x="0" y="0" width="156" height="104">
<rect width="156" height="104" rx="10" fill="white"/>
</mask>
<g mask="url(#mask0_8990_28145)">
<path fill-rule="evenodd" clip-rule="evenodd" d="M71.2304 13.1914H186.441C191.474 13.1914 195.582 17.2995 195.582 22.333V81.733C195.582 86.7665 191.474 90.8745 186.441 90.8745H71.2304C66.197 90.8739 62.0889 86.7658 62.0889 81.733V22.333C62.0889 17.2995 66.197 13.1914 71.2304 13.1914Z" fill="#F0F2FF"/>
<path fill-rule="evenodd" clip-rule="evenodd" d="M195.026 84.8789C193.731 88.3581 190.363 90.8745 186.44 90.8745H71.2296C67.3065 90.8745 63.9388 88.3581 62.6436 84.8789H195.026Z" fill="#6E88C1"/>
<path fill-rule="evenodd" clip-rule="evenodd" d="M71.2304 13.1914H186.441C191.474 13.1914 195.582 17.2995 195.582 22.333V25.9597H62.0889V22.333C62.0889 17.2995 66.197 13.1914 71.2304 13.1914Z" fill="#6E88C1"/>
<path fill-rule="evenodd" clip-rule="evenodd" d="M62.0889 22.6658V22.3327C62.0889 21.6663 62.163 21 62.3112 20.3711H123.858V22.6658H62.0889Z" fill="#CACFF7"/>
<path fill-rule="evenodd" clip-rule="evenodd" d="M71.2304 13.1914H186.44C189.253 13.1914 191.77 14.4867 193.436 16.485H64.2354C65.9012 14.4867 68.4176 13.1914 71.2304 13.1914Z" fill="#5B79BA"/>
<path d="M114.31 30.7656H69.417V77.1016H114.31V30.7656Z" fill="#CACFF7"/>
<mask id="mask1_8990_28145" style="mask-type:alpha" maskUnits="userSpaceOnUse" x="69" y="30" width="46" height="48">
<path d="M114.31 30.7656H69.417V77.1016H114.31V30.7656Z" fill="#CACFF7"/>
</mask>
<g mask="url(#mask1_8990_28145)">
<path fill-rule="evenodd" clip-rule="evenodd" d="M86.1094 46.3486C86.8124 46.1637 87.5896 46.7926 87.8486 47.7921C88.1077 48.7542 87.7378 49.6795 87.0348 49.8645C86.2943 50.0868 85.5172 49.4205 85.2581 48.4584C84.9991 47.4589 85.3696 46.5335 86.1094 46.3486Z" fill="#FEA67E"/>
<path fill-rule="evenodd" clip-rule="evenodd" d="M97.5076 46.3486C96.8046 46.1637 96.0274 46.7926 95.7684 47.7921C95.5093 48.7542 95.8792 49.6795 96.5829 49.8645C97.2859 50.0868 98.0631 49.4205 98.3222 48.4584C98.5812 47.4589 98.2107 46.5335 97.5076 46.3486Z" fill="#FEA67E"/>
<path fill-rule="evenodd" clip-rule="evenodd" d="M87.9216 51.5664C87.9216 51.5664 87.7366 56.1926 87.2552 57.7469C86.8112 59.3012 85.3311 60.1157 85.3311 60.1157C87.1077 63.4834 91.2525 63.4467 94.5834 63.0768C97.1372 62.781 98.5433 60.1157 98.5433 60.1157C98.5433 60.1157 97.0631 59.3012 96.6191 57.7469C96.1751 56.1926 95.9528 51.5664 95.9528 51.5664H87.9216Z" fill="#FEA67E"/>
<path fill-rule="evenodd" clip-rule="evenodd" d="M87.9227 51.5664C87.9227 51.5664 87.9227 52.0845 87.8486 52.8617C88.4041 54.9715 90.0319 56.4884 91.9567 56.4884C93.8442 56.4884 95.4726 54.9708 96.0281 52.8617C95.9914 52.0845 95.954 51.5664 95.954 51.5664H87.9227Z" fill="#F7976B"/>
<path fill-rule="evenodd" clip-rule="evenodd" d="M86.1094 43.8307C86.1094 43.8307 86.7757 50.3076 87.0715 51.677C87.3672 53.0463 88.2185 53.9343 89.2921 54.6747C90.8464 55.7851 92.8821 55.7851 94.4364 54.6747C95.51 53.9343 96.3606 53.0463 96.657 51.677C96.9528 50.3076 97.6565 43.8307 97.6565 43.8307L91.9567 39.0195L86.1094 43.8307Z" fill="#FEA67E"/>
<path fill-rule="evenodd" clip-rule="evenodd" d="M85.8137 46.2742C85.0366 46.0151 84.2594 43.9794 84.1112 42.7216C84.0004 41.5004 83.6672 41.3522 83.2232 40.6859C82.7792 40.0196 83.3715 38.3544 83.7781 37.614C84.1853 36.911 84.9992 36.7627 86.2577 36.6519C87.553 36.5411 88.256 36.2446 88.5151 35.838C88.8108 35.4682 89.5145 34.9501 90.7357 34.9127C91.9568 34.8386 93.0304 34.6169 94.2883 36.4303C95.5835 38.2436 95.88 38.1695 97.1011 38.3918C98.2855 38.6142 98.6554 38.8358 98.7662 39.9094C98.9145 40.983 99.1735 41.3155 99.5067 41.9077C99.8766 42.5366 99.8766 42.9072 99.729 43.6102C99.6182 44.2765 99.6549 44.4241 99.729 45.1278C99.8031 45.7941 99.6549 46.0532 99.026 46.3863C98.4338 46.7562 97.9524 46.9412 97.3234 46.8303C96.6571 46.7562 96.5463 45.9423 96.324 44.9429C96.0649 43.9808 95.7318 43.7584 95.1769 43.5368C94.6221 43.3145 94.4739 42.8705 94.1407 42.1674C93.7709 41.5011 92.5123 41.5011 91.846 41.7975C91.1797 42.0566 90.7724 42.797 90.3658 43.5742C89.9585 44.3513 89.4404 44.4254 88.6266 44.5363C87.8494 44.6845 87.4795 44.6471 87.0349 45.2026C86.5535 45.7928 86.5909 46.5699 85.8137 46.2742Z" fill="#4B2C29"/>
<path fill-rule="evenodd" clip-rule="evenodd" d="M86.2939 58.5625C86.2939 58.5625 83.7401 59.2288 82.3708 59.2288C81.0388 59.1921 78.0036 58.7474 75.5239 60.894C70.602 65.0762 65.3095 74.7352 63.4961 80.8422C63.1262 82.1008 62.9413 83.2478 62.8672 84.284H120.935C120.86 83.2478 120.639 82.1008 120.306 80.8422C118.492 74.7358 113.2 65.0762 108.278 60.894C105.798 58.7474 102.726 59.1914 101.394 59.2288C100.062 59.2288 97.4711 58.5625 97.4711 58.5625C97.4711 58.5625 96.7307 60.4132 94.9174 61.2271C92.5859 62.3007 91.2165 62.3007 88.8851 61.2271C87.0711 60.4132 86.2939 58.5625 86.2939 58.5625Z" fill="#FFDE81"/>
<path fill-rule="evenodd" clip-rule="evenodd" d="M118.307 75.6992C119.121 77.55 119.825 79.2892 120.269 80.8435C120.639 82.102 120.824 83.2491 120.898 84.2853H108.278C107.612 82.6201 107.131 81.2875 107.131 81.2875L118.307 75.6992Z" fill="#FEA67E"/>
<path fill-rule="evenodd" clip-rule="evenodd" d="M65.4577 75.6992C64.6438 77.55 63.9401 79.2892 63.4961 80.8435C63.1262 82.102 62.9413 83.2491 62.8672 84.2853H75.4872C76.1535 82.6201 76.6343 81.2875 76.6343 81.2875L65.4577 75.6992Z" fill="#FEA67E"/>
<path fill-rule="evenodd" clip-rule="evenodd" d="M86.849 58.0078C87.0339 59.1548 88.0334 60.0802 89.2178 60.7091C91.2535 61.7454 93.0295 61.6712 94.991 60.5242C96.0272 59.8953 96.8418 59.044 97.0267 58.0078C97.6557 58.3036 98.2853 58.6 98.9142 58.8958C96.3237 64.7431 87.5153 64.7431 84.9248 58.8958C85.5537 58.6 86.1827 58.3036 86.849 58.0078Z" fill="#E57545"/>
</g>
<path d="M151.355 34.5117H122.154V37.9168H151.355V34.5117Z" fill="#CACFF7"/>
<path d="M158.054 41.168H122.154V44.573H158.054V41.168Z" fill="#CACFF7"/>
<path d="M152.428 61.8945H122.154V65.2996H152.428V61.8945Z" fill="#CACFF7"/>
<path d="M134.553 73.7422H122.154V77.1472H134.553V73.7422Z" fill="#CACFF7"/>
<path d="M151.578 73.7422H139.18V77.1472H151.578V73.7422Z" fill="#CACFF7"/>
<path d="M141.473 48.2031H122.154V51.6082H141.473V48.2031Z" fill="#CACFF7"/>
<path d="M141.473 55.2344H122.154V58.6394H141.473V55.2344Z" fill="#CACFF7"/>
<path d="M164.79 48.2031H145.472V51.6082H164.79V48.2031Z" fill="#CACFF7"/>
<path d="M164.79 55.2344H145.472V58.6394H164.79V55.2344Z" fill="#CACFF7"/>
<path d="M128.804 18.9307C129.259 18.9307 129.661 19.0217 130.008 19.2039C130.36 19.386 130.633 19.6426 130.828 19.9738C131.022 20.3008 131.12 20.6775 131.12 21.1038C131.12 21.5302 131.02 21.9089 130.822 22.24C130.627 22.5712 130.35 22.8278 129.99 23.01C129.634 23.1921 129.224 23.2832 128.76 23.2832H126.929V18.9307H128.804ZM128.835 22.3642C129.054 22.3642 129.249 22.3125 129.419 22.209C129.588 22.1055 129.721 21.9586 129.816 21.7682C129.911 21.5778 129.959 21.3604 129.959 21.1162C129.959 20.8679 129.907 20.6485 129.803 20.4581C129.704 20.2677 129.565 20.1207 129.387 20.0172C129.209 19.9096 129.007 19.8558 128.779 19.8558H128.065V22.3642H128.835Z" fill="white"/>
<path d="M134.296 23.2832L133.663 22.0786H133.638H132.819V23.2832H131.682V18.9307H133.638C134.214 18.9307 134.659 19.0652 134.973 19.3343C135.292 19.5992 135.451 19.9738 135.451 20.4581C135.451 20.7851 135.385 21.0686 135.253 21.3087C135.12 21.5446 134.928 21.7288 134.675 21.8613L135.582 23.2832H134.296ZM132.819 21.1721H133.644C133.876 21.1721 134.054 21.1142 134.178 20.9983C134.307 20.8824 134.371 20.7147 134.371 20.4953C134.371 20.2842 134.307 20.1228 134.178 20.011C134.054 19.8951 133.876 19.8372 133.644 19.8372H132.819V21.1721Z" fill="white"/>
<path d="M136.175 18.9307H137.312V23.2832H136.175V18.9307Z" fill="white"/>
<path d="M137.724 18.9307H138.947L140.033 22.0786L141.126 18.9307H142.293L140.592 23.2832H139.412L137.724 18.9307Z" fill="white"/>
<path d="M142.706 18.9307H146.139V19.8372H143.842V20.6506H145.916V21.5509L143.842 21.5571V22.3766H146.201V23.2832H142.706V18.9307Z" fill="white"/>
<path d="M149.51 23.2832L148.876 22.0786H148.851H148.032V23.2832H146.896V18.9307H148.851C149.427 18.9307 149.872 19.0652 150.186 19.3343C150.505 19.5992 150.664 19.9738 150.664 20.4581C150.664 20.7851 150.598 21.0686 150.466 21.3087C150.333 21.5446 150.141 21.7288 149.888 21.8613L150.795 23.2832H149.51ZM148.032 21.1721H148.858C149.089 21.1721 149.267 21.1142 149.392 20.9983C149.52 20.8824 149.584 20.7147 149.584 20.4953C149.584 20.2842 149.52 20.1228 149.392 20.011C149.267 19.8951 149.089 19.8372 148.858 19.8372H148.032V21.1721Z" fill="white"/>
<path d="M152.765 18.9307H153.901V22.3146H155.745V23.2832H152.765V18.9307Z" fill="white"/>
<path d="M156.264 18.9307H157.4V23.2832H156.264V18.9307Z" fill="white"/>
<path d="M161.394 20.4084C161.254 20.2304 161.086 20.0897 160.891 19.9862C160.697 19.8786 160.504 19.8248 160.314 19.8248C160.095 19.8248 159.894 19.8806 159.712 19.9924C159.534 20.1 159.393 20.2511 159.289 20.4457C159.186 20.6361 159.134 20.8492 159.134 21.0852C159.134 21.3211 159.186 21.5364 159.289 21.7309C159.393 21.9213 159.534 22.0724 159.712 22.1842C159.894 22.2918 160.095 22.3456 160.314 22.3456C160.492 22.3456 160.678 22.3001 160.873 22.209C161.067 22.1179 161.241 21.9938 161.394 21.8365L162.059 22.5505C161.823 22.7989 161.541 22.9975 161.214 23.1466C160.891 23.2914 160.571 23.3639 160.252 23.3639C159.821 23.3639 159.432 23.2645 159.085 23.0658C158.737 22.8672 158.464 22.596 158.265 22.2525C158.066 21.9089 157.967 21.5239 157.967 21.0976C157.967 20.6754 158.068 20.2946 158.271 19.9552C158.474 19.6157 158.751 19.3487 159.103 19.1542C159.459 18.9597 159.857 18.8624 160.295 18.8624C160.618 18.8624 160.937 18.9307 161.251 19.0673C161.566 19.1997 161.833 19.3819 162.052 19.6137L161.394 20.4084Z" fill="white"/>
<path d="M162.545 18.9307H165.979V19.8372H163.682V20.6506H165.755V21.5509L163.682 21.5571V22.3766H166.041V23.2832H162.545V18.9307Z" fill="white"/>
<path d="M169.709 18.9307H170.765V23.2832H169.771L167.797 20.6816V23.2832H166.735V18.9307H167.735L169.715 21.5509L169.709 18.9307Z" fill="white"/>
<path d="M174.615 20.2408C174.383 20.1042 174.135 19.9924 173.87 19.9055C173.609 19.8186 173.39 19.7751 173.212 19.7751C173.071 19.7751 172.959 19.802 172.877 19.8558C172.798 19.9055 172.759 19.98 172.759 20.0793C172.759 20.1745 172.794 20.2553 172.864 20.3215C172.935 20.3836 173.022 20.4353 173.125 20.4767C173.228 20.514 173.382 20.5636 173.584 20.6257C173.887 20.7126 174.135 20.7996 174.33 20.8865C174.528 20.9734 174.698 21.1079 174.839 21.2901C174.979 21.4681 175.05 21.7019 175.05 21.9917C175.05 22.2814 174.973 22.5298 174.82 22.7368C174.667 22.9396 174.456 23.0927 174.187 23.1962C173.922 23.2997 173.626 23.3515 173.299 23.3515C172.939 23.3515 172.579 23.2894 172.218 23.1652C171.862 23.0369 171.554 22.863 171.293 22.6436L171.734 21.7558C171.954 21.9503 172.212 22.1097 172.51 22.2338C172.812 22.358 173.079 22.4201 173.311 22.4201C173.481 22.4201 173.613 22.3891 173.709 22.327C173.808 22.2649 173.858 22.1738 173.858 22.0538C173.858 21.9544 173.82 21.8717 173.746 21.8054C173.676 21.7392 173.584 21.6875 173.473 21.6502C173.365 21.6088 173.212 21.5612 173.013 21.5074C172.715 21.4246 172.469 21.3418 172.274 21.259C172.08 21.1721 171.912 21.0438 171.771 20.8741C171.635 20.7002 171.567 20.4705 171.567 20.1849C171.567 19.9158 171.637 19.6799 171.778 19.4771C171.923 19.2742 172.125 19.119 172.386 19.0114C172.651 18.8996 172.957 18.8438 173.305 18.8438C173.62 18.8438 173.93 18.8893 174.236 18.9803C174.543 19.0673 174.812 19.1852 175.044 19.3343L174.615 20.2408Z" fill="white"/>
<path d="M175.63 18.9307H179.064V19.8372H176.766V20.6506H178.84V21.5509L176.766 21.5571V22.3766H179.126V23.2832H175.63V18.9307Z" fill="white"/>
</g>
</svg>
