<svg width="156" height="104" viewBox="0 0 156 104" fill="none" xmlns="http://www.w3.org/2000/svg">
<rect opacity="0.1" width="156" height="104" rx="10" fill="white"/>
<g clip-path="url(#clip0_8990_26937)">
<path fill-rule="evenodd" clip-rule="evenodd" d="M20.0068 13.1953H135.217C140.25 13.1953 144.358 17.2997 144.358 22.3286V81.6747C144.358 86.7036 140.25 90.8079 135.217 90.8079H20.0068C14.9733 90.8073 10.8652 86.7029 10.8652 81.6747V22.3286C10.8652 17.2997 14.9733 13.1953 20.0068 13.1953Z" fill="#F0F2FF"/>
<path fill-rule="evenodd" clip-rule="evenodd" d="M143.803 84.8164C142.508 88.3291 139.14 90.8065 135.217 90.8065H20.007C16.0838 90.8065 12.7162 88.3291 11.4209 84.8164H143.803Z" fill="#6E88C1"/>
<path fill-rule="evenodd" clip-rule="evenodd" d="M20.0068 13.1953H135.217C140.25 13.1953 144.358 17.2997 144.358 22.3286V25.9893H10.8652V22.3286C10.8652 17.2997 14.9733 13.1953 20.0068 13.1953Z" fill="#6E88C1"/>
<path fill-rule="evenodd" clip-rule="evenodd" d="M10.8652 22.6949V22.3428C10.8652 21.6385 10.9634 20.9343 11.1598 20.2695H92.7028V22.6949H10.8652Z" fill="#CACFF7"/>
<path fill-rule="evenodd" clip-rule="evenodd" d="M20.0068 13.1953H135.217C138.03 13.1953 140.546 14.4894 142.212 16.4859H13.0117C14.6769 14.4894 17.1939 13.1953 20.0068 13.1953Z" fill="#5B79BA"/>
<path d="M63.0856 30.7969H18.2305V77.0535H63.0856V30.7969Z" fill="#CACFF7"/>
<mask id="mask0_8990_26937" style="mask-type:alpha" maskUnits="userSpaceOnUse" x="18" y="30" width="46" height="48">
<path d="M63.0856 30.7969H18.2305V77.0535H63.0856V30.7969Z" fill="#CACFF7"/>
</mask>
<g mask="url(#mask0_8990_26937)">
<path fill-rule="evenodd" clip-rule="evenodd" d="M40.1399 36.4915C40.1399 36.4915 38.8814 35.5303 36.7723 37.0465C34.6257 38.5254 34.9956 39.5239 33.1455 40.744C31.2581 41.9273 30.3327 42.6664 30.555 45.2179C30.8141 47.806 30.9249 47.6579 30.296 48.5825C29.6671 49.4696 26.8542 51.6883 27.0759 54.4619C27.2982 57.1981 28.9266 57.8265 31.184 58.1967C33.4787 58.5662 33.3305 59.0105 34.9956 58.8991C36.624 58.751 38.2892 58.8991 39.6218 59.6755C40.9171 60.452 45.8764 60.2298 47.135 59.971C48.3935 59.7489 50.6141 58.3441 51.0581 56.495C51.5021 54.6093 51.8726 52.8716 50.7623 51.0225C49.6153 49.1735 48.3935 48.7672 48.6525 47.2144C48.9116 45.6241 49.837 44.256 48.6525 42.5183C47.4681 40.7433 46.062 40.2997 45.7289 39.3752C45.359 38.488 45.9879 37.0825 44.1372 36.4542C42.3232 35.7891 40.1399 36.4915 40.1399 36.4915Z" fill="#342F35"/>
<path fill-rule="evenodd" clip-rule="evenodd" d="M37.7711 49.0625C37.7711 49.0625 37.8452 54.0173 37.2163 55.8657C36.6241 57.6775 35.5879 58.8975 35.5879 58.8975C39.1038 61.7818 42.5455 61.7818 46.0988 58.8975C46.0988 58.8975 45.0626 57.6775 44.4337 55.8657C43.8415 54.0167 43.8788 49.0625 43.8788 49.0625H37.7711Z" fill="#FEA67E"/>
<path fill-rule="evenodd" clip-rule="evenodd" d="M37.7715 49.0625C37.7715 49.0625 37.8082 49.9497 37.7715 51.0963C39.5481 53.4257 42.2127 53.315 43.8779 50.7268C43.8779 49.7656 43.8779 49.0632 43.8779 49.0632H37.7715V49.0625Z" fill="#F7976B"/>
<path fill-rule="evenodd" clip-rule="evenodd" d="M31.5168 59.3073C24.7074 61.2297 25.4845 61.6366 21.1915 66.8136C18.8227 69.7346 16.3063 74.7635 15.5658 77.7212C14.6037 81.5294 15.7141 86.3368 18.5636 86.6323C19.6739 86.743 21.0433 86.2254 22.5976 84.7092C23.6338 83.7106 24.7074 81.1225 24.7074 81.1225C37.8829 81.5294 43.8785 81.5294 57.0166 81.1225C57.0166 81.1225 58.0902 83.7106 59.1264 84.7092C60.7181 86.2254 62.0501 86.743 63.1604 86.6323C66.0099 86.3368 67.1576 81.5294 66.1581 77.7212C65.4177 74.7628 62.938 69.7346 60.5325 66.8136C56.2762 61.6373 57.0533 61.2304 50.2072 59.3073C48.8011 58.9004 46.7654 57.6803 45.4328 56.8672C42.9898 59.1598 38.7342 59.1598 36.2912 56.8672C34.9953 57.6803 32.9603 58.901 31.5168 59.3073Z" fill="#7CA77A"/>
<path fill-rule="evenodd" clip-rule="evenodd" d="M36.1793 56.7539C35.1431 57.4196 33.6997 58.2701 32.4785 58.7877L35.6245 61.1171L33.9594 63.4097L40.9544 70.7306V65.591C40.8803 65.591 40.7695 65.5543 40.6212 65.4429C39.8808 64.8512 38.0675 62.5959 37.7717 62.189C36.624 60.5621 36.2908 58.122 36.1793 56.7539Z" fill="#8EB88C"/>
<path fill-rule="evenodd" clip-rule="evenodd" d="M45.6543 56.7539C46.6905 57.4196 48.0966 58.2701 49.3551 58.7877L46.2091 61.1171L47.8742 63.4097L40.8799 70.7306V65.591C40.954 65.591 41.0648 65.5543 41.1757 65.4429C41.9528 64.8512 43.7662 62.5959 44.0252 62.189C45.2103 60.5621 45.5435 58.122 45.6543 56.7539Z" fill="#8EB88C"/>
<path fill-rule="evenodd" clip-rule="evenodd" d="M45.7285 56.8278L45.4695 56.6797C43.0272 58.9723 38.7709 58.9723 36.3279 56.6797L36.1797 56.7537C36.2905 58.1218 36.6237 60.5619 37.7714 62.1888C38.0672 62.5957 39.8812 64.851 40.6209 65.4427C40.88 65.6275 41.0282 65.6275 41.2873 65.4427C42.0644 64.8143 43.841 62.5957 44.1368 62.1888C45.2471 60.5999 45.617 58.1959 45.7285 56.8278Z" fill="#F1DBCD"/>
<path fill-rule="evenodd" clip-rule="evenodd" d="M27.7418 70.582C27.7418 70.582 17.6015 77.3859 16.2688 79.826C13.9741 84.1151 17.8972 88.6264 21.9312 85.7421C23.6705 84.522 24.7441 82.3775 25.4838 80.6765C26.6682 78.0143 28.4816 73.8359 28.4816 73.8359L27.7418 70.582Z" fill="#7CA77A"/>
<path fill-rule="evenodd" clip-rule="evenodd" d="M54.2775 70.582C54.2775 70.582 64.4179 77.3859 65.7132 79.826C68.0446 84.1151 64.1215 88.6264 60.0875 85.7421C58.3482 84.522 57.2747 82.3775 56.5349 80.6765C55.3505 78.0143 53.5371 73.8359 53.5371 73.8359L54.2775 70.582Z" fill="#7CA77A"/>
<path fill-rule="evenodd" clip-rule="evenodd" d="M35.2178 46.0317C35.2919 46.6233 35.4027 47.141 35.5142 47.5479C37.5499 53.3899 43.5822 53.3899 45.6179 47.5479C45.3588 46.7714 45.6546 45.3293 45.2106 44.7009C44.6925 43.9612 44.7292 43.7764 44.7666 42.9632C44.8407 42.1868 44.3226 41.4844 43.5455 41.6692C42.7683 41.8539 42.7316 41.447 41.8062 41.0408C40.8808 40.6339 39.5489 41.1149 39.2524 42.002C38.9193 42.8892 39.1783 42.7044 38.2529 43.3335C37.365 43.9618 37.1426 43.3335 35.9215 43.9251C35.4401 44.1459 35.2552 45.0338 35.2178 46.0317Z" fill="#FEA67E"/>
<path d="M24.8186 70.6563C24.7078 70.6563 24.6337 70.5822 24.6337 70.5082C24.5969 70.1753 24.5595 69.8425 24.4854 69.5096C24.2631 67.5872 23.9673 65.5533 24.2631 63.6302C24.2631 63.5195 24.3739 63.4455 24.4854 63.4821C24.5595 63.4821 24.6337 63.5929 24.6337 63.6669C24.3746 65.5527 24.6337 67.5491 24.8927 69.4723C24.9294 69.8051 24.9668 70.138 25.0035 70.4335C25.0035 70.5442 24.9294 70.6556 24.8553 70.6556C24.8186 70.6563 24.8186 70.6563 24.8186 70.6563Z" fill="#6D9E6A"/>
<path d="M56.683 70.3604C56.5722 70.3604 56.498 70.2864 56.498 70.1756C56.5348 69.8428 56.5722 69.5099 56.6463 69.1771C56.9053 67.1806 57.1644 65.1468 56.8312 63.187C56.8312 63.1129 56.9053 63.0022 56.9794 62.9648C57.0903 62.9648 57.2018 63.0389 57.2018 63.1496C57.5349 65.1094 57.2759 67.2166 57.0168 69.2504C56.9427 69.5459 56.906 69.8788 56.8686 70.2117C56.8679 70.3231 56.7938 70.3604 56.683 70.3604Z" fill="#6D9E6A"/>
<path d="M40.8057 71.1012C40.8057 71.0272 40.8798 70.9531 40.9539 70.9531C41.028 70.9531 41.1021 70.9898 41.1021 71.1012L41.1388 81.2324C41.1388 81.3431 41.1021 81.3804 40.9906 81.4171C40.9165 81.4171 40.8424 81.3431 40.8424 81.2691L40.8057 71.1012Z" fill="#6D9E6A"/>
</g>
<path d="M100.132 34.4961H70.9316V37.898H100.132V34.4961Z" fill="#CACFF7"/>
<path d="M136.622 34.4961H122.596V37.898H136.622V34.4961Z" fill="#CACFF7"/>
<path d="M106.831 41.1484H70.9316V44.5504H106.831V41.1484Z" fill="#CACFF7"/>
<path d="M101.205 61.8555H70.9316V65.2574H101.205V61.8555Z" fill="#CACFF7"/>
<path d="M83.33 73.6875H70.9316V77.0895H83.33V73.6875Z" fill="#CACFF7"/>
<path d="M100.354 73.6875H87.9561V77.0895H100.354V73.6875Z" fill="#CACFF7"/>
<path d="M118.488 73.6875H106.09V77.0895H118.488V73.6875Z" fill="#CACFF7"/>
<path d="M135.884 73.6875H123.485V77.0895H135.884V73.6875Z" fill="#CACFF7"/>
<path d="M136.771 61.8555H119.969V65.2574H136.771V61.8555Z" fill="#CACFF7"/>
<path d="M90.2876 48.1719H70.9316V51.5738H90.2876V48.1719Z" fill="#CACFF7"/>
<path d="M90.2876 55.1992H70.9316V58.6012H90.2876V55.1992Z" fill="#CACFF7"/>
<path d="M113.603 48.1719H94.2471V51.5738H113.603V48.1719Z" fill="#CACFF7"/>
<path d="M113.603 55.1992H94.2471V58.6012H113.603V55.1992Z" fill="#CACFF7"/>
<path d="M136.956 41.1484H119.154V44.5504H136.956V41.1484Z" fill="#CACFF7"/>
<path d="M97.0479 18.4043H98.3824V23.5048H97.0479V18.4043Z" fill="white"/>
<path d="M101.579 18.4043C102.114 18.4043 102.585 18.511 102.994 18.7244C103.407 18.9378 103.728 19.2386 103.956 19.6266C104.185 20.0099 104.299 20.4513 104.299 20.9509C104.299 21.4505 104.182 21.8944 103.949 22.2824C103.72 22.6705 103.395 22.9712 102.972 23.1847C102.554 23.3981 102.072 23.5048 101.528 23.5048H99.3766V18.4043H101.579ZM101.615 22.4279C101.873 22.4279 102.102 22.3673 102.301 22.246C102.5 22.1248 102.656 21.9526 102.768 21.7294C102.879 21.5063 102.935 21.2516 102.935 20.9654C102.935 20.6744 102.875 20.4173 102.753 20.1942C102.636 19.971 102.473 19.7988 102.264 19.6776C102.055 19.5515 101.817 19.4884 101.55 19.4884H100.711V22.4279H101.615Z" fill="white"/>
<path d="M110.274 20.136C110.108 19.9274 109.912 19.7625 109.683 19.6412C109.455 19.5151 109.229 19.452 109.005 19.452C108.747 19.452 108.511 19.5175 108.298 19.6485C108.088 19.7746 107.923 19.9516 107.802 20.1796C107.68 20.4028 107.619 20.6526 107.619 20.9291C107.619 21.2056 107.68 21.4578 107.802 21.6858C107.923 21.9089 108.088 22.086 108.298 22.2169C108.511 22.3431 108.747 22.4061 109.005 22.4061C109.214 22.4061 109.433 22.3528 109.661 22.246C109.89 22.1393 110.094 21.9938 110.274 21.8095L111.054 22.6462C110.777 22.9373 110.446 23.1701 110.062 23.3447C109.683 23.5145 109.306 23.5994 108.932 23.5994C108.426 23.5994 107.969 23.483 107.561 23.2502C107.153 23.0173 106.832 22.6996 106.598 22.297C106.365 21.8944 106.248 21.4432 106.248 20.9436C106.248 20.4488 106.367 20.0026 106.606 19.6048C106.844 19.2071 107.17 18.8942 107.583 18.6662C108.001 18.4382 108.468 18.3242 108.983 18.3242C109.362 18.3242 109.737 18.4043 110.106 18.5643C110.476 18.7196 110.789 18.933 111.047 19.2046L110.274 20.136Z" fill="white"/>
<path d="M115.324 23.5048L114.974 22.6026H112.765L112.407 23.5048H111.036L113.231 18.4043H114.602L116.746 23.5048H115.324ZM113.166 21.5839H114.58L113.88 19.7649L113.166 21.5839Z" fill="white"/>
<path d="M120.279 23.5048L119.535 22.0932H119.506H118.543V23.5048H117.209V18.4043H119.506C120.182 18.4043 120.704 18.5619 121.074 18.8772C121.448 19.1877 121.635 19.6266 121.635 20.1942C121.635 20.5774 121.558 20.9097 121.402 21.191C121.247 21.4675 121.02 21.6834 120.724 21.8386L121.789 23.5048H120.279ZM118.543 21.0309H119.513C119.786 21.0309 119.995 20.963 120.141 20.8272C120.291 20.6914 120.367 20.4949 120.367 20.2378C120.367 19.9904 120.291 19.8013 120.141 19.6703C119.995 19.5345 119.786 19.4666 119.513 19.4666H118.543V21.0309Z" fill="white"/>
<path d="M124.688 18.4043C125.223 18.4043 125.695 18.511 126.103 18.7244C126.516 18.9378 126.837 19.2386 127.066 19.6266C127.294 20.0099 127.408 20.4513 127.408 20.9509C127.408 21.4505 127.292 21.8944 127.058 22.2824C126.83 22.6705 126.504 22.9712 126.081 23.1847C125.663 23.3981 125.182 23.5048 124.637 23.5048H122.486V18.4043H124.688ZM124.725 22.4279C124.982 22.4279 125.211 22.3673 125.41 22.246C125.61 22.1248 125.765 21.9526 125.877 21.7294C125.989 21.5063 126.045 21.2516 126.045 20.9654C126.045 20.6744 125.984 20.4173 125.862 20.1942C125.746 19.971 125.583 19.7988 125.374 19.6776C125.165 19.5515 124.927 19.4884 124.659 19.4884H123.821V22.4279H124.725Z" fill="white"/>
</g>
<defs>
<clipPath id="clip0_8990_26937">
<rect width="133.493" height="77.6119" fill="white" transform="translate(10.8652 13.1953)"/>
</clipPath>
</defs>
</svg>
