<svg width="312" height="163" viewBox="0 0 312 163" fill="none" xmlns="http://www.w3.org/2000/svg">
<path d="M237.175 11.8164H76.8648C67.6448 11.8164 60.1748 19.2864 60.1748 28.5064V109.876C60.1748 119.096 67.6448 126.566 76.8648 126.566H162.365C162.905 126.566 163.445 126.676 163.945 126.876L214.095 147.446C218.905 149.416 224.165 145.886 224.165 140.686V130.736C224.165 128.436 226.035 126.566 228.335 126.566H237.165C246.385 126.566 253.855 119.096 253.855 109.876V28.5064C253.875 19.2864 246.395 11.8164 237.175 11.8164Z" fill="#8E68D8"/>
<path d="M232.685 73.3056H81.355C79.825 73.3056 78.585 72.0656 78.585 70.5356C78.585 69.0056 79.825 67.7656 81.355 67.7656H232.685C234.215 67.7656 235.455 69.0056 235.455 70.5356C235.455 72.0656 234.215 73.3056 232.685 73.3056Z" fill="#AF91E8"/>
<path d="M232.685 90.7275H81.355C79.825 90.7275 78.585 89.4875 78.585 87.9575C78.585 86.4275 79.825 85.1875 81.355 85.1875H232.685C234.215 85.1875 235.455 86.4275 235.455 87.9575C235.455 89.4875 234.215 90.7275 232.685 90.7275Z" fill="#AF91E8"/>
<path d="M232.685 108.157H81.355C79.825 108.157 78.585 106.917 78.585 105.387C78.585 103.857 79.825 102.617 81.355 102.617H232.685C234.215 102.617 235.455 103.857 235.455 105.387C235.455 106.917 234.215 108.157 232.685 108.157Z" fill="#AF91E8"/>
<path d="M89.3747 48.8572L84.0347 51.6672C83.2647 52.0672 82.3647 51.4172 82.5147 50.5572L83.5347 44.6072C83.5947 44.2672 83.4847 43.9172 83.2347 43.6772L78.9147 39.4672C78.2947 38.8572 78.6347 37.7972 79.4947 37.6772L85.4647 36.8072C85.8047 36.7572 86.1047 36.5472 86.2547 36.2372L88.9247 30.8272C89.3147 30.0472 90.4247 30.0472 90.8047 30.8272L93.4747 36.2372C93.6247 36.5472 93.9247 36.7572 94.2647 36.8072L100.235 37.6772C101.095 37.8072 101.445 38.8572 100.815 39.4672L96.4947 43.6772C96.2447 43.9172 96.1347 44.2672 96.1947 44.6072L97.2147 50.5572C97.3647 51.4172 96.4647 52.0672 95.6947 51.6672L90.3547 48.8572C90.0447 48.6972 89.6847 48.6972 89.3747 48.8572Z" fill="#EFC04D"/>
<path d="M122.955 48.8572L117.615 51.6672C116.845 52.0672 115.945 51.4172 116.095 50.5572L117.115 44.6072C117.175 44.2672 117.065 43.9172 116.815 43.6772L112.495 39.4672C111.875 38.8572 112.215 37.7972 113.075 37.6772L119.045 36.8072C119.385 36.7572 119.685 36.5472 119.835 36.2372L122.505 30.8272C122.895 30.0472 124.005 30.0472 124.385 30.8272L127.055 36.2372C127.205 36.5472 127.505 36.7572 127.845 36.8072L133.815 37.6772C134.675 37.8072 135.025 38.8572 134.395 39.4672L130.075 43.6772C129.825 43.9172 129.715 44.2672 129.775 44.6072L130.795 50.5572C130.945 51.4172 130.045 52.0672 129.275 51.6672L123.935 48.8572C123.625 48.6972 123.265 48.6972 122.955 48.8572Z" fill="#EFC04D"/>
<path d="M156.535 48.8572L151.195 51.6672C150.425 52.0672 149.525 51.4172 149.675 50.5572L150.695 44.6072C150.755 44.2672 150.645 43.9172 150.395 43.6772L146.075 39.4672C145.455 38.8572 145.795 37.7972 146.655 37.6772L152.625 36.8072C152.965 36.7572 153.265 36.5472 153.415 36.2372L156.085 30.8272C156.475 30.0472 157.585 30.0472 157.965 30.8272L160.635 36.2372C160.785 36.5472 161.085 36.7572 161.425 36.8072L167.395 37.6772C168.255 37.8072 168.605 38.8572 167.975 39.4672L163.655 43.6772C163.405 43.9172 163.295 44.2672 163.355 44.6072L164.375 50.5572C164.525 51.4172 163.625 52.0672 162.855 51.6672L157.515 48.8572C157.205 48.6972 156.835 48.6972 156.535 48.8572Z" fill="#EFC04D"/>
<path d="M190.105 48.8572L184.765 51.6672C183.995 52.0672 183.095 51.4172 183.245 50.5572L184.265 44.6072C184.325 44.2672 184.215 43.9172 183.965 43.6772L179.645 39.4672C179.025 38.8572 179.365 37.7972 180.225 37.6772L186.195 36.8072C186.535 36.7572 186.835 36.5472 186.985 36.2372L189.655 30.8272C190.045 30.0472 191.155 30.0472 191.535 30.8272L194.205 36.2372C194.355 36.5472 194.655 36.7572 194.995 36.8072L200.965 37.6772C201.825 37.8072 202.175 38.8572 201.545 39.4672L197.225 43.6772C196.975 43.9172 196.865 44.2672 196.925 44.6072L197.945 50.5572C198.095 51.4172 197.195 52.0672 196.425 51.6672L191.085 48.8572C190.785 48.6972 190.415 48.6972 190.105 48.8572Z" fill="#EFC04D"/>
<path d="M223.684 48.8572L218.344 51.6672C217.574 52.0672 216.674 51.4172 216.824 50.5572L217.844 44.6072C217.904 44.2672 217.794 43.9172 217.544 43.6772L213.224 39.4672C212.604 38.8572 212.944 37.7972 213.804 37.6772L219.774 36.8072C220.114 36.7572 220.414 36.5472 220.564 36.2372L223.234 30.8272C223.624 30.0472 224.734 30.0472 225.114 30.8272L227.784 36.2372C227.934 36.5472 228.234 36.7572 228.574 36.8072L234.544 37.6772C235.404 37.8072 235.754 38.8572 235.124 39.4672L230.804 43.6772C230.554 43.9172 230.444 44.2672 230.504 44.6072L231.524 50.5572C231.674 51.4172 230.774 52.0672 230.004 51.6672L224.664 48.8572C224.354 48.6972 223.994 48.6972 223.684 48.8572Z" fill="#EFC04D"/>
<path d="M46.165 117.968L37.605 122.468C36.375 123.118 34.925 122.068 35.165 120.698L36.805 111.168C36.895 110.618 36.715 110.068 36.325 109.678L29.395 102.928C28.395 101.958 28.945 100.258 30.325 100.058L39.895 98.6681C40.445 98.5881 40.915 98.2481 41.165 97.7481L45.445 89.0781C46.065 87.8281 47.845 87.8281 48.465 89.0781L52.745 97.7481C52.995 98.2481 53.465 98.5881 54.015 98.6681L63.585 100.058C64.965 100.258 65.515 101.958 64.515 102.928L57.585 109.678C57.185 110.068 57.005 110.618 57.105 111.168L58.745 120.698C58.985 122.068 57.535 123.118 56.305 122.468L47.745 117.968C47.245 117.708 46.655 117.708 46.165 117.968Z" fill="#FFC13F"/>
<path d="M259.655 39.1478L251.095 43.6478C249.865 44.2978 248.415 43.2478 248.655 41.8778L250.295 32.3478C250.385 31.7978 250.205 31.2478 249.815 30.8578L242.885 24.1078C241.885 23.1378 242.435 21.4378 243.815 21.2378L253.385 19.8478C253.935 19.7678 254.405 19.4278 254.655 18.9278L258.935 10.2578C259.555 9.00781 261.335 9.00781 261.955 10.2578L266.235 18.9278C266.485 19.4278 266.955 19.7678 267.505 19.8478L277.075 21.2378C278.455 21.4378 279.005 23.1378 278.005 24.1078L271.075 30.8578C270.675 31.2478 270.495 31.7978 270.595 32.3478L272.235 41.8778C272.475 43.2478 271.025 44.2978 269.795 43.6478L261.235 39.1478C260.735 38.8878 260.145 38.8878 259.655 39.1478Z" fill="#FFC13F"/>
<path d="M260.445 142.385C280.532 142.385 296.815 126.101 296.815 106.015C296.815 85.9279 280.532 69.6445 260.445 69.6445C240.359 69.6445 224.075 85.9279 224.075 106.015C224.075 126.101 240.359 142.385 260.445 142.385Z" fill="#3FD762"/>
<path d="M260.445 135.085C276.5 135.085 289.515 122.07 289.515 106.015C289.515 89.9604 276.5 76.9453 260.445 76.9453C244.39 76.9453 231.375 89.9604 231.375 106.015C231.375 122.07 244.39 135.085 260.445 135.085Z" fill="#F8E9FF"/>
<path d="M270.255 101.063C271.755 101.063 272.975 99.4834 272.975 97.5434C272.975 95.5934 271.755 94.0234 270.255 94.0234C268.755 94.0234 267.535 95.6034 267.535 97.5434C267.535 99.4934 268.755 101.063 270.255 101.063Z" fill="#3FD762"/>
<path d="M248.195 95.9756C248.185 96.0056 248.175 96.0256 248.165 96.0556C248.145 96.1256 248.115 96.1856 248.095 96.2556C248.085 96.2956 248.075 96.3356 248.065 96.3756C248.045 96.4356 248.035 96.4956 248.015 96.5556C248.005 96.6056 247.995 96.6656 247.985 96.7156C247.975 96.7656 247.965 96.8156 247.955 96.8656C247.945 96.9356 247.935 97.0056 247.935 97.0756C247.935 97.1156 247.925 97.1556 247.925 97.1956C247.915 97.3056 247.915 97.4256 247.915 97.5356C247.915 97.6956 247.925 97.8556 247.945 98.0156C247.945 98.0556 247.955 98.0956 247.955 98.1356C247.975 98.2856 247.995 98.4356 248.035 98.5856C248.075 98.7356 248.115 98.8756 248.165 99.0156C248.175 99.0456 248.185 99.0756 248.195 99.1056C248.305 99.3856 248.435 99.6356 248.595 99.8656C248.605 99.8856 248.625 99.9056 248.635 99.9256C248.795 100.156 248.985 100.356 249.185 100.516C249.205 100.526 249.215 100.546 249.235 100.556C249.645 100.876 250.115 101.056 250.625 101.056C252.125 101.056 253.345 99.4756 253.345 97.5356C253.345 95.5856 252.125 94.0156 250.625 94.0156C249.635 94.0156 248.775 94.6956 248.305 95.7156C248.305 95.7256 248.295 95.7356 248.295 95.7456C248.255 95.8256 248.225 95.8956 248.195 95.9756Z" fill="#3FD762"/>
<path d="M248.245 111.973C247.665 111.973 247.225 112.523 247.375 113.083C248.915 118.903 254.175 123.193 260.445 123.193C266.715 123.193 271.985 118.903 273.515 113.083C273.665 112.523 273.225 111.973 272.645 111.973H248.245Z" fill="#3FD762"/>
<path d="M228.125 24.9591H225.465V22.2891H223.835V24.9591H221.165V26.5891H223.835V29.2491H225.465V26.5891H228.125V24.9591Z" fill="#7858C4"/>
<path d="M39.085 95.5272H36.415V92.8672H34.795V95.5272H32.125V97.1572H34.795V99.8172H36.415V97.1572H39.085V95.5272Z" fill="#7858C4"/>
<path d="M116.585 139.897H113.915V137.227H112.295V139.897H109.625V141.517H112.295V144.187H113.915V141.517H116.585V139.897Z" fill="#7858C4"/>
<path d="M311.335 103.26H308.675V100.59H307.045V103.26H304.375V104.88H307.045V107.55H308.675V104.88H311.335V103.26Z" fill="#7858C4"/>
<path d="M100.555 8.33984C98.9751 8.33984 98.9751 10.7998 100.555 10.7998C102.135 10.7998 102.135 8.33984 100.555 8.33984Z" stroke="#EFC04D" stroke-width="0.7375" stroke-miterlimit="10"/>
<path d="M2.185 128.25C0.605 128.25 0.605 130.71 2.185 130.71C3.765 130.7 3.765 128.25 2.185 128.25Z" stroke="#EFC04D" stroke-width="0.7375" stroke-miterlimit="10"/>
<path d="M181.665 144.914C180.085 144.914 180.085 147.374 181.665 147.374C183.245 147.374 183.255 144.914 181.665 144.914Z" stroke="#EFC04D" stroke-width="0.7375" stroke-miterlimit="10"/>
<path d="M308.065 160.059C306.485 160.059 306.485 162.519 308.065 162.519C309.645 162.519 309.645 160.059 308.065 160.059Z" stroke="#EFC04D" stroke-width="0.7375" stroke-miterlimit="10"/>
<path d="M274.785 1C273.205 1 273.205 3.46 274.785 3.46C276.365 3.46 276.365 1 274.785 1Z" stroke="#EFC04D" stroke-width="0.7375" stroke-miterlimit="10"/>
</svg>
