<svg width="175" height="137" viewBox="0 0 175 137" fill="none" xmlns="http://www.w3.org/2000/svg">
<rect opacity="0.1" width="175" height="137" rx="10" fill="white"/>
<g clip-path="url(#clip0_8990_27441)">
<path fill-rule="evenodd" clip-rule="evenodd" d="M15.6867 9.78516H42.8611C43.1823 9.78516 43.448 10.0549 43.448 10.3905V29.0578H15.0859V10.3905C15.0859 10.0549 15.3536 9.78516 15.6867 9.78516Z" fill="#5B79BA"/>
<path fill-rule="evenodd" clip-rule="evenodd" d="M15.6867 48.3172H42.8611C43.1823 48.3172 43.448 48.0475 43.448 47.7258V29.0586H15.0859V47.7258C15.0859 48.0495 15.3536 48.3172 15.6867 48.3172Z" fill="#5B79BA"/>
<path fill-rule="evenodd" clip-rule="evenodd" d="M16.367 10.9258H42.1673C42.2744 10.9258 42.3676 11.0197 42.3676 11.1276V29.0555H16.1807V11.1276C16.1807 11.0197 16.26 10.9258 16.367 10.9258Z" fill="#F0F2FF"/>
<path fill-rule="evenodd" clip-rule="evenodd" d="M16.367 47.1744H42.1673C42.2744 47.1744 42.3676 47.0805 42.3676 46.9726V29.0586H16.1807V46.9726C16.1807 47.0805 16.26 47.1744 16.367 47.1744Z" fill="#F0F2FF"/>
<path d="M42.3676 27.5898H16.1807V29.0564H42.3676V27.5898Z" fill="#6E88C1"/>
<path d="M28.0845 14.8008H20.6232C20.409 14.8008 20.2227 14.9766 20.2227 15.2044C20.2227 15.4202 20.409 15.594 20.6232 15.594H28.0845C28.2986 15.594 28.4711 15.4182 28.4711 15.2044C28.4711 14.9746 28.2986 14.8008 28.0845 14.8008Z" fill="#CACFF7"/>
<path d="M28.0845 17.3594C25.602 17.3594 23.1057 17.3594 20.6232 17.3594C20.409 17.3594 20.2227 17.5352 20.2227 17.763C20.2227 17.9788 20.409 18.1526 20.6232 18.1526C23.1057 18.1526 25.602 18.1526 28.0845 18.1526C28.2986 18.1526 28.4711 17.9768 28.4711 17.763C28.4711 17.5332 28.2986 17.3594 28.0845 17.3594Z" fill="#CACFF7"/>
<path d="M28.0845 19.9141C25.602 19.9141 23.1057 19.9141 20.6232 19.9141C20.409 19.9141 20.2227 20.0899 20.2227 20.3177C20.2227 20.5334 20.409 20.7073 20.6232 20.7073C23.1057 20.7073 25.602 20.7073 28.0845 20.7073C28.2986 20.7073 28.4711 20.5314 28.4711 20.3177C28.4711 20.0879 28.2986 19.9141 28.0845 19.9141Z" fill="#CACFF7"/>
<path d="M28.0845 25.0234H20.6232C20.409 25.0234 20.2227 25.2112 20.2227 25.427C20.2227 25.6428 20.409 25.8166 20.6232 25.8166H28.0845C28.2986 25.8166 28.4711 25.6408 28.4711 25.427C28.4711 25.2112 28.2986 25.0234 28.0845 25.0234Z" fill="#CACFF7"/>
<path d="M28.0845 22.4688C25.602 22.4688 23.1057 22.4688 20.6232 22.4688C20.409 22.4688 20.2227 22.6566 20.2227 22.8723C20.2227 23.0881 20.409 23.262 20.6232 23.262C23.1057 23.262 25.602 23.262 28.0845 23.262C28.2986 23.262 28.4711 23.0861 28.4711 22.8723C28.4711 22.6566 28.2986 22.4688 28.0845 22.4688Z" fill="#CACFF7"/>
<path d="M37.9214 19.9141C35.425 19.9141 32.9426 19.9141 30.4601 19.9141C30.2341 19.9141 30.0596 20.0899 30.0596 20.3177C30.0596 20.5334 30.2341 20.7073 30.4601 20.7073C32.9426 20.7073 35.425 20.7073 37.9214 20.7073C38.1355 20.7073 38.308 20.5314 38.308 20.3177C38.308 20.0879 38.1355 19.9141 37.9214 19.9141Z" fill="#CACFF7"/>
<path d="M39.1231 12.6367H19.424C19.1979 12.6367 19.0234 12.8125 19.0234 13.0263C19.0234 13.2421 19.1979 13.4159 19.424 13.4159H39.1231C39.3373 13.4159 39.5098 13.2401 39.5098 13.0263C39.5098 12.8125 39.3373 12.6367 39.1231 12.6367Z" fill="#CACFF7"/>
<path d="M37.9214 25.0234H30.4601C30.2341 25.0234 30.0596 25.2112 30.0596 25.427C30.0596 25.6428 30.2341 25.8166 30.4601 25.8166H37.9214C38.1355 25.8166 38.308 25.6408 38.308 25.427C38.308 25.2112 38.1355 25.0234 37.9214 25.0234Z" fill="#CACFF7"/>
<path d="M37.9214 14.8008H30.4601C30.2341 14.8008 30.0596 14.9766 30.0596 15.2044C30.0596 15.4202 30.2341 15.594 30.4601 15.594H37.9214C38.1355 15.594 38.308 15.4182 38.308 15.2044C38.308 14.9746 38.1355 14.8008 37.9214 14.8008Z" fill="#CACFF7"/>
<path d="M37.9214 22.4688C35.425 22.4688 32.9426 22.4688 30.4601 22.4688C30.2341 22.4688 30.0596 22.6566 30.0596 22.8723C30.0596 23.0881 30.2341 23.262 30.4601 23.262C32.9426 23.262 35.425 23.262 37.9214 23.262C38.1355 23.262 38.308 23.0861 38.308 22.8723C38.308 22.6566 38.1355 22.4688 37.9214 22.4688Z" fill="#CACFF7"/>
<path d="M37.9214 17.3594C35.425 17.3594 32.9426 17.3594 30.4601 17.3594C30.2341 17.3594 30.0596 17.5352 30.0596 17.763C30.0596 17.9788 30.2341 18.1526 30.4601 18.1526C32.9426 18.1526 35.425 18.1526 37.9214 18.1526C38.1355 18.1526 38.308 17.9768 38.308 17.763C38.308 17.5332 38.1355 17.3594 37.9214 17.3594Z" fill="#CACFF7"/>
<path fill-rule="evenodd" clip-rule="evenodd" d="M18.1021 31.7227H26.5766C26.7769 31.7227 26.9375 31.8845 26.9375 32.0863V41.9304C26.9375 42.1322 26.7769 42.294 26.5766 42.294H18.1021C17.9018 42.294 17.7412 42.1322 17.7412 41.9304V32.0843C17.7432 31.8845 17.9018 31.7227 18.1021 31.7227Z" fill="#FEFEFE"/>
<path fill-rule="evenodd" clip-rule="evenodd" d="M22.3334 32.3906C23.9077 32.3906 25.1767 33.7353 25.1767 35.4036C25.1767 37.0579 23.9097 38.4026 22.3334 38.4026C20.7709 38.4026 19.5039 37.0579 19.5039 35.4036C19.5039 33.7353 20.7729 32.3906 22.3334 32.3906Z" fill="#4E4C42"/>
<path fill-rule="evenodd" clip-rule="evenodd" d="M26.9375 40.9878V41.9288C26.9375 42.1306 26.7769 42.2925 26.5766 42.2925H18.1021C17.9018 42.2925 17.7412 42.1306 17.7412 41.9288V40.9878C18.461 39.723 20.2495 38.8359 22.3334 38.8359C24.4292 38.8359 26.2038 39.723 26.9375 40.9878Z" fill="#50A18E"/>
<path fill-rule="evenodd" clip-rule="evenodd" d="M22.333 35.4062C22.906 35.4062 23.3739 35.8778 23.3739 36.4552V39.588C23.3739 40.1655 22.906 40.637 22.333 40.637C21.7718 40.637 21.292 40.1655 21.292 39.588V36.4552C21.292 35.8778 21.7718 35.4062 22.333 35.4062Z" fill="#F0AE74"/>
<path fill-rule="evenodd" clip-rule="evenodd" d="M23.3739 36.6845V39.5896C23.3739 39.6155 23.3739 39.6295 23.3739 39.6575L21.292 38.9442V36.6445L23.3739 36.6845Z" fill="#E4A268"/>
<path fill-rule="evenodd" clip-rule="evenodd" d="M24.6553 35.5411C24.6553 35.567 24.6553 35.595 24.6553 35.621V36.6839C24.6553 37.9606 23.6143 39.0236 22.3334 39.0236C21.0664 39.0236 20.0234 37.9606 20.0234 36.6839V35.8088C21.1715 35.593 22.1986 35.1095 23.0532 34.2344C23.414 34.9237 23.9891 35.2993 24.6553 35.5411Z" fill="#F0AE74"/>
<path fill-rule="evenodd" clip-rule="evenodd" d="M29.1542 33.1565C31.6506 33.1565 30.5561 33.1565 33.0385 33.1565C33.2527 33.1565 33.4252 32.9687 33.4252 32.7529C33.4252 32.5371 33.2507 32.3633 33.0385 32.3633C30.5561 32.3633 31.6506 32.3633 29.1542 32.3633C28.9401 32.3633 28.7676 32.5391 28.7676 32.7529C28.7676 32.9687 28.9421 33.1565 29.1542 33.1565Z" fill="#CACFF7"/>
<path fill-rule="evenodd" clip-rule="evenodd" d="M35.6816 35.1464C38.164 35.1464 37.0695 35.1464 39.5659 35.1464C39.78 35.1464 39.9525 34.9706 39.9525 34.7568C39.9525 34.541 39.778 34.3672 39.5659 34.3672C37.0695 34.3672 38.164 34.3672 35.6816 34.3672C35.4674 34.3672 35.2949 34.543 35.2949 34.7568C35.2949 34.9726 35.4674 35.1464 35.6816 35.1464Z" fill="#CACFF7"/>
<path fill-rule="evenodd" clip-rule="evenodd" d="M29.1542 37.0019C31.6506 37.0019 30.5561 37.0019 33.0385 37.0019C33.2527 37.0019 33.4252 36.826 33.4252 36.6123C33.4252 36.3965 33.2507 36.2227 33.0385 36.2227C30.5561 36.2227 31.6506 36.2227 29.1542 36.2227C28.9401 36.2227 28.7676 36.3985 28.7676 36.6123C28.7676 36.828 28.9421 37.0019 29.1542 37.0019Z" fill="#CACFF7"/>
<path fill-rule="evenodd" clip-rule="evenodd" d="M29.2197 41.4182C31.716 41.4182 30.6215 41.4182 33.104 41.4182C33.3181 41.4182 33.4906 41.2304 33.4906 41.0146C33.4906 40.7988 33.3161 40.625 33.104 40.625C30.6215 40.625 31.716 40.625 29.2197 40.625C29.0055 40.625 28.833 40.8008 28.833 41.0146C28.833 41.2304 29.0075 41.4182 29.2197 41.4182Z" fill="#CACFF7"/>
<path fill-rule="evenodd" clip-rule="evenodd" d="M35.747 39.2776C38.2295 39.2776 37.135 39.2776 39.6313 39.2776C39.8455 39.2776 40.018 39.1018 40.018 38.888C40.018 38.6722 39.8435 38.4844 39.6313 38.4844C37.135 38.4844 38.2295 38.4844 35.747 38.4844C35.5329 38.4844 35.3604 38.6722 35.3604 38.888C35.3604 39.1018 35.5329 39.2776 35.747 39.2776Z" fill="#CACFF7"/>
<path fill-rule="evenodd" clip-rule="evenodd" d="M19.424 45.3987H39.1231C39.3373 45.3987 39.5098 45.2228 39.5098 45.0091C39.5098 44.7933 39.3353 44.6055 39.1231 44.6055H19.424C19.1979 44.6055 19.0234 44.7933 19.0234 45.0091C19.0234 45.2248 19.1959 45.3987 19.424 45.3987Z" fill="#CACFF7"/>
</g>
<defs>
<clipPath id="clip0_8990_27441">
<rect width="28.3621" height="38.5313" fill="white" transform="translate(15.0859 9.78516)"/>
</clipPath>
</defs>
</svg>
