<svg width="215" height="138" viewBox="0 0 215 138" fill="none" xmlns="http://www.w3.org/2000/svg">
<path d="M194.955 40.5732C198.783 38.0215 201.284 33.6834 201.284 28.733C201.284 20.8735 194.904 14.4941 187.045 14.4941C179.185 14.4941 172.806 20.8735 172.806 28.733C172.806 30.213 173.01 31.591 173.418 32.9689C171.479 32.7648 169.54 32.6117 167.498 32.6117C166.222 32.6117 164.946 32.6627 163.67 32.7648C154.994 13.5244 134.121 0 109.777 0C79.1557 0 54.0972 21.3328 51.5454 48.5348C50.933 48.4837 50.3206 48.4327 49.6571 48.4327C39.7052 48.4327 31.6416 56.4963 31.6416 66.4482C31.6416 76.4001 39.7052 84.4638 49.6571 84.4638C53.5869 84.4638 57.2104 83.1879 60.1704 81.0954C70.4796 96.0999 88.8524 106.103 109.777 106.103C117.687 106.103 125.241 104.674 132.131 102.071C140.704 111.053 153.412 116.718 167.6 116.718C193.424 116.718 214.349 97.8861 214.349 74.6139C214.349 60.6302 206.693 48.1775 194.955 40.5732Z" fill="#474666"/>
<path d="M204.754 129.631C204.754 127.334 182.146 125.497 154.28 125.497C138.663 125.497 124.731 126.058 115.442 126.977C103.755 125.956 85.1272 125.293 64.1006 125.293C28.733 125.293 0 127.181 0 129.529C0 131.723 24.8033 133.51 56.7515 133.714V133.765C56.7515 136.112 79.4623 138.001 107.481 138.001C135.499 138.001 158.21 136.112 158.21 133.765C158.21 133.765 158.21 133.765 158.21 133.714C184.238 133.612 204.754 131.826 204.754 129.631Z" fill="#474666"/>
<path d="M153.413 15.7695H104.981C103.45 15.7695 102.174 17.0454 102.174 18.5765V23.1186H156.22V18.5765C156.22 17.0454 154.945 15.7695 153.413 15.7695Z" stroke="#5178D1" stroke-width="2.3652" stroke-miterlimit="10"/>
<path d="M160.558 24.6021V121.11C160.558 124.836 157.547 127.847 153.822 127.847H107.992C106.001 127.847 104.368 126.214 104.368 124.223V21.8462C104.368 19.8558 106.001 18.2227 107.992 18.2227H154.23C157.7 18.2737 160.558 21.0806 160.558 24.6021Z" fill="#5D5C76"/>
<path d="M156.219 21.8462V124.274C156.219 126.265 154.586 127.898 152.596 127.898H103.653C101.662 127.898 100.029 126.265 100.029 124.274V21.8462C100.029 19.8558 101.662 18.2227 103.653 18.2227H152.596C154.586 18.2737 156.219 19.8558 156.219 21.8462Z" fill="#6F6FC5"/>
<path d="M102.888 124.016V22.0986C102.888 21.5372 103.347 21.1289 103.857 21.1289H152.341C152.902 21.1289 153.311 21.5882 153.311 22.0986V124.016C153.311 124.578 152.851 124.986 152.341 124.986H103.857C103.347 124.986 102.888 124.527 102.888 124.016Z" fill="#8383C0"/>
<path d="M158.363 43.1275H158.21C157.751 43.1275 157.394 42.7703 157.394 42.311V32.4611C157.394 32.0018 157.751 31.6445 158.21 31.6445H158.363C158.823 31.6445 159.18 32.0018 159.18 32.4611V42.311C159.18 42.7703 158.823 43.1275 158.363 43.1275Z" fill="#7CA0E8"/>
<path d="M158.363 57.9752H158.21C157.751 57.9752 157.394 57.6179 157.394 57.1586V47.3088C157.394 46.8494 157.751 46.4922 158.21 46.4922H158.363C158.823 46.4922 159.18 46.8494 159.18 47.3088V57.1586C159.18 57.6179 158.823 57.9752 158.363 57.9752Z" fill="#7CA0E8"/>
<path d="M123.607 57.423H108.857C107.224 57.423 105.948 56.0961 105.948 54.514V39.7137C105.948 38.0806 107.275 36.8047 108.857 36.8047H123.607C125.24 36.8047 126.516 38.1316 126.516 39.7137V54.463C126.516 56.0961 125.24 57.423 123.607 57.423Z" fill="white"/>
<path d="M147.135 57.423H132.386C130.752 57.423 129.477 56.0961 129.477 54.514V39.7137C129.477 38.0806 130.803 36.8047 132.386 36.8047H147.135C148.768 36.8047 150.044 38.1316 150.044 39.7137V54.463C150.095 56.0961 148.768 57.423 147.135 57.423Z" fill="white"/>
<path d="M116.054 62.8833H107.02C106.408 62.8833 105.897 62.3729 105.897 61.7605V61.5564C105.897 60.944 106.408 60.4336 107.02 60.4336H116.054C116.666 60.4336 117.176 60.944 117.176 61.5564V61.7605C117.176 62.424 116.666 62.8833 116.054 62.8833Z" fill="#E4AC1A"/>
<path d="M114.93 66.4079H106.459C106.152 66.4079 105.948 66.1528 105.948 65.8976V65.7955C105.948 65.4893 106.203 65.2852 106.459 65.2852H114.93C115.237 65.2852 115.441 65.5403 115.441 65.7955V65.8976C115.492 66.1528 115.237 66.4079 114.93 66.4079Z" fill="#9997FF"/>
<path d="M123.045 68.904H106.459C106.152 68.904 105.948 68.6489 105.948 68.3937V68.2916C105.948 67.9854 106.203 67.7812 106.459 67.7812H123.045C123.351 67.7812 123.555 68.0364 123.555 68.2916V68.3937C123.607 68.6489 123.351 68.904 123.045 68.904Z" fill="#9997FF"/>
<path d="M139.633 62.8833H130.599C129.987 62.8833 129.477 62.3729 129.477 61.7605V61.5564C129.477 60.944 129.987 60.4336 130.599 60.4336H139.633C140.245 60.4336 140.755 60.944 140.755 61.5564V61.7605C140.704 62.424 140.245 62.8833 139.633 62.8833Z" fill="#E4AC1A"/>
<path d="M138.51 66.4079H130.038C129.731 66.4079 129.527 66.1528 129.527 65.8976V65.7955C129.527 65.4893 129.783 65.2852 130.038 65.2852H138.51C138.816 65.2852 139.02 65.5403 139.02 65.7955V65.8976C139.02 66.1528 138.765 66.4079 138.51 66.4079Z" fill="#9997FF"/>
<path d="M146.624 68.904H130.038C129.731 68.904 129.527 68.6489 129.527 68.3937V68.2916C129.527 67.9854 129.783 67.7812 130.038 67.7812H146.624C146.93 67.7812 147.135 68.0364 147.135 68.2916V68.3937C147.135 68.6489 146.93 68.904 146.624 68.904Z" fill="#9997FF"/>
<path d="M123.607 94.2707H108.857C107.224 94.2707 105.948 92.9438 105.948 91.3617V76.5614C105.948 74.9282 107.275 73.6523 108.857 73.6523H123.607C125.24 73.6523 126.516 74.9793 126.516 76.5614V91.3617C126.516 92.9438 125.24 94.2707 123.607 94.2707Z" fill="white"/>
<path d="M147.135 94.2707H132.386C130.752 94.2707 129.477 92.9438 129.477 91.3617V76.5614C129.477 74.9282 130.803 73.6523 132.386 73.6523H147.135C148.768 73.6523 150.044 74.9793 150.044 76.5614V91.3617C150.095 92.9438 148.768 94.2707 147.135 94.2707Z" fill="white"/>
<path d="M116.054 99.7817H107.02C106.408 99.7817 105.897 99.2714 105.897 98.659V98.4548C105.897 97.8424 106.408 97.332 107.02 97.332H116.054C116.666 97.332 117.176 97.8424 117.176 98.4548V98.659C117.176 99.2714 116.666 99.7817 116.054 99.7817Z" fill="#E4AC1A"/>
<path d="M114.93 103.306H106.459C106.152 103.306 105.948 103.051 105.948 102.796V102.694C105.948 102.388 106.203 102.184 106.459 102.184H114.93C115.237 102.184 115.441 102.439 115.441 102.694V102.796C115.492 103.051 115.237 103.306 114.93 103.306Z" fill="#9997FF"/>
<path d="M123.045 105.752H106.459C106.152 105.752 105.948 105.497 105.948 105.241V105.139C105.948 104.833 106.203 104.629 106.459 104.629H123.045C123.351 104.629 123.555 104.884 123.555 105.139V105.241C123.607 105.497 123.351 105.752 123.045 105.752Z" fill="#9997FF"/>
<path d="M139.633 99.7817H130.599C129.987 99.7817 129.477 99.2714 129.477 98.659V98.4548C129.477 97.8424 129.987 97.332 130.599 97.332H139.633C140.245 97.332 140.755 97.8424 140.755 98.4548V98.659C140.704 99.2714 140.245 99.7817 139.633 99.7817Z" fill="#E4AC1A"/>
<path d="M138.51 103.306H130.038C129.731 103.306 129.527 103.051 129.527 102.796V102.694C129.527 102.388 129.783 102.184 130.038 102.184H138.51C138.816 102.184 139.02 102.439 139.02 102.694V102.796C139.02 103.051 138.765 103.306 138.51 103.306Z" fill="#9997FF"/>
<path d="M146.624 105.752H130.038C129.731 105.752 129.527 105.497 129.527 105.241V105.139C129.527 104.833 129.783 104.629 130.038 104.629H146.624C146.93 104.629 147.135 104.884 147.135 105.139V105.241C147.135 105.497 146.93 105.752 146.624 105.752Z" fill="#9997FF"/>
<path d="M135.244 119.019H119.423C118.045 119.019 116.922 117.897 116.922 116.519V116.059C116.922 114.681 118.045 113.559 119.423 113.559H135.244C136.622 113.559 137.744 114.681 137.744 116.059V116.519C137.744 117.897 136.622 119.019 135.244 119.019Z" fill="url(#paint0_radial_8958_26791)"/>
<path d="M63.2834 100.285L66.7538 102.48C66.7538 102.48 66.4987 117.841 67.9787 127.895H54.8115C54.8115 127.844 57.9247 105.746 63.2834 100.285Z" fill="#D85339"/>
<path d="M36.6436 127.844C36.6436 127.844 39.4505 109.165 45.3196 100.285H63.2841C63.2841 100.285 60.6813 111.666 61.702 127.844H36.6436Z" fill="#ED784F"/>
<path d="M51.2396 113.4C50.7802 113.4 50.3209 113.349 49.8616 113.247C48.1774 112.89 47.0036 112.022 46.4933 110.695C45.0132 107.123 48.5347 101.509 48.6878 101.305L49.4533 101.764C49.4023 101.815 46.0339 107.225 47.3098 110.338C47.7181 111.359 48.6368 112.022 50.0657 112.379C51.4437 112.686 52.7196 112.481 53.8934 111.716C57.568 109.317 58.9459 102.479 58.9459 102.376L59.8135 102.53C59.7625 102.836 58.3335 109.828 54.3527 112.43C53.3831 113.094 52.3623 113.4 51.2396 113.4Z" fill="white"/>
<path d="M49.7596 101.973C49.6065 102.484 49.0962 102.892 48.5858 102.892C48.0755 102.892 47.7693 102.484 47.9224 101.973C48.0755 101.463 48.5858 101.055 49.0962 101.055C49.6065 101.055 49.9127 101.463 49.7596 101.973Z" fill="white"/>
<path d="M60.4266 102.071C60.2735 102.581 59.7632 102.99 59.2528 102.99C58.7425 102.99 58.4362 102.581 58.5894 102.071C58.7425 101.561 59.2528 101.152 59.7632 101.152C60.2735 101.152 60.5797 101.561 60.4266 102.071Z" fill="white"/>
<path d="M45.013 106.668L47.6669 108.352C47.6669 108.352 47.4627 120.192 48.5855 127.848H38.4805C38.4805 127.848 40.8791 110.853 45.013 106.668Z" fill="#7A95EA"/>
<path d="M24.5479 127.848C24.5479 127.848 26.6913 113.507 31.2335 106.668H45.0131C45.0131 106.668 43.0227 115.395 43.7882 127.848H24.5479Z" fill="#A4B7FF"/>
<path d="M35.7252 116.726C35.368 116.726 35.0107 116.675 34.6535 116.624C33.3266 116.318 32.459 115.654 32.0507 114.685C30.9279 111.929 33.6328 107.642 33.7349 107.438L34.2962 107.795C34.2452 107.846 31.6424 111.98 32.6631 114.378C33.0204 115.195 33.6838 115.705 34.8066 115.96C35.8783 116.216 36.848 116.011 37.7156 115.45C40.5226 113.613 41.5943 108.356 41.5943 108.305L42.2578 108.458C42.2068 108.662 41.135 114.072 38.0729 116.062C37.4094 116.522 36.5928 116.726 35.7252 116.726Z" fill="white"/>
<path d="M34.6008 107.941C34.4988 108.349 34.0905 108.656 33.7332 108.656C33.376 108.656 33.1208 108.349 33.2229 107.941C33.3249 107.533 33.7332 107.227 34.0905 107.227C34.4477 107.227 34.7029 107.584 34.6008 107.941Z" fill="white"/>
<path d="M42.818 108.047C42.716 108.455 42.3077 108.761 41.9504 108.761C41.5421 108.761 41.338 108.455 41.4401 108.047C41.5421 107.638 41.9504 107.332 42.3077 107.332C42.6649 107.332 42.9201 107.638 42.818 108.047Z" fill="white"/>
<path d="M98.753 107.227H64.0488V130.856H98.753V107.227Z" fill="#FFB752"/>
<path d="M106.561 107.227H82.9316V130.856H106.561V107.227Z" fill="#ED9443"/>
<path d="M84.2072 105.797H62.415V110.594H84.2072V105.797Z" fill="#FFC973"/>
<path d="M108.295 105.797H83.9004V110.594H108.295V105.797Z" fill="#FFB752"/>
<path opacity="0.4" d="M160.557 24.6021V27.8173L153.361 46.037L100.08 38.841L100.029 50.1709V21.8462C100.029 19.8558 101.662 18.2227 103.653 18.2227H154.178C157.699 18.2737 160.557 21.0806 160.557 24.6021Z" fill="black"/>
<path d="M90.4365 31.7939H141.472L152.598 18.2695H101.613L90.4365 31.7939Z" fill="#B4CDDB"/>
<path d="M96.0504 37.8191H95.1318C92.529 37.8191 90.4365 35.7266 90.4365 33.1238V31.7969H100.746V33.1238C100.746 35.7266 98.6532 37.8191 96.0504 37.8191Z" fill="#FFF4E6"/>
<path d="M106.308 37.8191H105.39C102.787 37.8191 100.694 35.7266 100.694 33.1238V31.7969H111.004V33.1238C111.055 35.7266 108.911 37.8191 106.308 37.8191Z" fill="#FEB752"/>
<path d="M116.618 37.8191H115.699C113.096 37.8191 111.004 35.7266 111.004 33.1238V31.7969H121.313V33.1238C121.364 35.7266 119.221 37.8191 116.618 37.8191Z" fill="#FFF4E6"/>
<path d="M126.877 37.8191H125.958C123.355 37.8191 121.263 35.7266 121.263 33.1238V31.7969H131.572V33.1238C131.623 35.7266 129.479 37.8191 126.877 37.8191Z" fill="#FEB752"/>
<path d="M136.777 37.8191H135.858C133.256 37.8191 131.163 35.7266 131.163 33.1238V31.7969H141.472V33.1238C141.523 35.7266 139.38 37.8191 136.777 37.8191Z" fill="#FFF4E6"/>
<path d="M111.769 18.2695H101.511L90.4365 31.7939H100.695L111.769 18.2695Z" fill="#FEB752"/>
<path d="M122.027 18.2695H111.769L100.694 31.7939H110.952L122.027 18.2695Z" fill="#FFF4E6"/>
<path d="M132.336 18.2695H122.078L111.055 31.7939H121.313L132.336 18.2695Z" fill="#FEB752"/>
<path d="M152.598 18.2695H142.34L131.316 31.7939H141.575L152.598 18.2695Z" fill="#FEB752"/>
<path d="M142.595 18.2695H132.337L121.313 31.7939H131.572L142.595 18.2695Z" fill="#FFF4E6"/>
<path d="M107.891 10.3084C108.334 10.3084 108.718 10.3822 109.042 10.5299C109.37 10.6776 109.623 10.8871 109.799 11.1586C109.975 11.4302 110.064 11.7517 110.064 12.1232C110.064 12.49 109.975 12.8115 109.799 13.0878C109.623 13.3593 109.37 13.5689 109.042 13.7165C108.718 13.8594 108.334 13.9309 107.891 13.9309H106.884V15.3099H105.727V10.3084H107.891ZM107.827 12.9878C108.175 12.9878 108.439 12.9139 108.62 12.7663C108.801 12.6138 108.892 12.3995 108.892 12.1232C108.892 11.8422 108.801 11.6278 108.62 11.4802C108.439 11.3277 108.175 11.2515 107.827 11.2515H106.884V12.9878H107.827Z" fill="#5178D1"/>
<path d="M114.29 14.2381H111.968L111.525 15.3099H110.339L112.568 10.3084H113.711L115.947 15.3099H114.733L114.29 14.2381ZM113.925 13.3593L113.132 11.4444L112.339 13.3593H113.925Z" fill="#5178D1"/>
<path d="M124.111 10.3084L122.475 15.3099H121.231L120.131 11.9232L118.995 15.3099H117.759L116.116 10.3084H117.316L118.445 13.8237L119.624 10.3084H120.696L121.839 13.8523L123.003 10.3084H124.111Z" fill="#5178D1"/>
<path d="M129.701 10.3084V15.3099H128.751L126.257 12.2733V15.3099H125.114V10.3084H126.072L128.558 13.345V10.3084H129.701Z" fill="#5178D1"/>
<path d="M132.885 15.3956C132.49 15.3956 132.106 15.3432 131.735 15.2384C131.368 15.1289 131.073 14.9884 130.849 14.8169L131.242 13.9452C131.456 14.1024 131.711 14.2286 132.006 14.3239C132.302 14.4191 132.597 14.4668 132.892 14.4668C133.221 14.4668 133.464 14.4191 133.621 14.3239C133.778 14.2238 133.857 14.0928 133.857 13.9309C133.857 13.8118 133.809 13.7142 133.714 13.638C133.624 13.557 133.504 13.4927 133.357 13.445C133.214 13.3974 133.019 13.345 132.771 13.2878C132.39 13.1973 132.078 13.1068 131.835 13.0163C131.592 12.9258 131.382 12.7806 131.206 12.5805C131.035 12.3804 130.949 12.1137 130.949 11.7803C130.949 11.4897 131.028 11.2277 131.185 10.9943C131.342 10.7561 131.578 10.568 131.892 10.4299C132.211 10.2917 132.599 10.2227 133.057 10.2227C133.376 10.2227 133.688 10.2608 133.993 10.337C134.298 10.4132 134.564 10.5227 134.793 10.6656L134.436 11.5445C133.974 11.2825 133.512 11.1515 133.05 11.1515C132.726 11.1515 132.485 11.2039 132.328 11.3087C132.176 11.4135 132.099 11.5516 132.099 11.7231C132.099 11.8946 132.187 12.0232 132.364 12.1089C132.545 12.1899 132.819 12.2709 133.185 12.3519C133.566 12.4424 133.878 12.5329 134.121 12.6234C134.364 12.7139 134.571 12.8568 134.743 13.0521C134.919 13.2474 135.007 13.5117 135.007 13.8452C135.007 14.131 134.926 14.3929 134.764 14.6311C134.607 14.8645 134.369 15.0503 134.05 15.1884C133.731 15.3265 133.343 15.3956 132.885 15.3956Z" fill="#5178D1"/>
<path d="M140.743 10.3084V15.3099H139.585V13.2593H137.313V15.3099H136.155V10.3084H137.313V12.2804H139.585V10.3084H140.743Z" fill="#5178D1"/>
<path d="M144.705 15.3956C144.186 15.3956 143.717 15.2837 143.298 15.0598C142.883 14.8359 142.557 14.5287 142.319 14.1381C142.085 13.7427 141.969 13.2998 141.969 12.8091C141.969 12.3185 142.085 11.8779 142.319 11.4873C142.557 11.092 142.883 10.7823 143.298 10.5585C143.717 10.3346 144.186 10.2227 144.705 10.2227C145.224 10.2227 145.691 10.3346 146.106 10.5585C146.52 10.7823 146.846 11.092 147.085 11.4873C147.323 11.8779 147.442 12.3185 147.442 12.8091C147.442 13.2998 147.323 13.7427 147.085 14.1381C146.846 14.5287 146.52 14.8359 146.106 15.0598C145.691 15.2837 145.224 15.3956 144.705 15.3956ZM144.705 14.4096C145.001 14.4096 145.267 14.3429 145.506 14.2095C145.744 14.0714 145.929 13.8809 146.063 13.638C146.201 13.395 146.27 13.1188 146.27 12.8091C146.27 12.4995 146.201 12.2232 146.063 11.9803C145.929 11.7374 145.744 11.5492 145.506 11.4159C145.267 11.2777 145.001 11.2087 144.705 11.2087C144.41 11.2087 144.143 11.2777 143.905 11.4159C143.667 11.5492 143.479 11.7374 143.341 11.9803C143.207 12.2232 143.141 12.4995 143.141 12.8091C143.141 13.1188 143.207 13.395 143.341 13.638C143.479 13.8809 143.667 14.0714 143.905 14.2095C144.143 14.3429 144.41 14.4096 144.705 14.4096Z" fill="#5178D1"/>
<path d="M150.834 10.3084C151.277 10.3084 151.66 10.3822 151.984 10.5299C152.313 10.6776 152.565 10.8871 152.742 11.1586C152.918 11.4302 153.006 11.7517 153.006 12.1232C153.006 12.49 152.918 12.8115 152.742 13.0878C152.565 13.3593 152.313 13.5689 151.984 13.7165C151.66 13.8594 151.277 13.9309 150.834 13.9309H149.826V15.3099H148.669V10.3084H150.834ZM150.77 12.9878C151.117 12.9878 151.382 12.9139 151.563 12.7663C151.744 12.6138 151.834 12.3995 151.834 12.1232C151.834 11.8422 151.744 11.6278 151.563 11.4802C151.382 11.3277 151.117 11.2515 150.77 11.2515H149.826V12.9878H150.77Z" fill="#5178D1"/>
<path d="M107.381 9.80058C107.824 9.80058 108.207 9.87441 108.531 10.0221C108.86 10.1697 109.112 10.3793 109.288 10.6508C109.465 10.9223 109.553 11.2439 109.553 11.6154C109.553 11.9822 109.465 12.3037 109.288 12.58C109.112 12.8515 108.86 13.0611 108.531 13.2087C108.207 13.3516 107.824 13.4231 107.381 13.4231H106.373V14.8021H105.216V9.80058H107.381ZM107.316 12.4799C107.664 12.4799 107.929 12.4061 108.11 12.2585C108.291 12.106 108.381 11.8917 108.381 11.6154C108.381 11.3344 108.291 11.12 108.11 10.9724C107.929 10.8199 107.664 10.7437 107.316 10.7437H106.373V12.4799H107.316Z" fill="#A6C4F4"/>
<path d="M113.779 13.7303H111.457L111.014 14.8021H109.828L112.057 9.80058H113.2L115.437 14.8021H114.222L113.779 13.7303ZM113.415 12.8515L112.622 10.9366L111.828 12.8515H113.415Z" fill="#A6C4F4"/>
<path d="M123.6 9.80058L121.964 14.8021H120.721L119.62 11.4153L118.484 14.8021H117.248L115.605 9.80058H116.805L117.934 13.3159L119.113 9.80058H120.185L121.328 13.3445L122.493 9.80058H123.6Z" fill="#A6C4F4"/>
<path d="M129.191 9.80058V14.8021H128.24L125.747 11.7655V14.8021H124.604V9.80058H125.561L128.047 12.8372V9.80058H129.191Z" fill="#A6C4F4"/>
<path d="M132.375 14.8878C131.979 14.8878 131.596 14.8354 131.224 14.7306C130.857 14.6211 130.562 14.4805 130.338 14.3091L130.731 13.4374C130.946 13.5946 131.2 13.7208 131.496 13.8161C131.791 13.9113 132.086 13.959 132.382 13.959C132.71 13.959 132.953 13.9113 133.11 13.8161C133.268 13.716 133.346 13.585 133.346 13.4231C133.346 13.304 133.299 13.2064 133.203 13.1301C133.113 13.0492 132.994 12.9849 132.846 12.9372C132.703 12.8896 132.508 12.8372 132.26 12.78C131.879 12.6895 131.567 12.599 131.324 12.5085C131.081 12.418 130.872 12.2727 130.695 12.0727C130.524 11.8726 130.438 11.6059 130.438 11.2724C130.438 10.9819 130.517 10.7199 130.674 10.4865C130.831 10.2483 131.067 10.0602 131.381 9.92205C131.701 9.78391 132.089 9.71484 132.546 9.71484C132.865 9.71484 133.177 9.75295 133.482 9.82916C133.787 9.90538 134.054 10.0149 134.282 10.1578L133.925 11.0367C133.463 10.7747 133.001 10.6437 132.539 10.6437C132.215 10.6437 131.974 10.6961 131.817 10.8009C131.665 10.9057 131.589 11.0438 131.589 11.2153C131.589 11.3868 131.677 11.5154 131.853 11.6011C132.034 11.6821 132.308 11.7631 132.675 11.844C133.056 11.9345 133.368 12.0251 133.611 12.1156C133.854 12.2061 134.061 12.349 134.232 12.5443C134.408 12.7395 134.497 13.0039 134.497 13.3373C134.497 13.6231 134.416 13.8851 134.254 14.1233C134.096 14.3567 133.858 14.5425 133.539 14.6806C133.22 14.8187 132.832 14.8878 132.375 14.8878Z" fill="#A6C4F4"/>
<path d="M140.232 9.80058V14.8021H139.074V12.7515H136.802V14.8021H135.645V9.80058H136.802V11.7726H139.074V9.80058H140.232Z" fill="#A6C4F4"/>
<path d="M144.195 14.8878C143.675 14.8878 143.206 14.7759 142.787 14.552C142.373 14.3281 142.046 14.0209 141.808 13.6303C141.575 13.2349 141.458 12.7919 141.458 12.3013C141.458 11.8107 141.575 11.3701 141.808 10.9795C142.046 10.5841 142.373 10.2745 142.787 10.0507C143.206 9.82678 143.675 9.71484 144.195 9.71484C144.714 9.71484 145.181 9.82678 145.595 10.0507C146.009 10.2745 146.336 10.5841 146.574 10.9795C146.812 11.3701 146.931 11.8107 146.931 12.3013C146.931 12.7919 146.812 13.2349 146.574 13.6303C146.336 14.0209 146.009 14.3281 145.595 14.552C145.181 14.7759 144.714 14.8878 144.195 14.8878ZM144.195 13.9018C144.49 13.9018 144.757 13.8351 144.995 13.7017C145.233 13.5636 145.419 13.3731 145.552 13.1301C145.69 12.8872 145.759 12.6109 145.759 12.3013C145.759 11.9917 145.69 11.7154 145.552 11.4725C145.419 11.2296 145.233 11.0414 144.995 10.9081C144.757 10.7699 144.49 10.7008 144.195 10.7008C143.899 10.7008 143.632 10.7699 143.394 10.9081C143.156 11.0414 142.968 11.2296 142.83 11.4725C142.696 11.7154 142.63 11.9917 142.63 12.3013C142.63 12.6109 142.696 12.8872 142.83 13.1301C142.968 13.3731 143.156 13.5636 143.394 13.7017C143.632 13.8351 143.899 13.9018 144.195 13.9018Z" fill="#A6C4F4"/>
<path d="M150.323 9.80058C150.766 9.80058 151.15 9.87441 151.473 10.0221C151.802 10.1697 152.055 10.3793 152.231 10.6508C152.407 10.9223 152.495 11.2439 152.495 11.6154C152.495 11.9822 152.407 12.3037 152.231 12.58C152.055 12.8515 151.802 13.0611 151.473 13.2087C151.15 13.3516 150.766 13.4231 150.323 13.4231H149.316V14.8021H148.158V9.80058H150.323ZM150.259 12.4799C150.607 12.4799 150.871 12.4061 151.052 12.2585C151.233 12.106 151.323 11.8917 151.323 11.6154C151.323 11.3344 151.233 11.12 151.052 10.9724C150.871 10.8199 150.607 10.7437 150.259 10.7437H149.316V12.4799H150.259Z" fill="#A6C4F4"/>
<defs>
<radialGradient id="paint0_radial_8958_26791" cx="0" cy="0" r="1" gradientUnits="userSpaceOnUse" gradientTransform="translate(132.718 114.379) rotate(155.367) scale(11.1331 15.4788)">
<stop stop-color="#FFE284"/>
<stop offset="1" stop-color="#E4AC1A"/>
</radialGradient>
</defs>
</svg>
