<svg width="175" height="137" viewBox="0 0 175 137" fill="none" xmlns="http://www.w3.org/2000/svg">
<rect opacity="0.1" width="175" height="137" rx="10" fill="white"/>
<mask id="mask0_8990_28559" style="mask-type:alpha" maskUnits="userSpaceOnUse" x="0" y="0" width="175" height="137">
<rect width="175" height="137" rx="10" fill="white"/>
</mask>
<g mask="url(#mask0_8990_28559)">
<path fill-rule="evenodd" clip-rule="evenodd" d="M44.0697 53.1169H126.772C127.75 53.1169 128.558 52.2912 128.558 51.3065V-5.83594H42.2412V51.3065C42.2412 52.2973 43.0559 53.1169 44.0697 53.1169Z" fill="#5B79BA"/>
<path fill-rule="evenodd" clip-rule="evenodd" d="M46.1395 49.6185H124.66C124.986 49.6185 125.27 49.331 125.27 49.0008V-5.83594H45.5723V49.0008C45.5723 49.331 45.8136 49.6185 46.1395 49.6185Z" fill="#F0F2FF"/>
<path fill-rule="evenodd" clip-rule="evenodd" d="M51.4196 2.31641H77.2109C77.8204 2.31641 78.3092 2.81181 78.3092 3.42953V33.5634C78.3092 34.1811 77.8204 34.6765 77.2109 34.6765H51.4196C50.8101 34.6765 50.3213 34.1811 50.3213 33.5634V3.42341C50.3273 2.81181 50.8101 2.31641 51.4196 2.31641Z" fill="#FEFEFE"/>
<path fill-rule="evenodd" clip-rule="evenodd" d="M64.2977 4.36719C69.0891 4.36719 72.9512 8.4833 72.9512 13.5902C72.9512 18.6543 69.0951 22.7704 64.2977 22.7704C59.5426 22.7704 55.6865 18.6543 55.6865 13.5902C55.6865 8.4833 59.5486 4.36719 64.2977 4.36719Z" fill="#4E4C42"/>
<path fill-rule="evenodd" clip-rule="evenodd" d="M78.3092 30.6847V33.5653C78.3092 34.1831 77.8204 34.6785 77.2109 34.6785H51.4196C50.8101 34.6785 50.3213 34.1831 50.3213 33.5653V30.6847C52.5118 26.8132 57.9549 24.0977 64.2972 24.0977C70.6756 24.0977 76.0765 26.8132 78.3092 30.6847Z" fill="#50A18E"/>
<path fill-rule="evenodd" clip-rule="evenodd" d="M64.297 13.5938C66.041 13.5938 67.4651 15.0371 67.4651 16.8047V26.3947C67.4651 28.1622 66.041 29.6056 64.297 29.6056C62.5893 29.6056 61.1289 28.1622 61.1289 26.3947V16.8047C61.1289 15.0371 62.5893 13.5938 64.297 13.5938Z" fill="#F0AE74"/>
<path fill-rule="evenodd" clip-rule="evenodd" d="M67.4651 17.509V26.4018C67.4651 26.4813 67.4651 26.5241 67.4651 26.6098L61.1289 24.4263V17.3867L67.4651 17.509Z" fill="#E4A268"/>
<path fill-rule="evenodd" clip-rule="evenodd" d="M71.3641 14.0038C71.3641 14.0833 71.3641 14.169 71.3641 14.2485V17.5022C71.3641 21.4104 68.196 24.6641 64.2978 24.6641C60.4417 24.6641 57.2676 21.4104 57.2676 17.5022V14.8234C60.7615 14.1628 63.8874 12.6827 66.4883 10.0039C67.5865 12.114 69.3365 13.2638 71.3641 14.0038Z" fill="#F0AE74"/>
<path fill-rule="evenodd" clip-rule="evenodd" d="M85.0556 6.70933C92.653 6.70933 89.322 6.70933 96.8772 6.70933C97.5289 6.70933 98.0539 6.13442 98.0539 5.47389C98.0539 4.81335 97.5229 4.28125 96.8772 4.28125C89.322 4.28125 92.653 4.28125 85.0556 4.28125C84.4039 4.28125 83.8789 4.81947 83.8789 5.47389C83.8789 6.13442 84.4099 6.70933 85.0556 6.70933Z" fill="#CACFF7"/>
<path fill-rule="evenodd" clip-rule="evenodd" d="M104.921 12.7993C112.476 12.7993 109.145 12.7993 116.742 12.7993C117.394 12.7993 117.919 12.2611 117.919 11.6067C117.919 10.9462 117.388 10.4141 116.742 10.4141C109.145 10.4141 112.476 10.4141 104.921 10.4141C104.269 10.4141 103.744 10.9523 103.744 11.6067C103.744 12.2672 104.269 12.7993 104.921 12.7993Z" fill="#CACFF7"/>
<path fill-rule="evenodd" clip-rule="evenodd" d="M85.0556 18.479C92.653 18.479 89.322 18.479 96.8772 18.479C97.5289 18.479 98.0539 17.9408 98.0539 17.2864C98.0539 16.6258 97.5229 16.0938 96.8772 16.0938C89.322 16.0938 92.653 16.0938 85.0556 16.0938C84.4039 16.0938 83.8789 16.632 83.8789 17.2864C83.8789 17.9469 84.4099 18.479 85.0556 18.479Z" fill="#CACFF7"/>
<path fill-rule="evenodd" clip-rule="evenodd" d="M85.2548 31.9984C92.8523 31.9984 89.5212 31.9984 97.0764 31.9984C97.7281 31.9984 98.2531 31.4235 98.2531 30.7629C98.2531 30.1024 97.7221 29.5703 97.0764 29.5703C89.5212 29.5703 92.8523 29.5703 85.2548 29.5703C84.6031 29.5703 84.0781 30.1085 84.0781 30.7629C84.0781 31.4235 84.6092 31.9984 85.2548 31.9984Z" fill="#CACFF7"/>
<path fill-rule="evenodd" clip-rule="evenodd" d="M105.12 25.4515C112.675 25.4515 109.344 25.4515 116.942 25.4515C117.593 25.4515 118.118 24.9133 118.118 24.2589C118.118 23.5984 117.587 23.0234 116.942 23.0234C109.344 23.0234 112.675 23.0234 105.12 23.0234C104.468 23.0234 103.943 23.5984 103.943 24.2589C103.943 24.9133 104.468 25.4515 105.12 25.4515Z" fill="#CACFF7"/>
<path fill-rule="evenodd" clip-rule="evenodd" d="M55.4446 44.182H115.397C116.049 44.182 116.574 43.6438 116.574 42.9893C116.574 42.3288 116.043 41.7539 115.397 41.7539H55.4446C54.7566 41.7539 54.2256 42.3288 54.2256 42.9893C54.2256 43.6499 54.7506 44.182 55.4446 44.182Z" fill="#CACFF7"/>
</g>
</svg>
