<svg width="156" height="104" viewBox="0 0 156 104" fill="none" xmlns="http://www.w3.org/2000/svg">
<rect opacity="0.1" width="156" height="104" rx="10" fill="white"/>
<mask id="mask0_8990_27061" style="mask-type:alpha" maskUnits="userSpaceOnUse" x="0" y="0" width="156" height="104">
<rect width="156" height="104" rx="10" fill="white"/>
</mask>
<g mask="url(#mask0_8990_27061)">
<path fill-rule="evenodd" clip-rule="evenodd" d="M71.2314 13.1992H186.441C191.475 13.1992 195.583 17.3036 195.583 22.3325V81.6786C195.583 86.7075 191.475 90.8118 186.441 90.8118H71.2314C66.1979 90.8112 62.0898 86.7068 62.0898 81.6786V22.3325C62.0898 17.3036 66.1979 13.1992 71.2314 13.1992Z" fill="#F0F2FF"/>
<path fill-rule="evenodd" clip-rule="evenodd" d="M195.028 84.8242C193.732 88.3369 190.365 90.8143 186.442 90.8143H71.2316C67.3084 90.8143 63.9408 88.3369 62.6455 84.8242H195.028Z" fill="#6E88C1"/>
<path fill-rule="evenodd" clip-rule="evenodd" d="M71.2314 13.1992H186.441C191.475 13.1992 195.583 17.3036 195.583 22.3325V25.9932H62.0898V22.3325C62.0898 17.3036 66.1979 13.1992 71.2314 13.1992Z" fill="#6E88C1"/>
<path fill-rule="evenodd" clip-rule="evenodd" d="M62.0898 22.6988V22.3467C62.0898 21.6424 62.188 20.9382 62.3844 20.2734H143.927V22.6988H62.0898Z" fill="#CACFF7"/>
<path fill-rule="evenodd" clip-rule="evenodd" d="M71.2314 13.1992H186.441C189.254 13.1992 191.771 14.4933 193.437 16.4898H64.2363C65.9015 14.4933 68.4185 13.1992 71.2314 13.1992Z" fill="#5B79BA"/>
<path d="M114.31 30.8047H69.4551V77.0613H114.31V30.8047Z" fill="#CACFF7"/>
<mask id="mask1_8990_27061" style="mask-type:alpha" maskUnits="userSpaceOnUse" x="69" y="30" width="46" height="48">
<path d="M114.31 30.8047H69.4551V77.0613H114.31V30.8047Z" fill="#CACFF7"/>
</mask>
<g mask="url(#mask1_8990_27061)">
<path fill-rule="evenodd" clip-rule="evenodd" d="M91.3655 36.4993C91.3655 36.4993 90.107 35.5381 87.9978 37.0543C85.8513 38.5332 86.2212 39.5317 84.3711 40.7518C82.4837 41.9351 81.5583 42.6742 81.7806 45.2257C82.0397 47.8138 82.1505 47.6657 81.5216 48.5903C80.8926 49.4775 78.0798 51.6961 78.3015 54.4697C78.5238 57.2059 80.1522 57.8343 82.4096 58.2045C84.7043 58.574 84.5561 59.0183 86.2212 58.9069C87.8496 58.7588 89.5148 58.9069 90.8474 59.6833C92.1427 60.4598 97.102 60.2376 98.3605 59.9788C99.6191 59.7567 101.84 58.3519 102.284 56.5028C102.728 54.6171 103.098 52.8794 101.988 51.0303C100.841 49.1813 99.6191 48.7751 99.8781 47.2222C100.137 45.6319 101.063 44.2638 99.8781 42.5261C98.6937 40.7511 97.2876 40.3075 96.9545 39.383C96.5846 38.4958 97.2135 37.0903 95.3628 36.462C93.5487 35.7969 91.3655 36.4993 91.3655 36.4993Z" fill="#342F35"/>
<path fill-rule="evenodd" clip-rule="evenodd" d="M88.9967 49.0742C88.9967 49.0742 89.0708 54.0291 88.4419 55.8775C87.8497 57.6892 86.8135 58.9092 86.8135 58.9092C90.3294 61.7935 93.7711 61.7935 97.3244 58.9092C97.3244 58.9092 96.2882 57.6892 95.6593 55.8775C95.067 54.0284 95.1044 49.0742 95.1044 49.0742H88.9967Z" fill="#FEA67E"/>
<path fill-rule="evenodd" clip-rule="evenodd" d="M88.9961 49.0742C88.9961 49.0742 89.0328 49.9614 88.9961 51.1081C90.7727 53.4374 93.4373 53.3267 95.1025 50.7385C95.1025 49.7773 95.1025 49.0749 95.1025 49.0749H88.9961V49.0742Z" fill="#F7976B"/>
<path fill-rule="evenodd" clip-rule="evenodd" d="M82.7414 59.3151C75.932 61.2375 76.7091 61.6444 72.4161 66.8214C70.0473 69.7424 67.5309 74.7713 66.7904 77.729C65.8283 81.5372 66.9387 86.3446 69.7882 86.6401C70.8985 86.7508 72.2679 86.2332 73.8222 84.717C74.8584 83.7184 75.932 81.1303 75.932 81.1303C89.1075 81.5372 95.1031 81.5372 108.241 81.1303C108.241 81.1303 109.315 83.7184 110.351 84.717C111.943 86.2332 113.275 86.7508 114.385 86.6401C117.235 86.3446 118.382 81.5372 117.383 77.729C116.642 74.7706 114.163 69.7424 111.757 66.8214C107.501 61.6451 108.278 61.2382 101.432 59.3151C100.026 58.9082 97.99 57.6881 96.6574 56.875C94.2144 59.1677 89.9588 59.1677 87.5158 56.875C86.2199 57.6881 84.1849 58.9088 82.7414 59.3151Z" fill="#7CA77A"/>
<path fill-rule="evenodd" clip-rule="evenodd" d="M87.4039 56.7578C86.3677 57.4235 84.9243 58.274 83.7031 58.7916L86.8491 61.121L85.184 63.4136L92.179 70.7345V65.5949C92.1049 65.5949 91.9941 65.5582 91.8458 65.4468C91.1054 64.8551 89.2921 62.5998 88.9963 62.1929C87.8486 60.566 87.5154 58.1259 87.4039 56.7578Z" fill="#8EB88C"/>
<path fill-rule="evenodd" clip-rule="evenodd" d="M96.8799 56.7578C97.9161 57.4235 99.3222 58.274 100.581 58.7916L97.4347 61.121L99.0998 63.4136L92.1055 70.7345V65.5949C92.1796 65.5949 92.2904 65.5582 92.4012 65.4468C93.1784 64.8551 94.9917 62.5998 95.2508 62.1929C96.4359 60.566 96.769 58.1259 96.8799 56.7578Z" fill="#8EB88C"/>
<path fill-rule="evenodd" clip-rule="evenodd" d="M96.9531 56.8356L96.6941 56.6875C94.2518 58.9801 89.9955 58.9801 87.5525 56.6875L87.4043 56.7615C87.5151 58.1297 87.8483 60.5697 88.996 62.1967C89.2918 62.6036 91.1058 64.8589 91.8455 65.4505C92.1046 65.6353 92.2528 65.6353 92.5119 65.4505C93.289 64.8222 95.0657 62.6036 95.3614 62.1967C96.4717 60.6077 96.8416 58.2037 96.9531 56.8356Z" fill="#F1DBCD"/>
<path fill-rule="evenodd" clip-rule="evenodd" d="M78.9664 70.5898C78.9664 70.5898 68.8261 77.3938 67.4934 79.8338C65.1987 84.123 69.1218 88.6342 73.1558 85.7499C74.8951 84.5298 75.9687 82.3853 76.7084 80.6843C77.8928 78.0221 79.7062 73.8437 79.7062 73.8437L78.9664 70.5898Z" fill="#7CA77A"/>
<path fill-rule="evenodd" clip-rule="evenodd" d="M105.501 70.5898C105.501 70.5898 115.642 77.3938 116.937 79.8338C119.268 84.123 115.345 88.6342 111.311 85.7499C109.572 84.5298 108.498 82.3853 107.759 80.6843C106.574 78.0221 104.761 73.8437 104.761 73.8437L105.501 70.5898Z" fill="#7CA77A"/>
<path fill-rule="evenodd" clip-rule="evenodd" d="M86.4424 46.0395C86.5165 46.6312 86.6273 47.1488 86.7388 47.5557C88.7745 53.3977 94.8068 53.3977 96.8425 47.5557C96.5834 46.7792 96.8792 45.3371 96.4352 44.7087C95.9171 43.969 95.9538 43.7842 95.9912 42.9711C96.0653 42.1946 95.5472 41.4922 94.7701 41.677C93.9929 41.8618 93.9562 41.4549 93.0308 41.0486C92.1054 40.6417 90.7735 41.1227 90.477 42.0098C90.1439 42.897 90.4029 42.7122 89.4775 43.3413C88.5896 43.9696 88.3672 43.3413 87.1461 43.9329C86.6647 44.1537 86.4798 45.0416 86.4424 46.0395Z" fill="#FEA67E"/>
<path d="M76.0442 70.668C75.9333 70.668 75.8592 70.5939 75.8592 70.5199C75.8225 70.187 75.7851 69.8542 75.711 69.5213C75.4887 67.5989 75.1929 65.5651 75.4887 63.6419C75.4887 63.5312 75.5995 63.4572 75.711 63.4939C75.7851 63.4939 75.8592 63.6046 75.8592 63.6786C75.6002 65.5644 75.8592 67.5609 76.1183 69.484C76.155 69.8168 76.1924 70.1497 76.2291 70.4452C76.2291 70.5559 76.155 70.6673 76.0809 70.6673C76.0442 70.668 76.0442 70.668 76.0442 70.668Z" fill="#6D9E6A"/>
<path d="M107.909 70.3682C107.798 70.3682 107.724 70.2942 107.724 70.1835C107.76 69.8506 107.798 69.5177 107.872 69.1849C108.131 67.1884 108.39 65.1546 108.057 63.1948C108.057 63.1207 108.131 63.01 108.205 62.9727C108.316 62.9727 108.427 63.0467 108.427 63.1574C108.761 65.1172 108.501 67.2244 108.242 69.2583C108.168 69.5538 108.132 69.8866 108.094 70.2195C108.094 70.3309 108.019 70.3682 107.909 70.3682Z" fill="#6D9E6A"/>
<path d="M92.0303 71.109C92.0303 71.035 92.1044 70.9609 92.1785 70.9609C92.2526 70.9609 92.3267 70.9976 92.3267 71.109L92.3634 81.2402C92.3634 81.3509 92.3267 81.3883 92.2152 81.4249C92.1411 81.4249 92.067 81.3509 92.067 81.2769L92.0303 71.109Z" fill="#6D9E6A"/>
</g>
<path d="M151.356 34.5039H122.155V37.9059H151.356V34.5039Z" fill="#CACFF7"/>
<path d="M158.054 41.1484H122.155V44.5504H158.054V41.1484Z" fill="#CACFF7"/>
<path d="M152.429 61.8594H122.155V65.2613H152.429V61.8594Z" fill="#CACFF7"/>
<path d="M134.554 73.6914H122.155V77.0934H134.554V73.6914Z" fill="#CACFF7"/>
<path d="M151.578 73.6914H139.18V77.0934H151.578V73.6914Z" fill="#CACFF7"/>
<path d="M141.511 48.1797H122.155V51.5816H141.511V48.1797Z" fill="#CACFF7"/>
<path d="M141.511 55.207H122.155V58.609H141.511V55.207Z" fill="#CACFF7"/>
<path d="M164.828 48.1797H145.472V51.5816H164.828V48.1797Z" fill="#CACFF7"/>
<path d="M164.828 55.207H145.472V58.609H164.828V55.207Z" fill="#CACFF7"/>
<path d="M148.272 18.4082H149.607V23.5087H148.272V18.4082Z" fill="white"/>
<path d="M152.804 18.4082C153.338 18.4082 153.81 18.5149 154.218 18.7283C154.632 18.9417 154.952 19.2425 155.181 19.6306C155.409 20.0138 155.524 20.4552 155.524 20.9548C155.524 21.4544 155.407 21.8983 155.174 22.2863C154.945 22.6744 154.619 22.9751 154.196 23.1886C153.778 23.402 153.297 23.5087 152.752 23.5087H150.601V18.4082H152.804ZM152.84 22.4319C153.098 22.4319 153.326 22.3712 153.525 22.25C153.725 22.1287 153.88 21.9565 153.992 21.7333C154.104 21.5102 154.16 21.2555 154.16 20.9694C154.16 20.6783 154.099 20.4212 153.978 20.1981C153.861 19.975 153.698 19.8028 153.489 19.6815C153.28 19.5554 153.042 19.4923 152.774 19.4923H151.936V22.4319H152.84Z" fill="white"/>
<path d="M161.498 20.1399C161.333 19.9313 161.136 19.7664 160.908 19.6451C160.679 19.519 160.453 19.4559 160.229 19.4559C159.972 19.4559 159.736 19.5214 159.522 19.6524C159.313 19.7785 159.148 19.9556 159.026 20.1835C158.905 20.4067 158.844 20.6565 158.844 20.933C158.844 21.2095 158.905 21.4617 159.026 21.6897C159.148 21.9128 159.313 22.0899 159.522 22.2208C159.736 22.347 159.972 22.41 160.229 22.41C160.439 22.41 160.657 22.3567 160.886 22.25C161.114 22.1432 161.318 21.9977 161.498 21.8134L162.279 22.6501C162.002 22.9412 161.671 23.174 161.287 23.3486C160.908 23.5184 160.531 23.6033 160.157 23.6033C159.651 23.6033 159.194 23.4869 158.786 23.2541C158.377 23.0212 158.056 22.7035 157.823 22.3009C157.59 21.8983 157.473 21.4472 157.473 20.9475C157.473 20.4528 157.592 20.0065 157.83 19.6087C158.068 19.211 158.394 18.8981 158.807 18.6701C159.226 18.4421 159.692 18.3281 160.208 18.3281C160.587 18.3281 160.961 18.4082 161.331 18.5682C161.7 18.7235 162.014 18.9369 162.271 19.2085L161.498 20.1399Z" fill="white"/>
<path d="M166.549 23.5087L166.199 22.6065H163.989L163.632 23.5087H162.261L164.456 18.4082H165.827L167.971 23.5087H166.549ZM164.39 21.5878H165.805L165.105 19.7688L164.39 21.5878Z" fill="white"/>
<path d="M171.504 23.5087L170.76 22.0972H170.731H169.768V23.5087H168.434V18.4082H170.731C171.406 18.4082 171.929 18.5658 172.299 18.8811C172.673 19.1916 172.86 19.6306 172.86 20.1981C172.86 20.5813 172.782 20.9136 172.627 21.1949C172.471 21.4714 172.245 21.6873 171.949 21.8425L173.013 23.5087H171.504ZM169.768 21.0348H170.738C171.01 21.0348 171.219 20.9669 171.365 20.8311C171.516 20.6953 171.591 20.4988 171.591 20.2417C171.591 19.9944 171.516 19.8052 171.365 19.6742C171.219 19.5384 171.01 19.4705 170.738 19.4705H169.768V21.0348Z" fill="white"/>
<path d="M175.913 18.4082C176.448 18.4082 176.919 18.5149 177.328 18.7283C177.741 18.9417 178.062 19.2425 178.29 19.6306C178.519 20.0138 178.633 20.4552 178.633 20.9548C178.633 21.4544 178.516 21.8983 178.283 22.2863C178.054 22.6744 177.729 22.9751 177.306 23.1886C176.888 23.402 176.406 23.5087 175.862 23.5087H173.711V18.4082H175.913ZM175.949 22.4319C176.207 22.4319 176.436 22.3712 176.635 22.25C176.834 22.1287 176.99 21.9565 177.102 21.7333C177.213 21.5102 177.269 21.2555 177.269 20.9694C177.269 20.6783 177.209 20.4212 177.087 20.1981C176.97 19.975 176.807 19.8028 176.598 19.6815C176.389 19.5554 176.151 19.4923 175.884 19.4923H175.045V22.4319H175.949Z" fill="white"/>
</g>
</svg>
