<svg width="24" height="24" viewBox="0 0 24 24" fill="none" xmlns="http://www.w3.org/2000/svg">
<path d="M11.9645 0.333008C5.52452 0.333008 0.297852 5.55967 0.297852 11.9997C0.297852 18.4397 5.52452 23.6663 11.9645 23.6663C18.4045 23.6663 23.6312 18.4397 23.6312 11.9997C23.6312 5.55967 18.4162 0.333008 11.9645 0.333008ZM10.5062 15.5347C10.5062 16.0947 10.2729 16.3163 9.67785 16.3163H8.16118C7.56618 16.3163 7.33285 16.0947 7.33285 15.5347V8.46467C7.33285 7.90468 7.56618 7.68301 8.16118 7.68301H9.66618C10.2612 7.68301 10.4945 7.90468 10.4945 8.46467V15.5347H10.5062ZM16.6662 15.5347C16.6662 16.0947 16.4328 16.3163 15.8379 16.3163H14.3329C13.7379 16.3163 13.5045 16.0947 13.5045 15.5347V8.46467C13.5045 7.90468 13.7379 7.68301 14.3329 7.68301H15.8379C16.4328 7.68301 16.6662 7.90468 16.6662 8.46467V15.5347Z" fill="white"/>
</svg>
